<svg width="116" height="31" viewBox="0 0 116 31" fill="none" xmlns="http://www.w3.org/2000/svg">
<path d="M67.6623 8.89755L74.2736 6.43962L67.6623 3.85659V0.435553L78.9856 4.9955V7.83306L67.6623 12.4189V8.89755Z" fill="white"/>
<path d="M5.08466 30.7086C2.70331 30.7086 0.727478 29.4931 0.727478 26.8076V26.6555C0.727478 23.3876 3.56396 22.3242 6.98392 22.3242H8.63081V21.6911C8.63081 20.3732 8.04841 19.5622 6.68086 19.5622C5.43949 19.5622 4.78052 20.2718 4.67914 21.2856H1.133C1.38537 18.3467 3.71603 16.9025 6.85773 16.9025C10.049 16.9025 12.3301 18.2712 12.3301 21.5639V30.4303H8.70738V28.9096C8.07322 29.8727 6.85773 30.7086 5.08466 30.7086ZM8.63081 26.0224V24.7563H7.16187C5.33703 24.7563 4.40089 25.2621 4.40089 26.4528V26.5789C4.40089 27.4914 4.95848 28.1255 6.19984 28.1255C7.46601 28.1255 8.63081 27.4159 8.63081 26.0224ZM20.7166 30.7086C17.0432 30.7086 14.3836 28.4286 14.3836 23.9452V23.7673C14.3836 19.2839 17.2211 16.9025 20.7414 16.9025C23.7558 16.9025 26.2397 18.4232 26.5427 21.8928H22.9966C22.7679 20.6018 22.11 19.7649 20.818 19.7649C19.2466 19.7649 18.1584 21.0063 18.1584 23.6163V24.0207C18.1584 26.7062 19.1204 27.9228 20.8439 27.9228C22.11 27.9228 23.0462 26.9845 23.2489 25.5403H26.6193C26.3658 28.5548 24.3134 30.7086 20.7166 30.7086ZM34.4989 30.7086C30.8255 30.7086 28.1659 28.4286 28.1659 23.9452V23.7673C28.1659 19.2839 31.0034 16.9025 34.5248 16.9025C37.5392 16.9025 40.0219 18.4232 40.3261 21.8928H36.7789C36.5513 20.6018 35.8923 19.7649 34.6003 19.7649C33.03 19.7649 31.9407 21.0063 31.9407 23.6163V24.0207C31.9407 26.7062 32.9027 27.9228 34.6261 27.9228C35.8923 27.9228 36.8295 26.9845 37.0323 25.5403H40.4016C40.1481 28.5548 38.0957 30.7086 34.4989 30.7086ZM48.3836 30.7086C44.5582 30.7086 41.9492 28.4286 41.9492 24.0207V23.7673C41.9492 19.3346 44.7102 16.9025 48.2564 16.9025C51.5501 16.9025 54.3111 18.7522 54.3111 23.1342V24.7304H45.6981C45.8502 27.1117 46.8629 28.0231 48.4591 28.0231C49.8774 28.0231 50.6377 27.2638 50.8912 26.3007H54.3111C53.9056 28.8093 51.8543 30.7086 48.3836 30.7086ZM45.7488 22.2724H50.7143C50.6377 20.3225 49.7512 19.4867 48.2812 19.4867C47.1164 19.4867 46.053 20.1197 45.7488 22.2724ZM56.5922 17.1819H60.2904V19.1577C60.9494 17.9153 62.2662 16.9025 64.2927 16.9025C66.7 16.9025 68.2962 18.3467 68.2962 21.5639V30.4303H64.5969V22.1215C64.5969 20.5759 63.9638 19.8911 62.6211 19.8911C61.3301 19.8911 60.2904 20.6773 60.2904 22.349V30.4303H56.5922V17.1819ZM75.2137 13.1784V17.1819H77.7472V19.9418H75.2137V26.2252C75.2137 27.2131 75.6689 27.6682 76.5306 27.6682C77.0623 27.6682 77.4678 27.5927 77.8227 27.4407V30.3289C77.3923 30.4551 76.6568 30.6072 75.7455 30.6072C72.8572 30.6072 71.4896 29.2903 71.4896 26.6048V19.9418H69.9441V17.1819H71.4896V14.6981L75.2137 13.1784ZM91.6815 30.4303H87.9822V28.4793C87.3492 29.7465 86.1078 30.7086 84.132 30.7086C81.7506 30.7086 80.0023 29.2644 80.0023 26.1486V17.1819H83.7264V25.5921C83.7264 27.1117 84.3347 27.8203 85.6516 27.8203C86.9436 27.8203 87.9822 27.0103 87.9822 25.3635V17.1819H91.6815V30.4303ZM94.3681 17.1819H98.0663V19.6128C98.8515 17.8398 100.093 17.0039 102.044 17.0039V20.6514C99.5352 20.6514 98.0663 21.4118 98.0663 23.6163V30.4303H94.3681V17.1819ZM109.645 30.7086C105.82 30.7086 103.211 28.4286 103.211 24.0207V23.7673C103.211 19.3346 105.972 16.9025 109.518 16.9025C112.811 16.9025 115.573 18.7522 115.573 23.1342V24.7304H106.96C107.112 27.1117 108.124 28.0231 109.721 28.0231C111.139 28.0231 111.899 27.2638 112.153 26.3007H115.573C115.167 28.8093 113.116 30.7086 109.645 30.7086ZM107.009 22.2724H111.975C111.899 20.3225 111.013 19.4867 109.543 19.4867C108.378 19.4867 107.315 20.1197 107.009 22.2724Z" fill="white"/>
</svg>
