<svg width="176" height="25" viewBox="0 0 176 25" fill="none" xmlns="http://www.w3.org/2000/svg">
<g clip-path="url(#clip0_221_4475)">
<path d="M160.223 0.580166C159.953 1.32499 152.002 21.7664 151.504 23.0284L151.11 24.0215H152.106H153.082L157.649 12.2905C160.161 5.85603 162.237 0.456028 162.278 0.29051C162.34 0.104303 162.091 0.0215454 161.385 0.0215454C160.555 0.0215454 160.41 0.0836143 160.223 0.580166Z" fill="white"/>
<path d="M53.9566 10.987V20.2974H55.9287C57.8593 20.2974 57.9009 20.2974 57.9009 19.8215V19.325L59.0634 19.925C63.8587 22.325 68.488 17.0905 66.9311 11.0905C66.1422 8.11118 64.1078 6.37325 61.3884 6.35256C60.2051 6.35256 59.873 6.43532 58.9596 7.01463L57.9009 7.65601V4.6767V1.6767H55.9287H53.9566V10.987ZM62.1357 10.5733C64.3154 12.4767 63.1737 16.9664 60.4957 16.987C57.8593 16.987 56.7383 12.725 58.835 10.6353C59.4163 10.056 59.6654 9.95256 60.475 9.95256C61.2223 9.95256 61.5545 10.0767 62.1357 10.5733Z" fill="white"/>
<path d="M99.4192 3.82846C99.4192 6.49743 99.4192 6.51812 96.7828 6.60087C94.6654 6.68363 94.7899 6.62156 94.354 8.02846L94.2087 8.50432H96.8036H99.3985L99.4608 13.6767L99.523 18.8491L100.208 19.5112L100.872 20.194L104.298 20.256L107.723 20.3181V19.3871V18.4354H104.609H101.495V13.4698V8.50432H104.609H107.723V7.57329V6.64225H104.609H101.495V4.15949V1.67674H100.457H99.4192V3.82846Z" fill="white"/>
<path d="M139.069 10.9871V20.2974H140.211H141.353V15.125V9.97329L141.996 9.24915C142.474 8.71122 142.889 8.46294 143.74 8.27674C145.691 7.84225 147.311 8.66984 147.788 10.3457C147.892 10.7595 147.996 13.1595 147.996 15.6836V20.2974H149.054H150.092L150.03 14.856L149.968 9.39398L149.345 8.38018C148.266 6.68363 146.044 5.85605 144.01 6.41467C142.951 6.72501 142.37 7.15949 141.789 8.11122L141.353 8.81467V5.23536V1.67674H140.211H139.069V10.9871Z" fill="white"/>
<path d="M7.08236 7.82155L1.4151 11.0905L1.47738 12.2284L1.53966 13.3457L6.83325 16.4078C9.73954 18.1043 12.2929 19.5733 12.5005 19.6974C12.8119 19.8836 12.8534 19.7802 12.8534 18.7664V17.6284L8.1826 15.0009C5.60846 13.5319 3.51178 12.2905 3.51178 12.2284C3.51178 12.1457 5.54618 10.9457 8.01652 9.55948C10.5076 8.15259 12.6251 6.95259 12.7081 6.84914C12.8119 6.76638 12.8534 6.22845 12.8119 5.62845L12.7496 4.57328L7.08236 7.82155Z" fill="white"/>
<path d="M163.358 5.66982V6.78706L168.028 9.43533C170.603 10.8836 172.699 12.125 172.699 12.2284C172.699 12.3112 170.603 13.5733 168.028 15.0215L163.358 17.6491V18.7871V19.925L164.458 19.2836C165.039 18.9319 167.613 17.4629 170.146 16.0146L174.754 13.3664L174.775 12.2077V11.0698L169.253 7.86292C166.202 6.1043 163.627 4.63533 163.544 4.61464C163.441 4.57326 163.358 5.04913 163.358 5.66982Z" fill="white"/>
<path d="M22.6725 6.41467C21.6761 6.66294 20.1814 7.61467 19.6209 8.3595C18.6452 9.62156 18.2093 10.9664 18.0847 12.8698C17.8979 16.2423 19.2265 18.8905 21.6761 20.0078C23.3576 20.794 25.4958 20.6078 26.7621 19.5526L27.3848 19.0147V19.656V20.2974H29.357H31.3291V13.4698V6.64225H29.357H27.3848V7.18018C27.3848 7.71812 27.3641 7.71812 26.9281 7.38708C25.7241 6.51812 23.9388 6.10432 22.6725 6.41467ZM26.1808 10.3664C27.9453 11.7319 27.8 15.725 25.9317 16.6767C24.9353 17.194 23.9803 17.0698 23.15 16.3457C21.5723 14.9802 21.593 11.7112 23.1915 10.4285C23.9388 9.80777 25.4542 9.78708 26.1808 10.3664Z" fill="white"/>
<path d="M38.8647 6.43536C38.491 6.51811 37.8475 6.82846 37.4531 7.1388L36.7265 7.69742V7.18018C36.7265 6.64225 36.7265 6.64225 34.8582 6.64225H32.9898V13.4698V20.2974H34.962H36.9341V15.725V11.1526L37.6399 10.4491C38.4703 9.62156 38.9892 9.55949 39.7781 10.2423L40.3594 10.7388L40.4631 14.7526C40.5669 18.0423 40.65 18.8905 40.9614 19.5112L41.335 20.2974H43.3902H45.4661L44.9887 19.656C44.5319 19.056 44.5112 18.8078 44.4489 15.3733C44.4074 12.1871 44.4282 11.6078 44.7603 10.9871C45.4454 9.66294 46.9608 9.43536 47.6873 10.5319C47.978 10.9664 48.061 11.7733 48.144 15.0423C48.2894 20.256 48.2271 20.1733 51.2787 20.256C53.2508 20.2974 53.3961 20.2767 53.0017 20.0078C52.2336 19.4698 52.1091 18.6836 52.0468 14.194L51.9845 9.84915L51.3617 8.60777C50.5314 6.97329 49.4934 6.3526 47.5213 6.3526C46.0889 6.3526 45.134 6.70432 44.179 7.59398L43.6393 8.11122L42.892 7.40777C41.854 6.41467 40.4009 6.06294 38.8647 6.43536Z" fill="white"/>
<path d="M73.3249 6.43537C67.1802 7.71812 66.2045 16.8836 71.9133 19.8423C73.8647 20.8354 77.6221 20.6492 79.3036 19.4492C79.781 19.1181 79.8641 18.8698 79.9886 17.5871C80.0509 16.7595 80.0924 16.0561 80.0302 16.0147C79.9886 15.9733 79.5942 16.0974 79.1375 16.325C78.2864 16.7595 76.5011 17.194 75.5877 17.194C74.1345 17.194 72.2247 16.0767 72.2247 15.2492C72.2247 14.9595 72.7229 14.9181 76.4803 14.9181H80.736V13.7802C80.736 8.75261 77.5183 5.54571 73.3249 6.43537ZM75.5462 9.84916C76.169 10.1595 76.7917 11.1112 76.7917 11.7112C76.7917 11.9802 76.4181 12.0216 74.4044 12.0216H72.0171L72.3285 11.2767C72.4946 10.863 72.6399 10.4905 72.6399 10.4492C72.6399 10.3871 72.9513 10.1802 73.3249 9.95261C74.1138 9.45606 74.7366 9.43537 75.5462 9.84916Z" fill="white"/>
<path d="M114.636 6.51812C112.601 7.1595 111.314 8.50433 110.629 10.7595C109.84 13.2423 110.256 16.4285 111.584 18.1871C112.352 19.2009 112.601 19.4078 113.951 20.0492C114.906 20.5043 115.362 20.5871 116.795 20.5664C119.203 20.5664 120.801 19.7595 121.922 18.0009C122.254 17.463 122.254 17.463 121.466 16.9457L120.677 16.4078L119.992 17.2147C118.788 18.6423 117.231 19.0974 115.362 18.5595C113.619 18.063 112.498 16.5526 112.498 14.7112V13.8836H117.604H122.732L122.607 12.3526C122.462 10.325 121.839 8.93881 120.552 7.78019C118.954 6.35261 116.732 5.87674 114.636 6.51812ZM118.663 8.62847C119.784 9.45605 120.718 11.525 120.282 12.2285C120.199 12.3526 118.746 12.4354 116.317 12.4354H112.498V11.8354C112.498 10.5319 113.577 8.98019 114.885 8.38019C115.798 7.94571 117.936 8.09054 118.663 8.62847Z" fill="white"/>
<path d="M129.105 6.64228C127.465 7.2009 126.136 8.66987 125.555 10.6147C125.181 11.8147 125.119 12.394 125.223 13.9664C125.347 16.2837 125.783 17.5044 126.821 18.7044C129.105 21.2906 134.046 21.2285 135.976 18.5802C136.308 18.125 136.578 17.6492 136.578 17.525C136.578 17.4009 136.267 17.1112 135.893 16.863L135.229 16.4285L134.336 17.4216C133.61 18.2285 133.257 18.4561 132.364 18.6423C130.413 19.0768 128.627 18.2285 127.839 16.4699C127.403 15.5181 127.299 12.063 127.652 10.7388C128.15 9.0009 129.831 7.94573 131.824 8.13194C132.966 8.25608 133.755 8.71125 134.419 9.68366L134.834 10.3044L135.603 9.91125C136.495 9.47677 136.537 9.29056 135.935 8.4009C134.585 6.45608 131.762 5.73194 129.105 6.64228Z" fill="white"/>
<path d="M82.459 13.4698L84.784 20.2974H87.0053H89.2057L91.4893 13.4698L93.7728 6.64225H91.6553H89.5586L88.3131 11.194C87.628 13.6974 87.026 15.6629 86.943 15.5802C86.8807 15.4974 86.2787 13.4491 85.6144 11.0285L84.3896 6.64225H82.2514H80.134L82.459 13.4698Z" fill="white"/>
</g>
<defs>
<clipPath id="clip0_221_4475">
<rect width="175" height="24" fill="white" transform="translate(0.605499 0.0214844)"/>
</clipPath>
</defs>
</svg>
