<svg width="189" height="28" viewBox="0 0 189 28" fill="none" xmlns="http://www.w3.org/2000/svg">
<g clip-path="url(#clip0_221_4468)">
<path fill-rule="evenodd" clip-rule="evenodd" d="M0.866394 9.62848L6.32359 13.2296L12.8784 8.90825L10.1498 7.1026L13.699 4.76946L21.3411 9.81107L8.78548 18.0886L11.5141 19.8943L27.0856 9.62848L13.976 0.985657L0.866394 9.62848ZM27.0856 18.2712L21.6182 14.6701L15.0633 18.9915L17.7919 20.7869L14.2427 23.1303L6.60055 18.0886L19.1562 9.81107L16.4276 8.00543L0.866394 18.2712L13.976 26.914L27.0856 18.2712ZM27.0856 4.58681L24.3467 6.39252L21.6182 4.58681L27.0856 0.985657V4.58681ZM0.866394 23.3128L3.59499 21.5072L6.32359 23.3128L0.866394 26.914V23.3128Z" fill="white"/>
<path fill-rule="evenodd" clip-rule="evenodd" d="M39.477 22.5824C41.1901 22.5824 45.4471 22.3897 45.4471 18.0176C45.4471 15.6439 44.6983 13.9904 41.8261 13.6354C44.0213 13.2093 45.1189 11.7688 45.1189 9.78055C45.1189 6.09825 42.5852 5.30707 39.4975 5.30707H32.3273V22.5824H39.477ZM168.162 22.5824C170.563 22.5824 172.983 22.268 172.983 18.606C172.983 14.3759 166.788 14.8019 166.788 12.1137C166.788 11.1399 167.393 10.6124 168.408 10.6124H171.732V8.43145H167.065C163.238 8.43145 162.295 10.1458 162.295 12.3572C162.295 16.567 169.157 16.4655 169.157 18.8392C169.157 19.7928 168.634 20.442 167.578 20.442H162.664L159.022 8.44159H154.663L150.631 21.3144L148.098 15.7758C149.954 15.441 150.693 14.2744 150.703 12.1442C150.703 9.72989 149.247 8.44159 147 8.44159H140.179V22.5824H143.902V10.6124H145.144C146.19 10.6124 147.103 11.3732 147.103 12.763C147.103 13.9397 146.508 14.9135 145.554 14.8527L144.508 14.863L147.903 22.5827H153.873L154.765 19.4482H158.622L159.505 22.5827L168.162 22.5824ZM158.058 17.2872H155.299L156.612 11.495L158.058 17.2872ZM116.524 22.9984C122.094 22.9984 122.094 19.3363 122.094 15.583C122.094 11.779 122.094 8.15749 116.524 8.15749C110.954 8.15749 110.954 11.779 110.954 15.583C110.954 19.3363 110.954 22.9984 116.524 22.9984ZM116.524 20.8478C114.893 20.8478 114.678 19.2653 114.678 15.583C114.678 11.9007 114.893 10.3081 116.524 10.3081C118.155 10.3081 118.36 11.9007 118.36 15.583C118.36 19.2653 118.155 20.8478 116.524 20.8478ZM98.8394 22.5824H104.276C109.979 22.5824 109.6 17.5916 109.6 15.4106C109.6 10.9979 108.779 8.40101 104.409 8.40101H98.8394V22.5824ZM102.471 10.6023H103.938C105.938 10.6023 105.938 12.905 105.938 15.512C105.938 19.0726 105.589 20.4319 103.845 20.4319H102.471V10.6023ZM131.367 15.0454H132.27C134.014 15.0454 134.568 15.9888 134.568 17.5104C134.568 19.9348 132.916 19.9551 132.178 19.9551H130.259V15.0758L131.367 15.0454ZM130.259 12.4079V7.99525H132.393C133.562 7.99525 134.383 8.91837 134.383 10.1965C134.383 11.8703 133.326 12.3876 132.578 12.3876H131.367L130.259 12.4079ZM132.998 22.5926C134.711 22.5926 138.968 22.3998 138.968 18.0176C138.968 15.6439 138.219 14.0005 135.357 13.6354C137.553 13.2093 138.65 11.7688 138.65 9.78055C138.65 6.09825 136.106 5.30707 133.029 5.30707H125.848V22.5926H132.998ZM187.991 22.5822V20.4418H183.744V8.44134H180.113V22.5822H187.991ZM177.979 8.44134H174.337V22.5822H177.979V8.44134ZM89.3201 22.9981C94.8901 22.9981 94.8901 19.3259 94.8901 15.5523C94.8901 11.728 94.8901 8.09644 89.3201 8.09644C83.7603 8.09644 83.7603 11.728 83.7603 15.5523C83.7603 19.3259 83.7603 22.9981 89.3201 22.9981ZM89.3201 20.8476C87.6891 20.8476 87.484 19.2448 87.484 15.5523C87.484 11.8497 87.689 10.2571 89.3201 10.2571C90.9511 10.2571 91.1665 11.8497 91.1665 15.5523C91.1665 19.2448 90.9512 20.8476 89.3201 20.8476ZM53.3252 17.2768H50.5555L51.8685 11.4947L53.3252 17.2768ZM49.1297 22.5822L50.0324 19.4477H53.8893L54.7716 22.5822H58.5772L54.2792 8.44134H49.9298L45.5394 22.5822H49.1297ZM77.6876 22.9981C80.8471 22.9981 82.6935 21.7605 82.6935 17.9058H79.093C79.052 19.0419 79.0316 20.8476 77.6876 20.8476C76.1592 20.8476 75.9335 19.9244 75.9335 15.5523C75.9335 11.0179 76.2823 10.2571 77.6158 10.2571C78.5698 10.2571 79.0007 10.9672 79.0007 12.8946H82.5807C82.7141 9.7905 80.9702 8.09644 77.5235 8.09644C72.3946 8.09644 72.251 11.3222 72.251 15.5523C72.251 19.8027 72.1176 22.9981 77.6876 22.9981ZM62.5162 22.5822V13.1583L66.486 22.5822H70.7841V8.44134H67.6862V17.5812L63.819 8.44134H59.4184V22.5822H62.5162ZM37.5998 15.0248H38.164C40.2977 15.0248 40.9747 15.9581 40.9747 17.4899C40.9747 19.9042 38.9539 19.9244 38.0512 19.9244H36.7279V15.0451L37.5998 15.0248ZM36.7279 12.3772V7.96456H38.3076C39.7437 7.96456 40.749 8.89782 40.749 10.1658C40.749 11.8396 39.4565 12.3671 38.5333 12.3671H37.046L36.7279 12.3772Z" fill="white"/>
</g>
<defs>
<clipPath id="clip0_221_4468">
<rect width="188" height="27" fill="white" transform="translate(0.605469 0.521484)"/>
</clipPath>
</defs>
</svg>
