<svg width="179" height="25" viewBox="0 0 179 25" fill="none" xmlns="http://www.w3.org/2000/svg">
<path d="M21.8967 11.2659C21.8967 17.0013 17.2563 21.6498 11.5335 21.6498C5.81053 21.6498 1.17016 17.0013 1.17016 11.2659C1.17016 5.53037 5.81053 0.881895 11.5335 0.881895C17.2563 0.881895 21.8967 5.53037 21.8967 11.2659Z" stroke="white" stroke-width="0.637203"/>
<path d="M2.9452 10.1025C2.9452 5.33976 6.80048 1.4779 11.5525 1.4779C16.3045 1.4779 20.1573 5.33728 20.1573 10.1C20.1573 10.1755 20.1562 10.2509 20.154 10.3262C19.6044 9.99521 18.9485 9.8033 18.2151 9.7811C16.6541 7.50871 13.8916 6.00711 10.755 6.00711C7.37342 6.00711 4.42299 7.75437 2.94831 10.3321C2.94625 10.2558 2.9452 10.1792 2.9452 10.1025Z" stroke="white" stroke-width="0.637203"/>
<path d="M20.2302 11.1632L20.2301 11.1632C19.6916 10.6947 18.963 10.4151 18.074 10.4151H18.0739H18.0739H18.0738H18.0738H18.0737H18.0737H18.0736H18.0735H18.0735H18.0734H18.0734H18.0733H18.0733H18.0732H18.0731H18.0731H18.073H18.073H18.0729H18.0729H18.0728H18.0727H18.0727H18.0726H18.0726H18.0725H18.0725H18.0724H18.0723H18.0723H18.0722H18.0722H18.0721H18.0721H18.072H18.072H18.0719H18.0718H18.0718H18.0717H18.0717H18.0716H18.0716H18.0715H18.0714H18.0714H18.0713H18.0713H18.0712H18.0712H18.0711H18.0711H18.071H18.0709H18.0709H18.0708H18.0708H18.0707H18.0707H18.0706H18.0706H18.0705H18.0705H18.0704H18.0703H18.0703H18.0702H18.0702H18.0701H18.0701H18.07H18.07H18.0699H18.0699H18.0698H18.0697H18.0697H18.0696H18.0696H18.0695H18.0695H18.0694H18.0694H18.0693H18.0693H18.0692H18.0691H18.0691H18.069H18.069H18.0689H18.0689H18.0688H18.0688H18.0687H18.0687H18.0686H18.0686H18.0685H18.0684H18.0684H18.0683H18.0683H18.0682H18.0682H18.0681H18.0681H18.068H18.068H18.0679H18.0679H18.0678H18.0678H18.0677H18.0677H18.0676H18.0675H18.0675H18.0674H18.0674H18.0673H18.0673H18.0672H18.0672H18.0671H18.0671H18.067H18.067H18.0669H18.0669H18.0668H18.0668H18.0667H18.0667H18.0666H18.0665H18.0665H18.0664H18.0664H18.0663H18.0663H18.0662H18.0662H18.0661H18.0661H18.066H18.066H18.0659H18.0659H18.0658H18.0658H18.0657H18.0657H18.0656H18.0656H18.0655H18.0655H18.0654H18.0654H18.0653H18.0652H18.0652H18.0651H18.0651H18.065H18.065H18.0649H18.0649H18.0648H18.0648H18.0647H18.0647H18.0646H18.0646H18.0645H18.0645H18.0644H18.0644H18.0643H18.0643H18.0642H18.0642H18.0641H18.0641H18.064H18.064H18.0639H18.0639H18.0638H18.0638H18.0637H18.0637H18.0636H18.0636H18.0635H18.0635H18.0634H18.0633H18.0633H18.0632H18.0632H18.0631H18.0631H18.063H18.063H18.0629H18.0629H18.0628H18.0628H18.0627H18.0627H18.0626H18.0626H18.0625H18.0625H18.0624H18.0624H18.0623H18.0623H18.0622H18.0622H18.0621H18.0621H18.062H18.062H18.0619H18.0619H18.0618H18.0618H18.0617H18.0617H18.0616H18.0616H18.0615H18.0615H18.0614H18.0614H18.0613H18.0613H18.0612H18.0612H18.0611H18.0611H18.061H18.061H18.0609H18.0609H18.0608H18.0608H18.0607H18.0607H18.0606H18.0606H18.0605H18.0605H18.0604H18.0604H18.0603H18.0603H18.0602H18.0602H18.0601H18.06H18.06H18.0599H18.0599H18.0598H18.0598H18.0597H18.0597H18.0596H18.0596H18.0595H18.0595H18.0594H18.0594H18.0593H18.0593H18.0592H18.0592H18.0591H18.0591H18.059H18.059H18.0589H18.0589H18.0588H18.0588H18.0587H18.0587H18.0586H18.0586H18.0585H18.0585H18.0584H18.0584H18.0583H18.0583H18.0582H18.0582H18.0581H18.0581H18.058H18.058H18.0579H18.0579H18.0578H18.0578H18.0577H18.0577H18.0576H18.0576H18.0575H18.0575H18.0574H18.0574H18.0573H18.0573H18.0572H18.0572H18.0571H18.057H18.057H18.0569H18.0569H18.0568H18.0568H18.0567H18.0567H18.0566H18.0566H18.0565H18.0565H18.0564H18.0564H18.0563H18.0563H18.0562H18.0562H18.0561H18.0561H18.056H18.056H18.0559H18.0559H18.0558H18.0558H18.0557H18.0557H18.0556H18.0556H18.0555H18.0555H18.0554H18.0554H18.0553H18.0552H18.0552H18.0551H18.0551H18.055H18.055H18.0549H18.0549H18.0548H18.0548H18.0547H18.0547H18.0546H18.0546H18.0545H18.0545H18.0544H18.0544H18.0543H18.0543H18.0542H18.0542H18.0541H18.0541H18.054H18.0539H18.0539H18.0538H18.0538H18.0537H18.0537H18.0536H18.0536H18.0535H18.0535H18.0534H18.0534H18.0533H18.0533H18.0532H18.0532H18.0531H18.053H18.053H18.0529H18.0529H18.0528H18.0528H18.0527H18.0527H18.0526H18.0526H18.0525H18.0525H18.0524H18.0524H18.0523H18.0523H18.0522H18.0521H18.0521H18.052H18.052H18.0519H18.0519H18.0518H18.0518H18.0517H18.0517H18.0516H18.0516H18.0515H18.0514H18.0514H18.0513H18.0513H18.0512H18.0512H18.0511H18.0511H18.051H18.051H18.0509H18.0508H18.0508H18.0507H18.0507H18.0506H18.0506H18.0505H18.0505H18.0504H18.0504H18.0503H18.0502H18.0502H18.0501H18.0501H18.05H18.05H18.0499H18.0499H18.0498H18.0497H18.0497H18.0496H18.0496H18.0495H18.0495H18.0494H18.0494H18.0493H18.0492H18.0492H18.0491H18.0491H18.049H18.049H18.0489H18.0489H18.0488H18.0487H18.0487H18.0486H18.0486H18.0485H18.0485H18.0484H18.0484H18.0483H18.0482H18.0482H18.0481H18.0481H18.048H18.048H18.0479H18.0478H18.0478H18.0477C16.8249 10.4223 15.5468 10.9602 14.4721 11.85C13.3984 12.739 12.5499 13.9615 12.1743 15.3017L12.1743 15.3018C11.774 16.7287 11.9955 17.9719 12.6212 18.8151L12.9586 19.2698L12.3947 19.3222C12.1193 19.3477 11.8394 19.3632 11.5529 19.3632C7.38224 19.3632 3.85797 16.5961 2.7077 12.7933C2.62968 13.2038 2.589 13.6258 2.589 14.0569C2.589 16.1422 3.53812 18.0285 5.07795 19.381C6.03818 20.1471 7.13428 20.7472 8.32554 21.1364L20.2302 11.1632ZM20.2302 11.1632C21.1661 11.9771 21.5788 13.422 21.1007 15.1298L21.0997 15.1336M20.2302 11.1632L21.0997 15.1336M21.0997 15.1336C21.0569 15.294 21.0049 15.4516 20.945 15.6117C20.5253 16.522 19.9767 17.3589 19.325 18.1056C17.4261 20.2752 14.6417 21.6468 11.5356 21.6468C10.416 21.6468 9.33732 21.4662 8.3257 21.1364L21.0997 15.1336Z" stroke="white" stroke-width="0.637203"/>
<path d="M78.4229 10.419V19.2333C78.4229 19.3225 78.351 19.3945 78.2619 19.3945H76.2063C76.1172 19.3945 76.0454 19.3225 76.0454 19.2333V11.1908C76.0454 8.64728 74.6534 7.14847 72.2585 7.14847C69.98 7.14847 68.1967 8.73413 68.1967 11.2478V19.2333C68.1967 19.3225 68.1249 19.3945 68.0357 19.3945H65.9801C65.8909 19.3945 65.8191 19.3225 65.8191 19.2333V11.1908C65.8191 8.64728 64.4273 7.14847 62.0323 7.14847C59.8132 7.14847 57.9557 8.67457 57.9557 11.2478V19.2333C57.9557 19.3225 57.8839 19.3945 57.7947 19.3945H55.7539C55.6648 19.3945 55.593 19.3225 55.593 19.2333V5.34693C55.593 5.2576 55.6648 5.18564 55.7539 5.18564H57.7799C57.8691 5.18564 57.9409 5.2576 57.9409 5.34693V6.53058C57.9409 6.67947 58.1241 6.74895 58.2207 6.63729C59.3526 5.34941 60.9847 4.89282 62.4533 4.89282C64.6774 4.89282 66.4557 5.84074 67.4091 7.4264C67.4735 7.5331 67.6222 7.5331 67.6865 7.4264C68.8481 5.52311 70.8864 4.89282 72.6845 4.89282C76.0874 4.8953 78.4229 7.10381 78.4229 10.419Z" fill="white"/>
<path d="M95.0906 12.0911C95.0906 16.2624 92.0591 19.2873 88.1981 19.2873C86.1994 19.2873 84.6787 18.5776 83.6137 17.4585C83.5147 17.3543 83.3388 17.4287 83.3388 17.5727V24.6498C83.3388 24.7391 83.267 24.811 83.1778 24.811H81.1371C81.0479 24.811 80.9761 24.7391 80.9761 24.6498V5.34894C80.9761 5.25961 81.0479 5.18765 81.1371 5.18765H83.1778C83.267 5.18765 83.3388 5.25961 83.3388 5.34894V6.60952C83.3388 6.75345 83.5147 6.8279 83.6137 6.72368C84.6812 5.60702 86.2018 4.89484 88.1981 4.89484C92.0567 4.89484 95.0906 7.91974 95.0906 12.0911ZM83.1927 12.0911C83.1927 14.9249 85.1369 17.0639 87.9231 17.0639C90.7812 17.0639 92.6536 14.8405 92.6536 12.0911C92.6536 9.3441 90.7391 7.13312 87.9231 7.13312C85.1369 7.13312 83.1927 9.26966 83.1927 12.0911Z" fill="white"/>
<path d="M121.895 8.10423C121.851 8.18611 121.75 8.21093 121.671 8.1613C120.762 7.59057 119.092 6.97516 117.374 6.97516C115.486 6.97516 114.268 7.77419 114.268 9.02486C114.268 10.1291 115.268 10.6378 116.938 10.8413L118.535 11.0448C121.464 11.4368 123.194 12.6726 123.194 14.9556C123.194 17.5859 120.843 19.2882 117.086 19.2882C115.427 19.2882 113.198 18.8986 111.405 17.6058C111.335 17.5561 111.318 17.4568 111.362 17.3849L112.291 15.891C112.34 15.8117 112.448 15.7918 112.524 15.8464C113.54 16.5983 114.897 17.2087 117.101 17.2087C119.365 17.2087 120.756 16.4668 120.756 15.1019C120.756 14.0846 119.857 13.4443 117.984 13.2111L116.39 13.0225C113.299 12.6454 111.805 11.2483 111.805 9.15637C111.805 6.51113 113.998 4.91058 117.348 4.91058C119.459 4.91058 121.391 5.45651 122.722 6.32502C122.794 6.37217 122.816 6.46646 122.775 6.54091L121.895 8.10423Z" fill="white"/>
<path d="M133.997 8.10423C133.952 8.18611 133.851 8.21093 133.771 8.1613C132.862 7.59057 131.193 6.97516 129.474 6.97516C127.587 6.97516 126.368 7.77419 126.368 9.02486C126.368 10.1291 127.37 10.6378 129.038 10.8413L130.636 11.0448C133.566 11.4368 135.294 12.6726 135.294 14.9556C135.294 17.5859 132.944 19.2882 129.187 19.2882C127.527 19.2882 125.299 18.8986 123.505 17.6058C123.437 17.5561 123.42 17.4568 123.464 17.3849L124.392 15.891C124.442 15.8117 124.548 15.7918 124.625 15.8464C125.64 16.5983 126.998 17.2087 129.202 17.2087C131.465 17.2087 132.858 16.4668 132.858 15.1019C132.858 14.0846 131.959 13.4443 130.086 13.2111L128.491 13.0225C125.401 12.6454 123.907 11.2483 123.907 9.15637C123.907 6.51113 126.098 4.91058 129.45 4.91058C131.56 4.91058 133.492 5.45651 134.824 6.32502C134.896 6.37217 134.918 6.46646 134.877 6.54091L133.997 8.10423Z" fill="white"/>
<path d="M36.5874 15.6483C36.5256 15.5861 36.4264 15.5861 36.3645 15.6483C34.3288 17.5763 31.4484 17.5217 29.5364 15.606C27.5773 13.6432 27.5674 10.6927 29.6082 8.64551C31.6118 6.63801 34.4724 6.62064 36.4314 8.47429C36.4958 8.53385 36.5924 8.53634 36.6543 8.47429L38.0066 7.11942C38.071 7.05489 38.071 6.94819 38.0041 6.88368C35.052 4.03992 30.75 4.06969 27.8944 6.92835C25.0016 9.8267 25.0115 14.2164 27.9662 17.1768C30.8787 20.095 35.1857 20.1571 38.0809 17.3802C38.1478 17.3182 38.1478 17.2091 38.0834 17.1445L36.5874 15.6483Z" fill="white"/>
<path d="M41.6226 12.0876C41.7093 12.0876 41.7787 12.0181 41.7811 11.9287C41.8604 9.1222 43.9358 7.12214 46.6379 7.12214C49.4093 7.12214 51.4995 9.2016 51.4995 12.095C51.4995 14.9338 49.4885 16.9735 46.7964 17.0504C46.7097 17.053 46.6379 17.1225 46.6379 17.2093V19.125C46.6379 19.2168 46.7147 19.2913 46.8037 19.2887C50.8977 19.2069 53.9217 16.1398 53.9217 12.095C53.9217 7.99561 50.816 4.89874 46.6379 4.89874C42.5191 4.89874 39.4283 7.90628 39.3416 11.9188C39.3391 12.0107 39.4159 12.0876 39.5051 12.0876H41.6226Z" fill="white"/>
<path d="M109.783 5.18578H107.743C107.653 5.18578 107.581 5.25774 107.581 5.34707V6.58035C106.326 5.45377 104.655 4.78625 102.768 4.78625C98.6756 4.78625 95.5847 7.89801 95.5847 12.0842C95.5847 16.211 98.5864 19.3078 102.594 19.3946C102.686 19.3971 102.762 19.3202 102.762 19.2309V17.1117C102.762 17.0248 102.693 16.9553 102.604 16.9529C99.8025 16.8734 97.8063 14.794 97.8063 12.0842C97.8063 9.30748 99.8818 7.21313 102.77 7.21313C105.231 7.21313 107.584 8.93774 107.584 10.9055V12.933V19.2309C107.584 19.3202 107.656 19.3921 107.745 19.3921H109.786C109.875 19.3921 109.947 19.3202 109.947 19.2309V11.2455V5.34458C109.947 5.26022 109.873 5.18578 109.783 5.18578Z" fill="white"/>
<path d="M48.1703 13.5759L48.8612 10.9951C49.0099 10.4417 48.5046 9.93551 47.9523 10.0844L45.3765 10.7767C44.8243 10.9256 44.6385 11.6155 45.0447 12.0224L46.9294 13.9109C47.3331 14.3128 48.0241 14.1292 48.1703 13.5759Z" fill="white"/>
<path d="M138.801 19.4215C139.758 19.4215 140.535 18.6439 140.535 17.6845C140.535 16.7252 139.758 15.9475 138.801 15.9475C137.844 15.9475 137.067 16.7252 137.067 17.6845C137.067 18.6439 137.844 19.4215 138.801 19.4215Z" fill="white"/>
<path d="M177.531 14.2808C175.854 14.2808 175.084 13.4197 175.084 11.7398V1.40198H169.947V9.07963C168.781 6.56839 166.237 4.8264 163.288 4.8264C160.338 4.8264 157.797 6.56591 156.627 9.07963V4.98274H151.556V12.2063C151.556 13.509 150.872 14.3925 149.725 14.3925C148.578 14.3925 147.895 13.509 147.895 12.2063V4.98274H142.758V12.2732C142.758 16.7349 145.493 19.5415 149.725 19.5415C153.123 19.5415 155.55 17.6506 156.345 14.591C157.338 17.472 160.071 19.5415 163.285 19.5415C166.457 19.5415 169.16 17.5265 170.185 14.7051C170.944 17.9807 173.417 19.4298 176.733 19.4298H178.034V14.2832H177.531V14.2808ZM163.288 14.3925C162.074 14.3925 161.083 13.3974 161.083 12.184C161.083 10.9681 162.076 9.97544 163.288 9.97544C164.502 9.97544 165.492 10.9705 165.492 12.184C165.492 13.3974 164.498 14.3925 163.288 14.3925Z" fill="white"/>
</svg>
