<svg width="115" height="31" viewBox="0 0 115 31" fill="none" xmlns="http://www.w3.org/2000/svg">
<g clip-path="url(#clip0_210_4414)">
<path d="M23.9737 14.7098L16.1251 16.1395C15.9249 16.3968 15.4532 16.8257 15.2244 16.94C14.238 17.4404 13.5661 17.2975 12.9799 17.1402C12.6082 17.0401 12.3938 16.9972 12.0793 16.8543L10.1636 17.1116L11.3216 26.8187L24.7743 24.3884L23.9737 14.7098ZM11.9935 25.9038L11.8791 24.8458L14.0807 21.5005L16.5683 22.2296L18.7127 18.6413L21.286 20.3425L23.2446 16.2395L23.9451 23.7021L11.9935 25.9038ZM11.4359 16.3682C10.4638 15.7392 9.46306 14.8528 9.01987 14.3524C8.94839 14.2952 8.96269 14.0522 8.96269 14.0522C9.36298 14.3667 11.007 15.539 12.7369 16.068C13.3516 16.2538 14.2952 16.3253 15.1101 15.8678C15.7391 15.5104 16.4825 14.8957 16.9257 14.2667L17.0114 14.4096C17.0114 14.5097 16.797 14.9672 16.6969 15.153C16.8828 15.2674 17.0257 15.296 17.2402 15.3532L18.6841 15.1244C19.1988 14.2952 19.5705 12.9514 19.1702 11.6647C18.9414 10.9356 17.7691 9.46313 17.6834 9.39165C17.3831 9.10573 17.7263 8.01922 17.1544 6.81834C16.5397 5.56027 14.9242 4.24502 14.2237 3.65888C14.4238 3.80184 15.6962 4.3165 16.2823 5.03131C16.3395 4.95983 16.3681 4.57384 16.411 4.47376C15.8963 3.81614 15.8678 2.62955 15.8678 2.31504C15.8678 1.72889 15.5675 1.07127 15.5675 1.07127C15.5675 1.07127 16.0822 1.47156 16.2109 2.17208C16.3681 2.98696 16.6969 3.64458 17.1401 4.18784C17.9693 5.21716 18.7127 5.74612 19.0987 5.36013C19.5562 4.90265 18.6412 2.85829 17.4832 1.7146C16.1251 0.385051 15.7677 0.556605 14.9814 0.842529C14.3524 1.05697 14.0092 2.87259 12.3509 2.8297C12.065 2.80111 11.3502 2.77252 10.9927 2.78681C11.1786 2.52948 11.3359 2.32933 11.3359 2.32933C11.3359 2.32933 10.7783 2.55807 10.3065 2.844L10.2636 2.78681C10.4209 2.4437 10.5925 2.24356 10.5925 2.24356C10.5925 2.24356 10.1493 2.51518 9.74898 2.8297C9.82046 2.42941 10.1064 2.17208 10.1064 2.17208C10.1064 2.17208 9.54883 2.27215 8.83402 3.05844C8.01914 3.27288 7.83329 3.43014 7.17567 3.71606C6.11775 3.48733 5.63168 3.11562 5.1599 2.42941C4.8025 1.91474 4.15917 1.82897 3.50154 2.10059C2.5437 2.50089 1.34282 3.02985 1.34282 3.02985C1.34282 3.02985 1.74311 3.01555 2.1434 3.02985C1.58585 3.24429 1.0426 3.53021 1.0426 3.53021C1.0426 3.53021 1.29993 3.51592 1.62874 3.53021C1.4 3.71606 1.28563 3.80184 1.07119 3.9448C0.556527 4.3165 0.141937 4.74539 0.141937 4.74539C0.141937 4.74539 0.485046 4.58813 0.799562 4.50236C0.585119 5.00272 0.141937 5.37442 0.227714 5.98916C0.299195 6.54671 0.985413 7.7047 1.88607 8.41951C1.95755 8.4767 3.17273 9.6061 4.08769 9.14862C5.00264 8.69114 5.36005 8.27655 5.51731 7.64752C5.68886 6.91841 5.58879 6.37516 5.21709 4.80258C5.08842 4.28791 4.7739 3.2157 4.61665 2.71533L4.64524 2.68674C4.94546 3.31577 5.70316 4.98843 6.01767 6.10353C6.50374 7.84766 6.34649 8.73403 6.13204 9.06284C5.46012 10.035 3.75887 10.1779 2.98688 9.63469C2.87251 11.5075 3.2871 12.3367 3.43006 12.7513C3.35858 13.223 3.6731 14.1237 3.6731 14.1237C3.6731 14.1237 3.70169 13.7234 3.84465 13.509C3.88754 13.9807 4.11628 14.5526 4.11628 14.5526C4.11628 14.5526 4.10198 14.2095 4.21635 13.9093C4.37361 14.1666 4.48798 14.2238 4.63094 14.4239C4.7739 14.9386 5.05983 15.3103 5.05983 15.3103C5.05983 15.3103 5.01694 15.0387 5.03124 14.7527C5.74605 15.4389 5.86042 16.4397 5.9319 17.1974C6.13204 19.2989 2.61518 20.9716 1.92896 22.2868C1.4143 23.0588 1.09978 24.3026 1.97185 25.0317C4.08769 26.7901 3.2728 27.2762 4.33072 28.0482C5.78893 29.1061 7.60455 28.6343 8.21929 27.7766C9.07706 26.5757 8.86262 25.4463 8.5338 24.3884C8.27647 23.5592 7.60455 22.1867 6.76108 21.6578C5.9033 21.1145 5.05983 21.0145 4.35931 21.0859L4.4308 21.0145C5.44583 20.8143 6.51804 20.9287 7.29003 21.4148C8.1621 21.9723 8.96269 22.9444 9.37728 24.417C9.84905 24.3455 9.92054 24.3169 10.3494 24.2597L9.36298 16.5969L11.4359 16.3682ZM16.3395 6.83263C17.2402 7.24722 17.1258 8.04781 17.1401 8.51959C17.1544 8.64825 17.1401 8.74833 17.1258 8.80551C16.9972 8.73403 16.8113 8.69114 16.4968 8.70544C16.411 8.70544 16.3109 8.71973 16.2252 8.73403C15.8963 8.56247 15.6962 8.20507 15.5103 7.83337C15.4961 7.80478 15.4818 7.76189 15.4675 7.73329C15.4675 7.719 15.4532 7.7047 15.4532 7.69041V7.67611C15.3531 7.36159 15.4246 7.29011 15.4675 7.20434C15.5103 7.11856 15.6676 7.01849 15.4389 6.947C15.4246 6.947 15.396 6.93271 15.3674 6.93271C15.5246 6.73256 15.9964 6.67538 16.3395 6.83263ZM15.2244 12.065C15.396 11.9364 16.1966 11.679 16.94 11.579C17.326 11.5361 17.8835 11.5075 17.9979 11.579C18.2266 11.7076 18.2266 12.1079 18.0694 12.4796C17.8406 13.0229 17.5118 13.609 17.1258 13.6519C16.5111 13.7377 15.9392 13.4089 15.2816 12.9085C15.0529 12.737 14.9099 12.3081 15.2244 12.065ZM9.44876 7.99063C10.4209 7.333 11.6647 7.59033 11.4502 7.79048C11.0499 8.17648 11.5789 8.06211 11.6361 8.76262C11.679 9.27728 11.5074 9.56321 11.3645 9.72047C11.0642 9.76336 10.6925 9.83484 10.2493 9.9778C9.99201 10.0636 9.76328 10.1494 9.56313 10.2494C9.50595 10.2208 9.44876 10.1779 9.39157 10.1208C8.71965 9.52032 8.74825 8.4767 9.44876 7.99063Z" fill="white"/>
<path fill-rule="evenodd" clip-rule="evenodd" d="M35.6961 20.9149H30.235V8.33423H35.6961C39.6276 8.33423 41.6005 10.3214 41.6005 14.2814C41.6005 18.699 39.6419 20.9149 35.6961 20.9149ZM32.5796 18.8848H35.353C37.9692 18.8848 39.2702 17.3551 39.2702 14.2814C39.2702 11.6652 37.9692 10.3643 35.353 10.3643H32.5796V18.8848Z" fill="white"/>
<path fill-rule="evenodd" clip-rule="evenodd" d="M44.045 20.9145H41.6575L47.0043 8.33386H49.5205L54.9816 20.9145H52.4655L50.8786 17.4834H46.8471L47.6477 15.4677H50.2639L48.2052 10.7356L44.045 20.9145Z" fill="white"/>
<path fill-rule="evenodd" clip-rule="evenodd" d="M53.6521 8.33386H63.2162V10.3639H59.6136V20.9145H57.269V10.3639H53.6521V8.33386Z" fill="white"/>
<path fill-rule="evenodd" clip-rule="evenodd" d="M64.4171 20.9145H62.0154L67.3765 8.33386H69.8783L75.3394 20.9145H72.8376L71.2507 17.4834H67.2049L68.0055 15.4677H70.6217L68.563 10.7356L64.4171 20.9145Z" fill="white"/>
<path fill-rule="evenodd" clip-rule="evenodd" d="M82.3588 20.9145H76.8977V8.33386H82.3588C86.2903 8.33386 88.2632 10.321 88.2632 14.2811C88.2632 18.6986 86.2903 20.9145 82.3588 20.9145ZM79.228 18.8845H82.0014C84.6176 18.8845 85.9186 17.3548 85.9186 14.2811C85.9186 11.6649 84.6033 10.3639 82.0014 10.3639H79.228V18.8845Z" fill="white"/>
<path fill-rule="evenodd" clip-rule="evenodd" d="M89.8501 14.6385C89.8501 10.3782 91.9659 8.24811 96.1833 8.24811C100.329 8.24811 102.416 10.3782 102.416 14.6385C102.416 18.8845 100.343 21.0003 96.1833 21.0003C92.1374 21.0003 90.0359 18.8845 89.8501 14.6385ZM96.169 18.9703C98.6994 18.9703 99.9718 17.512 99.9718 14.5813C99.9718 11.6935 98.6994 10.2639 96.169 10.2639C93.5671 10.2639 92.2661 11.7078 92.2661 14.5813C92.2661 17.512 93.5671 18.9703 96.169 18.9703Z" fill="white"/>
<path fill-rule="evenodd" clip-rule="evenodd" d="M112.138 15.8251V18.7701C111.595 18.9131 111.123 18.9846 110.694 18.9846C107.835 18.9846 106.405 17.4692 106.405 14.4527C106.405 11.6649 107.92 10.2782 110.937 10.2782C112.195 10.2782 113.367 10.5069 114.468 10.9787V8.86284C113.382 8.44825 112.152 8.24811 110.765 8.24811C106.248 8.24811 103.975 10.3068 103.975 14.4527C103.975 18.8273 106.191 21.0003 110.651 21.0003C112.181 21.0003 113.453 20.7716 114.468 20.3284V13.7521H110.694L109.908 15.8251H112.138Z" fill="white"/>
</g>
<g clip-path="url(#clip1_210_4414)">
<path d="M51.674 28.3213L50.9831 27.0378H50.1067L51.2567 29.0774L50.6585 30.3051H51.4884L53.0975 27.0378H52.2676L51.674 28.3213Z" fill="white"/>
<path d="M55.5669 28.6502C55.4459 28.5682 55.3155 28.5011 55.1784 28.4507C55.0328 28.3961 54.8882 28.3451 54.7479 28.2977C54.6201 28.2584 54.4984 28.201 54.3865 28.1274C54.3424 28.0985 54.3063 28.0586 54.2817 28.0117C54.2571 27.9648 54.2448 27.9123 54.246 27.8593C54.246 27.744 54.289 27.6553 54.3744 27.5982C54.4647 27.5392 54.5707 27.5092 54.6783 27.5123C54.8193 27.5123 54.9295 27.5559 55.0055 27.6421C55.0815 27.7282 55.1177 27.8404 55.1194 27.9837H55.8984C55.8977 27.8525 55.8719 27.7227 55.8225 27.6013C55.7706 27.477 55.6929 27.3653 55.5945 27.2737C55.4838 27.1728 55.3538 27.0958 55.2124 27.0474C55.0399 26.9889 54.8587 26.9607 54.6768 26.964C54.523 26.9635 54.3698 26.9829 54.2209 27.0219C54.0836 27.0568 53.9533 27.1156 53.836 27.1955C53.7274 27.27 53.6365 27.3676 53.5696 27.4815C53.5016 27.6003 53.4671 27.7354 53.4695 27.8725C53.4695 28.0349 53.5007 28.1728 53.5622 28.2827C53.625 28.3943 53.7105 28.4912 53.8132 28.5671C53.9272 28.6508 54.0519 28.7186 54.1839 28.7685C54.3268 28.8244 54.479 28.8809 54.6362 28.9365C54.7099 28.9638 54.7816 28.9913 54.8495 29.0183C54.9105 29.0422 54.9686 29.0731 55.0224 29.1106C55.069 29.1431 55.1087 29.1846 55.1392 29.2327C55.1694 29.2847 55.1845 29.3441 55.1828 29.4043C55.1843 29.4593 55.1728 29.514 55.1493 29.5637C55.1259 29.6134 55.0911 29.6569 55.0478 29.6906C54.953 29.7636 54.8361 29.8015 54.7168 29.7979C54.5496 29.7979 54.4129 29.7469 54.3085 29.6449C54.2042 29.543 54.1541 29.4071 54.152 29.2327H53.3736C53.3716 29.3983 53.4045 29.5625 53.4703 29.7143C53.5331 29.8538 53.6259 29.9776 53.742 30.0767C53.8633 30.1781 54.0032 30.2543 54.1538 30.3011C54.3202 30.353 54.4935 30.3788 54.6677 30.3775C54.8437 30.3794 55.0192 30.3567 55.1891 30.3102C55.336 30.2704 55.4741 30.203 55.5961 30.1114C55.7088 30.0254 55.8 29.9141 55.8625 29.7864C55.9279 29.6481 55.9606 29.4963 55.9579 29.3431C55.9623 29.1992 55.9241 29.0573 55.8483 28.9352C55.774 28.8226 55.6784 28.7257 55.5669 28.6502Z" fill="white"/>
<path d="M60.9519 28.3213L60.2611 27.0378H59.3849L60.5349 29.0774L59.9367 30.3051H60.7666L62.3757 27.0378H61.5456L60.9519 28.3213Z" fill="white"/>
<path d="M58.6917 28.6502C58.5707 28.568 58.4401 28.501 58.303 28.4506C58.1576 28.396 58.013 28.345 57.8725 28.2976C57.7445 28.2579 57.6227 28.2002 57.5108 28.1261C57.4666 28.0971 57.4305 28.0573 57.4059 28.0104C57.3812 27.9635 57.3689 27.911 57.37 27.8579C57.37 27.7427 57.4134 27.654 57.4987 27.5969C57.589 27.5378 57.695 27.5078 57.8026 27.511C57.9436 27.511 58.0538 27.5546 58.1298 27.6407C58.2058 27.7269 58.242 27.839 58.2437 27.9823H59.0235C59.0228 27.8511 58.997 27.7213 58.9475 27.5999C58.8956 27.4756 58.8179 27.3639 58.7196 27.2724C58.6089 27.1715 58.4788 27.0944 58.3374 27.046C58.165 26.9876 57.9838 26.9594 57.8018 26.9627C57.648 26.9621 57.4948 26.9815 57.346 27.0205C57.2086 27.0555 57.0784 27.1142 56.9611 27.1941C56.8525 27.2687 56.7615 27.3663 56.6944 27.4801C56.6266 27.599 56.5922 27.7341 56.5946 27.8712C56.5946 28.0335 56.6258 28.1715 56.6873 28.2813C56.7501 28.3934 56.8358 28.4908 56.9388 28.5671C57.0528 28.6509 57.1776 28.7187 57.3098 28.7687C57.4526 28.8245 57.6048 28.8811 57.7621 28.9367C57.8358 28.964 57.9074 28.9915 57.9753 29.0185C58.0364 29.0423 58.0944 29.0733 58.1483 29.1108C58.1948 29.1433 58.2345 29.1848 58.265 29.2329C58.2952 29.2848 58.3103 29.3443 58.3086 29.4045C58.3101 29.4595 58.2986 29.5142 58.2751 29.5639C58.2516 29.6137 58.2167 29.6571 58.1733 29.6907C58.0787 29.7638 57.9618 29.8017 57.8426 29.7981C57.6755 29.7981 57.5387 29.7471 57.4344 29.6451C57.33 29.5431 57.2799 29.4073 57.2776 29.2329H56.4979C56.4962 29.3985 56.5296 29.5626 56.5959 29.7142C56.6589 29.854 56.7519 29.978 56.8684 30.0772C56.9896 30.1786 57.1295 30.2548 57.2801 30.3015C57.4465 30.3535 57.6198 30.3793 57.794 30.378C57.97 30.3798 58.1455 30.3572 58.3154 30.3107C58.4623 30.2709 58.6004 30.2034 58.7224 30.1118C58.835 30.0257 58.9262 29.9145 58.9888 29.7868C59.0542 29.6485 59.0869 29.4967 59.0843 29.3435C59.0886 29.1997 59.0504 29.0577 58.9746 28.9357C58.8999 28.8227 58.8038 28.7256 58.6917 28.6502Z" fill="white"/>
<path d="M65.9777 23.802L65.5135 24.6111L65.0495 25.4202H65.9777H66.9058L67.3698 24.6111L67.834 23.802H65.9777Z" fill="white"/>
<path d="M64.1211 23.802H62.2648L62.729 24.6111L63.193 25.4202L63.6572 26.2293L64.1211 27.0384L63.6572 27.8477L63.193 28.6568H64.1211H65.0495L65.5135 27.8477L65.9777 27.0384L65.5135 26.2293L65.0495 25.4202L64.5853 24.6111L64.1211 23.802Z" fill="white"/>
</g>
<path d="M31.4897 28.2176H30.7984V27.9386H31.4897C31.6236 27.9386 31.732 27.9173 31.815 27.8746C31.8979 27.832 31.9584 27.7727 31.9963 27.6969C32.0354 27.6211 32.0549 27.5346 32.0549 27.4374C32.0549 27.3486 32.0354 27.265 31.9963 27.1868C31.9584 27.1086 31.8979 27.0458 31.815 26.9984C31.732 26.9498 31.6236 26.9256 31.4897 26.9256H30.8784V29.2325H30.5353V26.6447H31.4897C31.6852 26.6447 31.8505 26.6785 31.9856 26.746C32.1207 26.8136 32.2232 26.9072 32.2931 27.0269C32.363 27.1453 32.3979 27.281 32.3979 27.4339C32.3979 27.5997 32.363 27.7413 32.2931 27.8586C32.2232 27.9759 32.1207 28.0654 31.9856 28.127C31.8505 28.1874 31.6852 28.2176 31.4897 28.2176ZM32.6699 28.2923V28.2514C32.6699 28.1128 32.69 27.9842 32.7303 27.8657C32.7706 27.7461 32.8286 27.6424 32.9045 27.5547C32.9803 27.4659 33.0721 27.3971 33.1799 27.3486C33.2878 27.2988 33.4086 27.2739 33.5425 27.2739C33.6776 27.2739 33.799 27.2988 33.9069 27.3486C34.0159 27.3971 34.1083 27.4659 34.1841 27.5547C34.2611 27.6424 34.3198 27.7461 34.3601 27.8657C34.4004 27.9842 34.4205 28.1128 34.4205 28.2514V28.2923C34.4205 28.4309 34.4004 28.5595 34.3601 28.678C34.3198 28.7965 34.2611 28.9001 34.1841 28.989C34.1083 29.0767 34.0165 29.1454 33.9086 29.1952C33.802 29.2437 33.6811 29.268 33.5461 29.268C33.411 29.268 33.2895 29.2437 33.1817 29.1952C33.0739 29.1454 32.9815 29.0767 32.9045 28.989C32.8286 28.9001 32.7706 28.7965 32.7303 28.678C32.69 28.5595 32.6699 28.4309 32.6699 28.2923ZM32.9987 28.2514V28.2923C32.9987 28.3883 33.0099 28.4789 33.0324 28.5642C33.0549 28.6483 33.0887 28.723 33.1337 28.7882C33.1799 28.8533 33.2374 28.9049 33.3061 28.9428C33.3749 28.9795 33.4548 28.9979 33.5461 28.9979C33.6361 28.9979 33.7149 28.9795 33.7825 28.9428C33.8512 28.9049 33.908 28.8533 33.9531 28.7882C33.9981 28.723 34.0319 28.6483 34.0544 28.5642C34.0781 28.4789 34.0899 28.3883 34.0899 28.2923V28.2514C34.0899 28.1566 34.0781 28.0672 34.0544 27.983C34.0319 27.8977 33.9975 27.8225 33.9513 27.7573C33.9063 27.691 33.8494 27.6388 33.7807 27.6009C33.7131 27.563 33.6338 27.5441 33.5425 27.5441C33.4525 27.5441 33.3731 27.563 33.3044 27.6009C33.2368 27.6388 33.1799 27.691 33.1337 27.7573C33.0887 27.8225 33.0549 27.8977 33.0324 27.983C33.0099 28.0672 32.9987 28.1566 32.9987 28.2514ZM35.3198 28.8912L35.8139 27.3094H36.0307L35.9881 27.624L35.4851 29.2325H35.2736L35.3198 28.8912ZM34.9875 27.3094L35.4087 28.909L35.4389 29.2325H35.2167L34.6587 27.3094H34.9875ZM36.5035 28.8966L36.9052 27.3094H37.2322L36.6741 29.2325H36.4537L36.5035 28.8966ZM36.0787 27.3094L36.5621 28.8646L36.6172 29.2325H36.4075L35.8903 27.6205L35.8477 27.3094H36.0787ZM38.3679 29.268C38.234 29.268 38.1125 29.2455 38.0035 29.2005C37.8957 29.1543 37.8027 29.0897 37.7245 29.0068C37.6475 28.9238 37.5882 28.8255 37.5468 28.7117C37.5053 28.598 37.4846 28.4736 37.4846 28.3385V28.2639C37.4846 28.1075 37.5077 27.9682 37.5539 27.8462C37.6001 27.723 37.6629 27.6187 37.7423 27.5334C37.8217 27.4481 37.9117 27.3835 38.0124 27.3397C38.1131 27.2958 38.2174 27.2739 38.3252 27.2739C38.4627 27.2739 38.5811 27.2976 38.6807 27.345C38.7814 27.3924 38.8637 27.4587 38.9277 27.5441C38.9917 27.6282 39.0391 27.7277 39.0699 27.8426C39.1007 27.9564 39.1161 28.0808 39.1161 28.2159V28.3634H37.6801V28.095H38.7873V28.0701C38.7826 27.9848 38.7648 27.9019 38.734 27.8213C38.7044 27.7407 38.657 27.6744 38.5918 27.6223C38.5266 27.5701 38.4378 27.5441 38.3252 27.5441C38.2506 27.5441 38.1818 27.56 38.1191 27.592C38.0563 27.6228 38.0023 27.6691 37.9573 27.7307C37.9123 27.7923 37.8773 27.8675 37.8525 27.9564C37.8276 28.0452 37.8151 28.1477 37.8151 28.2639V28.3385C37.8151 28.4297 37.8276 28.5156 37.8525 28.5962C37.8785 28.6756 37.9158 28.7455 37.9644 28.8059C38.0142 28.8664 38.074 28.9138 38.1439 28.9481C38.215 28.9825 38.2956 28.9997 38.3856 28.9997C38.5018 28.9997 38.6001 28.976 38.6807 28.9286C38.7612 28.8812 38.8317 28.8178 38.8922 28.7384L39.0912 28.8966C39.0498 28.9594 38.997 29.0192 38.9331 29.0761C38.8691 29.133 38.7903 29.1792 38.6967 29.2147C38.6043 29.2503 38.4947 29.268 38.3679 29.268ZM39.8288 27.6116V29.2325H39.5V27.3094H39.8199L39.8288 27.6116ZM40.4295 27.2988L40.4278 27.6045C40.4005 27.5986 40.3744 27.595 40.3496 27.5938C40.3259 27.5914 40.2986 27.5903 40.2678 27.5903C40.192 27.5903 40.125 27.6021 40.067 27.6258C40.0089 27.6495 39.9597 27.6827 39.9195 27.7253C39.8792 27.768 39.8472 27.8189 39.8235 27.8782C39.801 27.9362 39.7862 28.0002 39.779 28.0701L39.6866 28.1235C39.6866 28.0073 39.6979 27.8983 39.7204 27.7964C39.7441 27.6945 39.7802 27.6045 39.8288 27.5263C39.8774 27.4469 39.939 27.3853 40.0136 27.3414C40.0895 27.2964 40.1795 27.2739 40.2838 27.2739C40.3075 27.2739 40.3347 27.2769 40.3656 27.2828C40.3964 27.2875 40.4177 27.2929 40.4295 27.2988ZM41.4959 29.268C41.362 29.268 41.2406 29.2455 41.1316 29.2005C41.0237 29.1543 40.9307 29.0897 40.8525 29.0068C40.7755 28.9238 40.7163 28.8255 40.6748 28.7117C40.6333 28.598 40.6126 28.4736 40.6126 28.3385V28.2639C40.6126 28.1075 40.6357 27.9682 40.6819 27.8462C40.7281 27.723 40.7909 27.6187 40.8703 27.5334C40.9497 27.4481 41.0397 27.3835 41.1405 27.3397C41.2412 27.2958 41.3454 27.2739 41.4533 27.2739C41.5907 27.2739 41.7092 27.2976 41.8087 27.345C41.9094 27.3924 41.9918 27.4587 42.0558 27.5441C42.1197 27.6282 42.1671 27.7277 42.1979 27.8426C42.2288 27.9564 42.2442 28.0808 42.2442 28.2159V28.3634H40.8081V28.095H41.9154V28.0701C41.9106 27.9848 41.8928 27.9019 41.862 27.8213C41.8324 27.7407 41.785 27.6744 41.7199 27.6223C41.6547 27.5701 41.5658 27.5441 41.4533 27.5441C41.3786 27.5441 41.3099 27.56 41.2471 27.592C41.1843 27.6228 41.1304 27.6691 41.0854 27.7307C41.0403 27.7923 41.0054 27.8675 40.9805 27.9564C40.9556 28.0452 40.9432 28.1477 40.9432 28.2639V28.3385C40.9432 28.4297 40.9556 28.5156 40.9805 28.5962C41.0066 28.6756 41.0439 28.7455 41.0925 28.8059C41.1422 28.8664 41.2021 28.9138 41.272 28.9481C41.3431 28.9825 41.4236 28.9997 41.5137 28.9997C41.6298 28.9997 41.7281 28.976 41.8087 28.9286C41.8893 28.8812 41.9598 28.8178 42.0202 28.7384L42.2193 28.8966C42.1778 28.9594 42.1251 29.0192 42.0611 29.0761C41.9971 29.133 41.9183 29.1792 41.8247 29.2147C41.7323 29.2503 41.6227 29.268 41.4959 29.268ZM43.8402 28.8593V26.5026H44.1707V29.2325H43.8686L43.8402 28.8593ZM42.5463 28.2923V28.255C42.5463 28.108 42.5641 27.9748 42.5996 27.8551C42.6363 27.7342 42.6879 27.6305 42.7542 27.5441C42.8218 27.4576 42.9018 27.3912 42.9942 27.345C43.0878 27.2976 43.192 27.2739 43.307 27.2739C43.4278 27.2739 43.5333 27.2952 43.6233 27.3379C43.7146 27.3794 43.7916 27.4404 43.8544 27.5209C43.9184 27.6003 43.9687 27.6963 44.0055 27.8089C44.0422 27.9214 44.0677 28.0488 44.0819 28.191V28.3545C44.0688 28.4955 44.0434 28.6223 44.0055 28.7348C43.9687 28.8474 43.9184 28.9434 43.8544 29.0228C43.7916 29.1021 43.7146 29.1632 43.6233 29.2058C43.5321 29.2473 43.4255 29.268 43.3034 29.268C43.1909 29.268 43.0878 29.2437 42.9942 29.1952C42.9018 29.1466 42.8218 29.0785 42.7542 28.9908C42.6879 28.9031 42.6363 28.8 42.5996 28.6815C42.5641 28.5619 42.5463 28.4321 42.5463 28.2923ZM42.8769 28.255V28.2923C42.8769 28.3883 42.8863 28.4783 42.9053 28.5624C42.9255 28.6466 42.9563 28.7206 42.9977 28.7846C43.0392 28.8486 43.0919 28.8989 43.1559 28.9357C43.2199 28.9712 43.2963 28.989 43.3852 28.989C43.4942 28.989 43.5836 28.9659 43.6535 28.9197C43.7246 28.8735 43.7815 28.8124 43.8242 28.7366C43.8668 28.6608 43.9 28.5784 43.9237 28.4896V28.0612C43.9095 27.9961 43.8887 27.9333 43.8615 27.8729C43.8354 27.8112 43.8011 27.7567 43.7584 27.7093C43.7169 27.6608 43.6654 27.6223 43.6038 27.5938C43.5434 27.5654 43.4717 27.5512 43.3887 27.5512C43.2987 27.5512 43.2211 27.5701 43.1559 27.608C43.0919 27.6448 43.0392 27.6957 42.9977 27.7609C42.9563 27.8249 42.9255 27.8995 42.9053 27.9848C42.8863 28.0689 42.8769 28.159 42.8769 28.255ZM45.5837 26.5026H45.9143V28.8593L45.8858 29.2325H45.5837V26.5026ZM47.2135 28.255V28.2923C47.2135 28.4321 47.1969 28.5619 47.1637 28.6815C47.1305 28.8 47.082 28.9031 47.018 28.9908C46.954 29.0785 46.8758 29.1466 46.7834 29.1952C46.6909 29.2437 46.5849 29.268 46.4652 29.268C46.3432 29.268 46.236 29.2473 46.1435 29.2058C46.0523 29.1632 45.9753 29.1021 45.9125 29.0228C45.8497 28.9434 45.7993 28.8474 45.7614 28.7348C45.7247 28.6223 45.6992 28.4955 45.685 28.3545V28.191C45.6992 28.0488 45.7247 27.9214 45.7614 27.8089C45.7993 27.6963 45.8497 27.6003 45.9125 27.5209C45.9753 27.4404 46.0523 27.3794 46.1435 27.3379C46.2348 27.2952 46.3408 27.2739 46.4617 27.2739C46.5825 27.2739 46.6898 27.2976 46.7834 27.345C46.877 27.3912 46.9552 27.4576 47.018 27.5441C47.082 27.6305 47.1305 27.7342 47.1637 27.8551C47.1969 27.9748 47.2135 28.108 47.2135 28.255ZM46.8829 28.2923V28.255C46.8829 28.159 46.874 28.0689 46.8562 27.9848C46.8385 27.8995 46.81 27.8249 46.7709 27.7609C46.7318 27.6957 46.6803 27.6448 46.6163 27.608C46.5523 27.5701 46.4735 27.5512 46.3799 27.5512C46.297 27.5512 46.2247 27.5654 46.1631 27.5938C46.1027 27.6223 46.0511 27.6608 46.0085 27.7093C45.9658 27.7567 45.9309 27.8112 45.9036 27.8729C45.8775 27.9333 45.858 27.9961 45.845 28.0612V28.4896C45.8639 28.5725 45.8947 28.6525 45.9374 28.7295C45.9812 28.8053 46.0393 28.8675 46.1115 28.9161C46.185 28.9647 46.2757 28.989 46.3835 28.989C46.4723 28.989 46.5482 28.9712 46.611 28.9357C46.675 28.8989 46.7265 28.8486 46.7656 28.7846C46.8059 28.7206 46.8355 28.6466 46.8545 28.5624C46.8734 28.4783 46.8829 28.3883 46.8829 28.2923ZM48.1483 29.0334L48.6833 27.3094H49.0352L48.2639 29.5293C48.2461 29.5767 48.2224 29.6276 48.1928 29.6821C48.1643 29.7378 48.1276 29.7906 48.0826 29.8403C48.0375 29.8901 47.983 29.9304 47.9191 29.9612C47.8563 29.9932 47.781 30.0092 47.6933 30.0092C47.6673 30.0092 47.6341 30.0056 47.5938 29.9985C47.5535 29.9914 47.5251 29.9855 47.5085 29.9807L47.5067 29.7141C47.5162 29.7153 47.531 29.7165 47.5512 29.7177C47.5725 29.7201 47.5873 29.7212 47.5956 29.7212C47.6702 29.7212 47.7336 29.7112 47.7858 29.691C47.8379 29.6721 47.8817 29.6395 47.9173 29.5933C47.954 29.5482 47.9854 29.486 48.0115 29.4067L48.1483 29.0334ZM47.7555 27.3094L48.255 28.8024L48.3403 29.149L48.1039 29.2698L47.3965 27.3094H47.7555Z" fill="white"/>
<defs>
<clipPath id="clip0_210_4414">
<rect width="114.441" height="28.0491" fill="white" transform="translate(0.0700684 0.642212)"/>
</clipPath>
<clipPath id="clip1_210_4414">
<rect width="17.7273" height="6.57625" fill="white" transform="translate(50.1067 23.8021)"/>
</clipPath>
</defs>
</svg>
