<svg width="111" height="25" viewBox="0 0 111 25" fill="none" xmlns="http://www.w3.org/2000/svg">
<g clip-path="url(#clip0_210_4437)">
<path d="M18.821 5.83238H11.8679V11.5389H17.1725C17.7764 11.5389 18.315 12.0309 18.315 12.6704C18.315 13.3263 17.809 13.8183 17.1725 13.8183H11.8679V20.3611C11.8679 21.0335 11.3619 21.5746 10.66 21.5746C9.99084 21.5746 9.48487 21.0171 9.48487 20.3611V4.8157C9.48487 4.14338 10.0561 3.56944 10.6927 3.56944H18.8373C19.4412 3.56944 19.9798 4.06139 19.9798 4.70091C19.9635 5.34044 19.4412 5.83238 18.821 5.83238ZM12.8145 0.552185C6.20417 0.552185 0.850586 5.93077 0.850586 12.572C0.850586 19.2133 6.20417 24.5919 12.8145 24.5919C19.4249 24.5919 24.7785 19.2133 24.7785 12.572V1.40489V0.552185H12.8145Z" fill="white"/>
<path d="M35.7305 3.60223C38.0155 3.60223 40.0394 4.40574 41.5247 5.78319C41.9817 6.19314 42.047 6.93106 41.6553 7.4394C41.1983 7.94774 40.4801 7.96414 39.9905 7.57058C38.8479 6.5539 37.4116 5.89797 35.7305 5.89797C32.0744 5.89797 29.2507 8.91523 29.2507 12.6212C29.2507 16.3272 32.0744 19.3116 35.7305 19.3116C37.3953 19.3116 38.8479 18.6557 39.9905 17.639C40.4801 17.2291 41.2146 17.2619 41.6553 17.7702C42.0634 18.2786 41.9981 19.0165 41.5247 19.4264C40.0231 20.8039 37.9992 21.6074 35.7305 21.6074C30.8013 21.6074 26.884 17.5734 26.884 12.6048C26.884 7.60338 30.7849 3.60223 35.7305 3.60223Z" fill="white"/>
<path d="M51.6443 17.8194L51.628 16.6551C50.3875 16.2288 48.8369 16.0484 48.1025 16.0484C45.6705 16.0484 45.2135 17.1143 45.2135 17.9178C45.2135 18.8033 45.948 19.5576 47.5312 19.5576C48.7553 19.5412 50.7303 19.0821 51.6443 17.8194ZM44.0709 12.1621C43.7772 11.6701 43.8424 11.0634 44.3321 10.6534C45.6378 9.52195 47.2374 9.21039 48.5268 9.21039C51.9055 9.21039 53.9294 10.8994 53.9294 14.1954V15.7204V20.2955C53.9294 20.9351 53.4234 21.4598 52.7705 21.4598C52.134 21.4598 51.6443 20.9351 51.6443 20.2955V19.8036C50.7792 21.0334 48.9675 21.591 47.4822 21.591C44.8054 21.591 43.0263 20.2135 43.0263 17.9014C43.0263 15.868 44.3974 14.179 48.0861 14.179C49.1797 14.179 50.2569 14.3922 51.628 14.8186V14.2118C51.628 12.4736 50.4528 11.3093 48.331 11.3093C47.4006 11.3093 46.356 11.6865 45.5399 12.3424C45.0666 12.6704 44.3811 12.6048 44.0709 12.1621Z" fill="white"/>
<path d="M56.8347 10.5059C56.8347 9.86635 57.3406 9.34161 57.9772 9.34161C58.6301 9.34161 59.136 9.86635 59.136 10.5059V11.2438C59.7726 9.93194 61.4374 9.29242 62.4004 9.21043C62.8574 9.19403 63.2818 9.21043 63.6898 9.29242C65.1915 9.52199 66.2197 10.3583 66.7747 11.6701C67.8683 9.55479 69.7126 9.22682 70.8715 9.22682C73.8257 9.22682 75.4253 11.1618 75.4253 14.4906V20.312C75.4253 20.9515 74.9193 21.4762 74.2664 21.4762C73.6299 21.4762 73.1239 20.9515 73.1239 20.312V14.6218C73.1239 12.6704 72.1119 11.457 70.4308 11.457C68.4885 11.4406 67.2807 12.9328 67.2807 14.917V20.2792C67.2807 20.9187 66.7747 21.4434 66.1218 21.4434C65.4853 21.4434 64.9793 20.9187 64.9793 20.2792V14.6054C64.9793 12.654 63.9673 11.4242 62.4331 11.4242C60.7846 11.4242 59.136 12.4409 59.136 14.9498V20.312C59.136 20.9515 58.6301 21.4762 57.9772 21.4762C57.3406 21.4762 56.8347 20.9515 56.8347 20.312V10.5059Z" fill="white"/>
<path d="M86.0998 17.8194L86.0835 16.6551C84.843 16.2288 83.2924 16.0484 82.558 16.0484C80.126 16.0484 79.669 17.1143 79.669 17.9178C79.669 18.8033 80.4035 19.5576 81.9867 19.5576C83.2108 19.5412 85.2021 19.0821 86.0998 17.8194ZM78.5265 12.1621C78.2327 11.6701 78.298 11.0634 78.7876 10.6534C80.0934 9.52195 81.6929 9.21039 82.9823 9.21039C86.361 9.21039 88.3849 10.8994 88.3849 14.1954V15.7204V20.2955C88.3849 20.9351 87.8789 21.4598 87.226 21.4598C86.5895 21.4598 86.0998 20.9351 86.0998 20.2955V19.8036C85.2348 21.0334 83.423 21.591 81.9377 21.591C79.2609 21.591 77.4819 20.2135 77.4819 17.9014C77.4819 15.868 78.8529 14.179 82.5416 14.179C83.6352 14.179 84.7125 14.3922 86.0835 14.8186V14.2118C86.0835 12.4736 84.9083 11.3093 82.7865 11.3093C81.8561 11.3093 80.7952 11.6865 79.9954 12.3424C79.5221 12.6704 78.8203 12.6048 78.5265 12.1621Z" fill="white"/>
<path d="M96.8394 11.4244C94.5543 11.4244 93.5914 13.8677 93.5914 17.0162V20.2958C93.5914 20.9353 93.0854 21.4601 92.4325 21.4601C91.7959 21.4601 91.29 20.9353 91.29 20.2958V10.5061C91.29 9.86658 91.7959 9.34184 92.4325 9.34184C93.0854 9.34184 93.5914 9.86658 93.5914 10.5061V12.1459C94.1953 10.0634 95.3378 9.22705 96.8884 9.22705C97.7534 9.22705 99.1734 9.39103 98.9613 10.6537C98.8307 11.3916 98.1778 11.5392 97.3617 11.4572C97.1822 11.4244 96.9863 11.4244 96.8394 11.4244Z" fill="white"/>
<path d="M107.987 17.8194L107.971 16.6551C106.731 16.2288 105.18 16.0484 104.446 16.0484C102.014 16.0484 101.557 17.1143 101.557 17.9178C101.557 18.8033 102.291 19.5576 103.874 19.5576C105.082 19.5412 107.057 19.0821 107.987 17.8194ZM100.414 12.1621C100.12 11.6701 100.186 11.0634 100.675 10.6534C101.981 9.52195 103.581 9.21039 104.87 9.21039C108.249 9.21039 110.273 10.8994 110.273 14.1954V15.7204V20.2955C110.273 20.9351 109.767 21.4598 109.114 21.4598C108.477 21.4598 107.987 20.9351 107.987 20.2955V19.8036C107.122 21.0334 105.311 21.591 103.825 21.591C101.149 21.591 99.3695 20.2135 99.3695 17.9014C99.3695 15.868 100.741 14.179 104.429 14.179C105.523 14.179 106.6 14.3922 107.971 14.8186V14.2118C107.971 12.4736 106.796 11.3093 104.674 11.3093C103.744 11.3093 102.683 11.6865 101.883 12.3424C101.393 12.6704 100.708 12.6048 100.414 12.1621Z" fill="white"/>
<path d="M82.2805 6.12753C81.7908 6.61947 81.2522 6.84905 80.6157 6.84905C80.2076 6.84905 79.8485 6.76706 79.4895 6.61947C79.1467 6.47189 78.8366 6.24232 78.5754 5.96355C78.3143 5.68478 78.1184 5.37322 77.9715 4.99606C77.8246 4.6189 77.743 4.20895 77.743 3.7826C77.743 3.37264 77.8246 2.97909 77.9715 2.61833C78.1184 2.25757 78.3306 1.94601 78.5754 1.66724C78.8366 1.38847 79.1467 1.17529 79.5058 1.01131C79.8649 0.847331 80.2403 0.781738 80.6646 0.781738C81.2359 0.781738 81.7255 0.912923 82.1173 1.1425C82.5253 1.37207 82.8191 1.70003 83.0313 2.09359L82.1662 2.73312C82.0193 2.43795 81.8072 2.20838 81.5297 2.06079C81.2522 1.91321 80.9584 1.83122 80.6483 1.83122C80.3872 1.83122 80.1587 1.89681 79.9465 1.9952C79.7343 2.09359 79.5384 2.25757 79.3915 2.43795C79.2446 2.63473 79.114 2.8479 79.0488 3.07748C78.9835 3.30705 78.9182 3.58582 78.9182 3.84819C78.9182 4.12696 78.9672 4.40573 79.0488 4.6353C79.1304 4.89767 79.2609 5.09445 79.4242 5.27483C79.5711 5.47161 79.7669 5.58639 79.9954 5.70118C80.2076 5.79957 80.4361 5.84876 80.6973 5.84876C81.2685 5.84876 81.7908 5.56999 82.2642 5.02886V4.6025H81.0564V3.7498H83.2272V6.84905H82.2642V6.12753H82.2805Z" fill="white"/>
<path d="M86.2467 3.7662H87.6993C87.7973 3.7662 87.9115 3.7498 87.9931 3.68421C88.0747 3.63501 88.1563 3.55302 88.2216 3.47103C88.2869 3.38904 88.3522 3.27425 88.3848 3.15947C88.4338 3.02828 88.4501 2.8971 88.4501 2.78231C88.4501 2.63473 88.4338 2.50354 88.3848 2.40515C88.3359 2.27397 88.2869 2.19198 88.189 2.09359C88.1074 2.0116 88.0258 1.94601 87.9278 1.88041C87.8299 1.83122 87.732 1.81482 87.634 1.81482H86.214V3.7662H86.2467ZM85.0715 6.79985V0.781738H87.732C88.0094 0.781738 88.2543 0.847331 88.4991 0.94572C88.7276 1.04411 88.9398 1.22449 89.103 1.40487C89.2662 1.60164 89.3968 1.81482 89.5111 2.04439C89.609 2.27397 89.6579 2.53634 89.6579 2.76591C89.6579 3.14307 89.56 3.50383 89.3642 3.83179C89.1683 4.14336 88.9071 4.38933 88.5807 4.53691L89.9518 6.79985H88.6297L87.4055 4.78288H86.263V6.79985H85.0715Z" fill="white"/>
<path d="M94.0486 5.81597C94.326 5.81597 94.5545 5.75037 94.7504 5.65198C94.9463 5.5536 95.0931 5.38961 95.2074 5.20923C95.338 5.01246 95.4033 4.83208 95.4686 4.6025C95.5338 4.37293 95.5338 4.14336 95.5338 3.88099V0.781738H96.6927V3.84819C96.6927 4.25814 96.6437 4.6517 96.5458 5.01246C96.4479 5.37322 96.2847 5.68478 96.0888 5.96355C95.8766 6.24232 95.5991 6.45549 95.2727 6.60308C94.9299 6.75066 94.5382 6.83265 94.0975 6.83265C93.6079 6.83265 93.2161 6.75066 92.8734 6.57028C92.5306 6.4063 92.2695 6.19312 92.0573 5.91435C91.8451 5.63559 91.6982 5.32402 91.6166 4.96326C91.535 4.6025 91.4697 4.22535 91.4697 3.83179V0.781738H92.6285V3.84819C92.6285 4.11056 92.6449 4.35653 92.6938 4.58611C92.7428 4.81568 92.8244 5.02886 92.955 5.19284C93.0856 5.35682 93.2325 5.5044 93.3957 5.63559C93.5752 5.76677 93.8037 5.81597 94.0486 5.81597Z" fill="white"/>
<path d="M99.8755 3.7662H101.23C101.442 3.7662 101.638 3.68421 101.752 3.50383C101.883 3.33985 101.965 3.09388 101.965 2.78231C101.965 2.63473 101.948 2.48714 101.899 2.37236C101.85 2.24117 101.801 2.14278 101.736 2.06079C101.671 1.9788 101.573 1.91321 101.475 1.86402C101.393 1.81482 101.263 1.79842 101.165 1.79842H99.8592L99.8755 3.7662ZM98.7003 6.79985V0.781738H101.23C101.508 0.781738 101.752 0.847331 101.997 0.94572C102.226 1.04411 102.438 1.22449 102.601 1.40487C102.764 1.60164 102.895 1.81482 103.009 2.04439C103.107 2.27397 103.156 2.53634 103.156 2.76591C103.156 3.02828 103.107 3.27425 103.026 3.50383C102.944 3.7334 102.813 3.94658 102.65 4.14336C102.487 4.34013 102.291 4.48772 102.063 4.58611C101.834 4.68449 101.573 4.75009 101.295 4.75009H99.8755V6.78346L98.7003 6.79985Z" fill="white"/>
<path d="M105.621 3.79897C105.621 4.06135 105.67 4.30732 105.751 4.56969C105.833 4.79926 105.947 5.02884 106.094 5.20921C106.241 5.40599 106.437 5.55358 106.649 5.65196C106.861 5.75035 107.106 5.81595 107.384 5.81595C107.661 5.81595 107.906 5.75035 108.118 5.65196C108.33 5.55358 108.526 5.3732 108.673 5.19282C108.82 5.01244 108.934 4.78286 109.016 4.53689C109.097 4.30732 109.114 4.04495 109.114 3.79897C109.114 3.5366 109.065 3.29063 108.983 3.02826C108.901 2.79869 108.787 2.56911 108.64 2.38874C108.493 2.22475 108.298 2.04437 108.085 1.94599C107.873 1.8476 107.628 1.782 107.351 1.782C107.073 1.782 106.829 1.8476 106.584 1.94599C106.372 2.04437 106.176 2.22475 106.029 2.40513C105.882 2.60191 105.768 2.81509 105.686 3.04466C105.653 3.30703 105.621 3.5366 105.621 3.79897ZM107.367 6.84903C106.927 6.84903 106.518 6.76704 106.159 6.58666C105.8 6.42268 105.507 6.1767 105.229 5.91433C104.968 5.63557 104.772 5.3076 104.641 4.94684C104.495 4.58609 104.429 4.20893 104.429 3.81537C104.429 3.40542 104.511 3.02826 104.658 2.6675C104.805 2.30674 105.017 1.96238 105.262 1.70001C105.523 1.42125 105.833 1.19167 106.192 1.02769C106.551 0.863709 106.959 0.76532 107.367 0.76532C107.808 0.76532 108.183 0.847311 108.542 1.04409C108.901 1.20807 109.195 1.45404 109.456 1.74921C109.718 2.04437 109.897 2.35594 110.044 2.7167C110.191 3.07746 110.256 3.45461 110.256 3.84817C110.256 4.25812 110.191 4.63528 110.044 4.99604C109.897 5.3568 109.685 5.66836 109.44 5.96353C109.179 6.2423 108.869 6.47187 108.51 6.63585C108.167 6.76704 107.792 6.84903 107.367 6.84903Z" fill="white"/>
</g>
<defs>
<clipPath id="clip0_210_4437">
<rect width="109.422" height="24.0397" fill="white" transform="translate(0.850586 0.552185)"/>
</clipPath>
</defs>
</svg>
