<svg width="101" height="30" viewBox="0 0 101 30" fill="none" xmlns="http://www.w3.org/2000/svg">
<path d="M15.2049 0.290527C7.289 0.290527 0.842163 6.74733 0.842163 14.6754C0.842163 22.6316 7.289 29.0837 15.2049 29.0837C23.1207 29.0837 29.5909 22.6269 29.5909 14.6754C29.5909 6.74733 23.1149 0.290527 15.2049 0.290527ZM25.019 21.4836C21.8821 21.8351 18.4856 21.9171 15.2049 21.9171C11.9241 21.9171 8.52644 21.8304 5.36033 21.4836C4.46792 21.3981 4.00827 21.1674 3.89248 20.2162C3.72054 18.3993 3.72055 16.5544 3.72055 14.6813C3.72055 12.8363 3.72054 10.9913 3.89248 9.17566C4.00944 8.22447 4.46792 7.99371 5.36033 7.90702C8.52644 7.5556 11.923 7.47477 15.2049 7.47477C18.4868 7.47477 21.8821 7.56146 25.019 7.90819C25.9406 7.9937 26.4014 8.22447 26.5161 9.17566C26.6599 10.9925 26.6599 12.8375 26.6599 14.6813C26.6599 16.5555 26.6599 18.3993 26.5161 20.2162C26.3991 21.1674 25.9406 21.3981 25.019 21.4836Z" fill="white"/>
<path d="M9.39322 14.6755C9.39992 13.5253 9.7466 12.4028 10.3895 11.4497C11.0324 10.4966 11.9428 9.75551 13.0058 9.31998C14.0687 8.88445 15.2366 8.77397 16.3622 9.00248C17.4878 9.23098 18.5206 9.78824 19.3303 10.6039C20.1401 11.4197 20.6904 12.4573 20.912 13.5859C21.1336 14.7145 21.0165 15.8836 20.5755 16.9457C20.1345 18.0077 19.3893 18.9151 18.4339 19.5535C17.4785 20.1919 16.3558 20.5325 15.2073 20.5326C14.4403 20.5348 13.6805 20.3845 12.9719 20.0905C12.2633 19.7965 11.62 19.3646 11.0792 18.8199C10.5384 18.2751 10.111 17.6283 9.82157 16.9169C9.53216 16.2055 9.38657 15.4437 9.39322 14.6755Z" fill="white"/>
<path d="M93.5858 18.2949C91.6548 18.2949 90.0852 16.7229 90.0852 14.5769C90.0852 12.4309 91.6548 10.8588 93.5858 10.8588C95.5169 10.8588 97.0876 12.4309 97.0876 14.5769C97.0876 16.7229 95.518 18.2949 93.5858 18.2949ZM77.8313 18.2949C75.96 18.2949 74.3915 16.8143 74.3915 14.5769C74.3915 12.37 75.9611 10.8588 77.8313 10.8588C79.7015 10.8588 81.2723 12.37 81.2723 14.5769C81.2723 16.8143 79.7027 18.2949 77.8313 18.2949ZM61.9248 18.2949C59.9926 18.2949 58.423 16.7229 58.423 14.5769C58.423 12.4309 59.9926 10.8588 61.9248 10.8588C63.8569 10.8588 65.4254 12.4309 65.4254 14.5769C65.4254 16.7229 63.8558 18.2949 61.9248 18.2949ZM40.4357 18.2645C38.5339 18.2645 36.9351 16.7534 36.9351 14.5464C36.9351 12.3102 38.5339 10.8284 40.4357 10.8284C42.3375 10.8284 43.9059 12.3102 43.9059 14.5464C43.9059 16.7534 42.3363 18.2645 40.4357 18.2645ZM93.5835 7.32236C89.6911 7.32236 86.4314 10.375 86.4314 14.5769C86.4314 18.7787 89.6279 21.8349 93.5858 21.8349C97.4794 21.8349 100.739 18.7822 100.739 14.5804C100.739 10.3786 97.5403 7.32588 93.5858 7.32588L93.5835 7.32236ZM61.9271 7.32588C58.0335 7.32588 54.7738 10.3786 54.7738 14.5804C54.7738 18.7822 57.9727 21.8349 61.9271 21.8349C65.8195 21.8349 69.0792 18.7822 69.0792 14.5804C69.0792 10.3786 65.8804 7.32588 61.9271 7.32588ZM44.7539 7.56719C44.3012 7.56719 44.0299 7.84012 44.0299 8.29346V9.07947C43.2112 8.08143 41.7059 7.32236 40.1959 7.32236C36.514 7.32236 33.3456 10.4664 33.3456 14.5769C33.3456 18.6874 36.3327 21.5292 40.1059 21.5292C40.8061 21.5333 41.4996 21.3932 42.1435 21.1175C42.7874 20.8418 43.3677 20.4365 43.8486 19.9267C43.8182 22.799 42.3094 24.0981 39.7129 24.0981C38.3257 24.0981 37.0228 23.6752 35.5187 22.7076C35.1257 22.4359 34.6731 22.5272 34.4661 22.9501L33.5596 24.733C33.3491 25.157 33.4087 25.553 33.8321 25.8212C35.7035 27.0301 37.9059 27.6357 39.8076 27.6357C44.7878 27.6357 47.534 24.9415 47.534 18.7483V8.28994C47.534 7.83661 47.2627 7.56367 46.81 7.56367L44.7539 7.56719ZM78.2547 7.32588C76.8253 7.33597 75.458 7.91206 74.4512 8.92836V2.51607C74.4512 2.06274 74.1798 1.79098 73.7272 1.79098H71.4991C71.0453 1.79098 70.774 2.06274 70.774 2.51607V20.8638C70.774 21.3172 71.0453 21.5901 71.4991 21.5901H73.5202C73.974 21.5901 74.2453 21.3172 74.2453 20.8638V20.0778C75.1202 21.0759 76.7506 21.8349 78.3495 21.8349C81.8805 21.8349 84.9285 18.6311 84.9285 14.5804C84.9285 10.4699 81.8501 7.32588 78.2617 7.32588H78.2547ZM50.8931 1.67384C50.0182 1.28024 49.4147 1.67384 49.4147 2.64025V20.7432C49.4147 21.7108 50.0182 22.1032 50.8931 21.7108L52.0405 21.1965C52.7645 20.8638 53.0931 20.3765 53.0931 19.5952V3.7812C53.0931 2.99518 52.7609 2.51139 52.0405 2.17871L50.8931 1.67384Z" fill="white"/>
</svg>
