<svg width="57" height="30" viewBox="0 0 57 30" fill="none" xmlns="http://www.w3.org/2000/svg">
<path d="M0.739136 16.8575H4.95822L7.30216 5.19646H3.08307L0.739136 16.8575ZM3.96205 4.14169H8.94291L9.76329 0.0397949H4.78243L3.96205 4.14169ZM6.59898 20.1391H10.8181L13.3964 7.54039H16.5607L17.0295 5.19646H13.9238L14.041 4.66907C14.2168 3.6729 14.5684 2.55953 16.1505 2.55953C17.0881 2.55953 17.9671 2.61813 18.846 3.02831L19.3148 0.567181C18.3187 0.21559 17.2639 0.0397949 16.2677 0.0397949C12.869 0.0397949 10.5251 2.03214 9.6461 5.19646H8.18113L7.71235 7.54039H9.17731L6.59898 20.1391Z" fill="white"/>
<path d="M19.959 17.0918C24.9399 17.0918 28.3972 12.5798 28.3972 8.88807C28.3972 6.13395 25.8775 4.96198 23.4163 4.96198C17.9667 4.96198 14.9782 9.82564 14.9782 13.1658C14.9782 15.9199 17.5565 17.0918 19.959 17.0918ZM33.3195 17.0918C38.3003 17.0918 41.7576 12.5798 41.7576 8.88807C41.7576 6.13395 39.1793 4.96198 36.7182 4.96198C31.2685 4.96198 28.28 9.82564 28.28 13.1658C28.28 15.9199 30.9169 17.0918 33.3195 17.0918ZM48.6137 16.8575H52.7741L56.1728 0.274109H51.9538L50.9576 5.19637L49.1996 5.02058C45.0977 5.02058 41.3475 10.2944 41.3475 14.0447C41.3475 15.5683 42.3436 17.0918 44.043 17.0918C46.4455 17.0918 48.1449 15.9199 48.848 14.7479H49.0824L48.6137 16.8575ZM35.6048 25.5886C32.3299 28.3018 28.1238 29.6267 23.8851 29.2803C18.3183 28.9287 14.3336 24.651 13.6304 20.139H13.8648C15.154 22.9517 18.2597 25.5886 22.0686 25.9988C25.9361 26.4676 30.5653 24.7096 33.0851 22.3071L30.2724 20.139H38.7691L36.894 29.1631L35.6634 25.6472L35.6048 25.5886Z" fill="white"/>
</svg>
