<svg width="34" height="34" viewBox="0 0 34 34" fill="none" xmlns="http://www.w3.org/2000/svg">
<path fill-rule="evenodd" clip-rule="evenodd" d="M6.28181 3.53791e-05L27.4875 0.013328C30.8164 0.013328 33.5585 2.75543 33.5471 6.0976V27.3033C33.5471 30.6436 30.805 33.3743 27.4628 33.3743L6.24383 33.361C2.90356 33.3496 0.172852 30.6189 0.172852 27.2786L0.199437 6.07291C0.199437 2.73074 2.92824 -0.0113584 6.28181 3.53791e-05Z" fill="white"/>
<path fill-rule="evenodd" clip-rule="evenodd" d="M28.8472 15.2222H26.428L25.431 17.1174H27.1268L28.8472 15.2222ZM30.4557 18.3023H28.0991V23.3897C28.0991 24.9487 27.0527 25.3969 26.278 25.3969C25.5431 25.3969 24.7322 25.1234 24.7436 23.7638V18.3042H22.387L22.3737 24.1018C22.3737 26.3463 23.6574 27.3433 25.4272 27.3433C26.6615 27.3566 27.6205 26.8192 28.1579 25.8716H28.1826V27.1059H30.4519V18.3023H30.4557Z" fill="#202024"/>
<path fill-rule="evenodd" clip-rule="evenodd" d="M20.5465 20.6346C20.5465 18.4527 18.2526 18.0672 16.9803 18.0672C15.1478 18.0672 13.2393 18.4546 12.9526 21.1473H15.2332C15.3073 20.6365 15.52 19.9263 16.6916 19.9263C17.3031 19.9263 18.2507 19.9757 18.2507 20.9479C18.2507 21.4473 17.7892 21.5955 17.4151 21.6467L15.2959 21.9582C13.7881 22.1709 12.6658 23.0558 12.6658 24.7762C12.6658 26.5973 14.0616 27.3436 15.3965 27.3436C17.0164 27.3436 17.7778 26.6087 18.3019 26.0713C18.3513 26.5575 18.3893 26.6828 18.526 27.1063L20.5579 27.093C20.5579 26.1207 20.5446 25.4105 20.5446 25.3972V20.6346H20.5465Z" fill="#202024"/>
<path fill-rule="evenodd" clip-rule="evenodd" d="M10.4972 15.2224H8.14062V18.2892H6.91959V19.947H8.12922V25.2944C8.12922 26.4281 8.49003 27.201 10.5352 27.201H10.8466C11.2207 27.201 11.5948 27.1763 11.9556 27.163V25.4046C11.7942 25.4179 11.6195 25.4426 11.4695 25.4426C10.5086 25.4426 10.4839 25.2432 10.4839 24.7191L10.4972 19.9451H11.9689V18.2873H10.4972V15.2224Z" fill="#202024"/>
<path fill-rule="evenodd" clip-rule="evenodd" d="M5.83377 15.2111H3.29106L3.27777 27.091H5.82048L5.83377 15.2111Z" fill="#202024"/>
<path fill-rule="evenodd" clip-rule="evenodd" d="M18.2519 23.9498V22.8162C18.0145 23.0023 17.6158 23.1523 16.6435 23.289C15.7586 23.439 15.0351 23.6631 15.0351 24.6221C15.0351 25.4196 15.6826 25.6817 16.1327 25.6817C17.179 25.6836 18.2519 25.0228 18.2519 23.9498Z" fill="white"/>
</svg>
