<svg width="127" height="46" viewBox="0 0 127 46" fill="none" xmlns="http://www.w3.org/2000/svg">
<g clip-path="url(#clip0_221_4489)">
<g clip-path="url(#clip1_221_4489)">
<path d="M118.423 5.52991C120.273 5.52991 121.791 7.02223 121.791 8.88278C121.791 10.7433 120.273 12.2163 118.423 12.2163C116.574 12.2163 115.075 10.7046 115.075 8.8634C115.075 7.02223 116.574 5.52991 118.423 5.52991ZM118.423 1.36304C114.257 1.36304 110.889 4.71591 110.889 8.8634C110.889 13.0109 114.257 16.3638 118.423 16.3638C122.589 16.3638 125.957 13.0109 125.957 8.8634C125.957 4.71591 122.589 1.36304 118.423 1.36304Z" fill="white"/>
<path d="M26.0301 15.8206H24.0834C23.3826 15.8206 22.9348 16.2276 22.9348 16.9641V22.7977C22.9348 25.7436 21.611 27.1584 19.5085 27.1584C17.9122 27.1584 17.0167 26.17 17.0167 24.1737V16.9641C17.0167 16.2276 16.5884 15.8206 15.8681 15.8206H13.9213C13.1816 15.8206 12.7727 16.2276 12.7727 16.9641V24.0187C12.7727 28.4375 14.8363 30.7438 18.4767 30.7438C20.5014 30.7438 22.1172 29.8523 23.2463 28.4375C23.2852 28.8057 23.3436 29.2321 23.4215 29.6004C23.5772 30.143 24.0055 30.395 24.6479 30.395H25.9717C26.6726 30.395 27.1203 29.988 27.1203 29.2515V16.9641C27.1593 16.2276 26.731 15.8206 26.0301 15.8206Z" fill="white"/>
<path d="M32.2208 15.8206H30.274C29.5732 15.8206 29.1254 16.2276 29.1254 16.9641V29.2709C29.1254 29.9686 29.5537 30.4143 30.274 30.4143H32.2208C32.9605 30.4143 33.3694 30.0074 33.3694 29.2709V16.9641C33.3499 16.2276 32.9605 15.8206 32.2208 15.8206Z" fill="white"/>
<path d="M31.2669 9.83215C29.7873 9.83215 28.8334 10.8787 28.8334 12.1385C28.8334 13.4176 29.7484 14.4448 31.2669 14.4448C32.7464 14.4448 33.7003 13.437 33.7003 12.1385C33.7003 10.8787 32.7659 9.83215 31.2669 9.83215Z" fill="white"/>
<path d="M46.7825 26.8873H40.1051L47.0161 19.3481C47.4249 18.9218 47.5612 18.5148 47.5612 17.9333V16.9449C47.5612 16.2084 47.1524 15.8015 46.4126 15.8015H36.1922C35.4913 15.8015 35.0436 16.2084 35.0436 16.9449V18.1659C35.0436 18.9024 35.4524 19.3094 36.1922 19.3094H42.3244L35.4524 26.8679C35.0436 27.2749 34.8684 27.6625 34.8684 28.2439V29.2517C34.8684 29.9494 35.2966 30.3952 36.0169 30.3952H46.802C47.5028 30.3952 47.9506 29.9688 47.9506 29.2517V28.0307C47.9311 27.2943 47.5028 26.8873 46.7825 26.8873Z" fill="white"/>
<path d="M62.7849 15.8205H61.4222C60.7408 15.8205 60.2541 16.0919 60.1568 16.7314C60.0984 17.0415 60.04 17.3129 60.0011 17.5842C58.8914 16.2663 57.2951 15.4329 55.251 15.4329C51.0654 15.4329 48.34 18.5532 48.34 23.0496C48.34 27.4684 50.8708 30.7244 54.9979 30.7244C57.0225 30.7244 58.8135 29.8135 60.0595 28.3405C60.0984 28.7475 60.1568 29.1739 60.2347 29.6003C60.3904 30.1429 60.8187 30.3949 61.4611 30.3949H62.746C63.4857 30.3949 63.8946 29.9879 63.8946 29.2514V16.964C63.914 16.2275 63.5247 15.8205 62.7849 15.8205ZM59.7285 23.4178C59.7285 25.7241 58.1322 27.1389 55.9323 27.1389C54.0829 27.1389 52.6034 25.9179 52.6034 23.0302C52.6034 20.1231 54.2581 19.0765 56.0881 19.0765C58.0932 19.0765 59.7285 20.22 59.7285 22.9139V23.4178Z" fill="white"/>
<path d="M11.0011 26.7516H7.34125C5.70597 26.7516 4.9078 26.3834 4.9078 24.329V16.9643C4.9078 16.2084 4.46005 15.8015 3.73975 15.8015H1.77352C1.01429 15.8015 0.605469 16.2084 0.605469 16.9643V22.6235V23.8445V24.9104C0.605469 26.6935 1.15056 28.1083 2.24074 29.0773C3.23359 30.1432 4.63525 30.7053 6.42627 30.7053H7.49699H8.29516H10.9817C11.7409 30.7053 12.1497 30.2983 12.1497 29.5424V27.9144C12.1692 27.1974 11.7604 26.7516 11.0011 26.7516Z" fill="white"/>
<path d="M67.8075 9.71613H67.2429C66.9314 9.71613 66.7562 9.89055 66.7562 10.2394V29.8721C66.7562 30.1822 66.9314 30.3954 67.2429 30.3954H67.8075C68.119 30.3954 68.2942 30.1822 68.2942 29.8721V10.2394C68.3136 9.89055 68.119 9.71613 67.8075 9.71613Z" fill="white"/>
<path d="M83.7319 16.2476H83.4594C83.1479 16.2476 82.9338 16.3639 82.8754 16.674C82.7586 17.2166 82.6807 17.9531 82.6612 18.6896C81.6489 17.0034 79.7021 15.8987 77.3855 15.8987C73.4336 15.8987 70.7081 18.8446 70.7081 23.3216C70.7081 27.7016 73.2584 30.7057 77.2103 30.7057C79.7021 30.7057 81.7073 29.5622 82.7586 27.7598C82.7586 28.5544 82.8559 29.3296 82.9727 29.9304C83.0116 30.2018 83.2258 30.3568 83.5178 30.3568H83.7319C84.0434 30.3568 84.2186 30.163 84.2186 29.8335V16.7709C84.2186 16.4414 84.0045 16.2476 83.7319 16.2476ZM82.6612 24.6782C82.6612 27.1977 80.5587 29.349 77.366 29.349C74.2902 29.349 72.285 27.1008 72.285 23.2441C72.285 19.3873 74.4459 17.3329 77.5607 17.3329C80.5782 17.3329 82.6807 19.426 82.6807 22.1394V24.6782H82.6612Z" fill="white"/>
<path d="M94.0108 15.918C91.5384 15.918 89.5722 17.0227 88.5209 18.8057V10.2394C88.5209 9.90993 88.3457 9.71613 88.0342 9.71613H87.4697C87.1582 9.71613 86.983 9.89055 86.983 10.2394V29.8721C86.983 30.1822 87.1582 30.3954 87.4697 30.3954H87.6838C87.9953 30.3954 88.1705 30.2791 88.2289 29.9691C88.3847 29.3489 88.4431 28.593 88.4431 27.8565C89.4554 29.6008 91.4995 30.7443 93.8745 30.7443C97.7875 30.7443 100.493 27.7596 100.493 23.3602C100.513 18.922 97.9627 15.918 94.0108 15.918ZM93.6993 29.3101C90.6818 29.3101 88.5209 27.217 88.5209 24.5037V21.9648C88.5209 19.4453 90.6234 17.3328 93.855 17.3328C96.9309 17.3328 98.975 19.5809 98.975 23.4377C98.975 27.2945 96.8141 29.3101 93.6993 29.3101Z" fill="white"/>
<path d="M107.677 22.4688C105.088 22.0425 103.608 21.6936 103.608 19.7361C103.608 18.3795 104.679 17.3135 107.249 17.3135C108.884 17.3135 110.052 17.7205 111.162 18.7477C111.278 18.864 111.415 18.864 111.532 18.864C111.648 18.864 111.746 18.8252 111.901 18.709L112.096 18.5345C112.213 18.4182 112.271 18.2632 112.271 18.1663C112.271 18.05 112.232 17.9531 112.096 17.7981C110.948 16.5383 109.351 15.8987 107.249 15.8987C104.037 15.8987 102.109 17.5849 102.109 19.6974C102.109 22.3138 103.686 23.2634 106.82 23.748C109.293 24.1162 111.045 24.6395 111.045 26.6938C111.045 28.4769 109.721 29.3102 107.288 29.3102C105.438 29.3102 103.998 28.8257 102.791 27.7404C102.674 27.6435 102.576 27.5854 102.46 27.5854C102.304 27.5854 102.187 27.6435 102.051 27.7598L101.934 27.9148C101.817 28.0699 101.759 28.1862 101.759 28.3218C101.759 28.4381 101.817 28.535 101.934 28.6513C103.199 29.9692 105.01 30.7057 107.443 30.7057C110.714 30.7057 112.622 29.0777 112.622 26.5969C112.622 24.0193 110.792 23.0309 107.677 22.4688Z" fill="white"/>
<path d="M110.85 35.396H109.819C109.527 35.396 109.351 35.5704 109.351 35.8611V38.9039C109.351 40.028 108.748 40.6482 107.911 40.6482C107.035 40.6482 106.529 40.0668 106.529 38.9814V35.8805C106.529 35.5898 106.353 35.4154 106.061 35.4154H105.03C104.738 35.4154 104.562 35.5898 104.562 35.8805V39.1365C104.562 41.2102 105.633 42.3731 107.249 42.3731C108.222 42.3731 108.981 42.0436 109.507 41.3847L109.604 41.7917C109.663 42.063 109.838 42.1987 110.111 42.1987H110.87C111.162 42.1987 111.337 42.0242 111.337 41.7335V35.8611C111.318 35.5704 111.142 35.396 110.85 35.396Z" fill="white"/>
<path d="M103.667 40.3962H101.817C101.175 40.3962 100.825 40.0668 100.825 39.4078V35.8611C100.825 35.5704 100.649 35.396 100.357 35.396H99.3061C99.0141 35.396 98.8389 35.5704 98.8389 35.8611V39.6791C98.8389 41.249 99.7928 42.1987 101.37 42.1987H103.686C103.978 42.1987 104.154 42.0242 104.154 41.7335V40.8808C104.134 40.5707 103.959 40.3962 103.667 40.3962Z" fill="white"/>
<path d="M73.6478 35.8418C73.6089 35.5317 73.4532 35.396 73.1611 35.396H72.3824C72.1294 35.396 71.9541 35.4929 71.8179 35.7255L69.9101 38.9233L68.1385 35.7255C68.0217 35.5123 67.827 35.396 67.5739 35.396H66.7368C66.4448 35.396 66.2891 35.551 66.2502 35.8418L65.7635 41.7141C65.7245 42.0436 65.8997 42.1987 66.2112 42.1987H67.1457C67.4377 42.1987 67.6129 42.0436 67.6323 41.7529L67.8465 38.4582L68.9756 40.4931C69.0924 40.7063 69.2871 40.8226 69.5402 40.8226H70.1826C70.4357 40.8226 70.6109 40.7257 70.7472 40.4931L72.032 38.3031L72.1878 41.7335C72.2072 42.0436 72.363 42.1793 72.655 42.1793H73.6673C73.9788 42.1793 74.1345 42.0242 74.115 41.6948L73.6478 35.8418Z" fill="white"/>
<path d="M97.4567 35.3957H96.6391C96.3665 35.3957 96.1718 35.5507 96.1329 35.8221L96.094 36.1515C95.6462 35.667 94.9649 35.2213 93.8747 35.2213C92.0252 35.2213 90.6431 36.6748 90.6431 38.7679C90.6431 40.8223 91.9279 42.3534 93.7579 42.3534C94.9064 42.3534 95.6657 41.8689 96.1134 41.365L96.1913 41.772C96.2302 42.0433 96.4055 42.179 96.6975 42.179H97.4762C97.7682 42.179 97.9434 42.0045 97.9434 41.7138V35.8608C97.9239 35.5701 97.7487 35.3957 97.4567 35.3957ZM94.2835 40.6285C93.2322 40.6285 92.5703 39.9114 92.5703 38.7873C92.5703 37.6632 93.2712 36.9268 94.2835 36.9268C95.3347 36.9268 95.9966 37.6439 95.9966 38.7679C95.9966 39.9114 95.2958 40.6285 94.2835 40.6285Z" fill="white"/>
<path d="M89.4555 35.3957H88.6379C88.3653 35.3957 88.1707 35.5507 88.1317 35.8221L88.0928 36.1515C87.645 35.667 86.9637 35.2213 85.8735 35.2213C84.0241 35.2213 82.6419 36.5779 82.6419 38.6904C82.6419 40.6866 83.9073 42.1014 85.7372 42.1014C86.8663 42.1014 87.5477 41.6363 88.0149 41.1324V41.4619C88.0149 42.6441 87.353 43.3806 85.9514 43.3806C85.3673 43.3806 84.8222 43.2643 84.2772 43.0317C84.0046 42.896 83.771 42.9542 83.6347 43.2449L83.3038 43.8845C83.1675 44.1558 83.2064 44.369 83.4595 44.524C84.2382 44.9698 85.1921 45.1442 86.1266 45.1442C88.4432 45.1442 89.9033 43.6907 89.9033 41.6751V35.8608C89.9227 35.5701 89.7475 35.3957 89.4555 35.3957ZM86.2823 40.4153C85.27 40.4153 84.5692 39.737 84.5692 38.6904C84.5692 37.5857 85.2895 36.9268 86.2823 36.9268C87.2946 36.9268 87.9955 37.5276 87.9955 38.6517C87.9955 39.6788 87.2752 40.4153 86.2823 40.4153Z" fill="white"/>
<path d="M81.4544 35.3957H80.6367C80.3642 35.3957 80.1695 35.5507 80.1306 35.8221L80.0916 36.1515C79.6439 35.667 78.9625 35.2213 77.8723 35.2213C76.0229 35.2213 74.6407 36.6748 74.6407 38.7679C74.6407 40.8223 75.9256 42.3534 77.7555 42.3534C78.9041 42.3534 79.6633 41.8689 80.1111 41.365L80.189 41.772C80.2279 42.0433 80.4031 42.179 80.6951 42.179H81.4738C81.7658 42.179 81.9411 42.0045 81.9411 41.7138V35.8608C81.9216 35.5701 81.7464 35.3957 81.4544 35.3957ZM78.2812 40.6285C77.2299 40.6285 76.568 39.9114 76.568 38.7873C76.568 37.6632 77.2688 36.9268 78.2812 36.9268C79.3324 36.9268 79.9943 37.6439 79.9943 38.7679C79.9943 39.9114 79.2935 40.6285 78.2812 40.6285Z" fill="white"/>
</g>
</g>
<defs>
<clipPath id="clip0_221_4489">
<rect width="125.5" height="44.5035" fill="white" transform="translate(0.605469 0.769775)"/>
</clipPath>
<clipPath id="clip1_221_4489">
<rect width="125.352" height="43.7618" fill="white" transform="translate(0.605469 1.36304)"/>
</clipPath>
</defs>
</svg>
