<svg width="119" height="31" viewBox="0 0 119 31" fill="none" xmlns="http://www.w3.org/2000/svg">
<path d="M43.4298 14.7059C43.3663 6.94596 33.7551 0.704165 21.9486 0.704165H21.6682C17.8462 0.702605 14.0581 1.42039 10.5017 2.82003C4.52439 5.20567 0.451352 9.43738 0.16571 14.288C0.16571 14.4256 0.16571 14.5578 0.16571 14.6901C0.16571 14.8222 0.16571 14.8117 0.16571 14.8699V14.9334C0.16571 14.9704 0.16571 15.0127 0.16571 15.0497V15.695C0.16571 15.695 0.16571 15.748 0.16571 15.7797V15.8749C0.16571 15.986 0.16571 16.097 0.16571 16.2029C0.16571 16.3087 0.16571 16.4038 0.16571 16.4991C0.398455 20.3658 2.49316 23.8729 6.11658 26.4384C10.0573 29.226 15.4 30.6701 21.5782 30.6701H21.9115C28.2591 30.6172 33.7074 29.0567 37.6588 26.158C41.4145 23.3968 43.4774 19.6094 43.4351 15.494L43.4298 14.7059Z" fill="#8D8D99"/>
<path d="M19.669 20.7414C19.8625 20.6606 20.0681 20.6124 20.2774 20.5986C20.5063 20.5563 20.7417 20.5649 20.967 20.6237C21.1923 20.6826 21.4018 20.7903 21.5808 20.9392C21.7598 21.0882 21.9038 21.2746 22.0027 21.4854C22.1015 21.6962 22.1527 21.9263 22.1527 22.1591C22.1527 22.3919 22.1015 22.6219 22.0027 22.8327C21.9038 23.0435 21.7598 23.23 21.5808 23.3789C21.4018 23.5279 21.1923 23.6356 20.967 23.6944C20.7417 23.7532 20.5063 23.7618 20.2774 23.7195C19.8775 23.7226 19.492 23.5706 19.202 23.2954C18.9119 23.0201 18.7399 22.6432 18.7222 22.2437C18.7222 21.8893 18.5158 21.8364 18.4048 21.8364C18.3487 21.84 18.2941 21.855 18.2441 21.8804C18.1941 21.9059 18.1497 21.9413 18.1139 21.9845C17.9261 22.1859 17.6691 22.3087 17.3945 22.3283C17.2232 22.3279 17.0539 22.2918 16.8972 22.2225C16.6299 22.1517 16.3977 21.9858 16.2439 21.756C16.0901 21.5262 16.0252 21.2483 16.0615 20.9742C16.0754 20.9201 16.076 20.8633 16.063 20.809C16.0501 20.7546 16.0242 20.7042 15.9874 20.6621C15.9382 20.6182 15.8778 20.5889 15.8129 20.5775C15.7628 20.5714 15.712 20.5758 15.6638 20.5904C15.6156 20.605 15.5709 20.6294 15.5325 20.6621C15.3131 20.8498 15.0456 20.9726 14.7602 21.0165C14.6215 21.012 14.4843 20.987 14.3529 20.9425C13.9758 20.8237 13.6555 20.5707 13.4526 20.2313C13.2498 19.892 13.1786 19.49 13.2526 19.1017C13.2684 19.0471 13.2672 18.9891 13.2493 18.9353C13.2313 18.8814 13.1974 18.8343 13.1521 18.8002C13.0146 18.7155 12.8824 18.8425 12.7977 18.9271C12.7019 19.0211 12.5859 19.092 12.4584 19.1342C12.3309 19.1764 12.1955 19.1887 12.0625 19.1704C11.7442 19.1476 11.4454 19.009 11.2223 18.781C10.9991 18.553 10.8671 18.2513 10.8511 17.9326C10.8497 17.777 10.879 17.6227 10.9373 17.4784C10.9956 17.3341 11.0817 17.2027 11.1907 17.0917C11.2998 16.9806 11.4296 16.8923 11.5728 16.8314C11.7161 16.7706 11.8699 16.7386 12.0254 16.7372C12.2982 16.7022 12.574 16.7716 12.7977 16.9315C13.0214 17.0915 13.1763 17.33 13.2315 17.5994C13.2315 17.5994 13.2315 17.647 13.2315 17.6734C13.2315 17.6998 13.2632 17.9115 13.3849 17.9485C13.5066 17.9855 13.6071 17.8639 13.6652 17.7739C13.6762 17.7525 13.6905 17.7328 13.7076 17.7157L13.7446 17.6682C13.8923 17.4552 14.0959 17.2873 14.333 17.1828C14.5701 17.0782 14.8314 17.0412 15.0882 17.0757C15.2671 17.0799 15.4448 17.1066 15.6171 17.155C15.8679 17.2443 16.0825 17.413 16.2286 17.6354C16.3747 17.858 16.4442 18.122 16.4264 18.3875C16.425 18.4652 16.4542 18.5403 16.5076 18.5967C16.561 18.6531 16.6344 18.6863 16.7121 18.689C16.7599 18.6855 16.8066 18.6725 16.8492 18.6507C16.8919 18.6289 16.9298 18.5988 16.9607 18.5621C17.0728 18.4238 17.2116 18.3094 17.3688 18.2258C17.526 18.1422 17.6984 18.091 17.8758 18.0755C18.1076 18.0774 18.3365 18.1279 18.5476 18.2235C19.6848 18.6996 19.1718 20.1543 19.1665 20.1702C19.0977 20.3394 18.9867 20.6251 19.2247 20.7785L19.2723 20.8049H19.3675C19.455 20.7978 19.5408 20.7763 19.6214 20.7414H19.669Z" fill="white"/>
<path d="M42.2554 13.0291C39.2177 13.7379 36.2531 14.7296 33.4005 15.9913C31.3534 14.2351 26.6191 10.1727 25.3391 9.24703C24.826 8.82508 24.2446 8.4941 23.6199 8.26842C23.341 8.18098 23.0499 8.13814 22.7577 8.14146C22.3977 8.15314 22.0413 8.21729 21.6998 8.33189C20.7878 8.71457 19.9486 9.25137 19.2189 9.91877L19.1713 9.95584C18.4466 10.543 17.7008 11.146 17.1506 11.273C16.9063 11.3315 16.656 11.3617 16.4048 11.3629C15.9333 11.3993 15.4648 11.262 15.0876 10.9767C15.1026 10.944 15.1222 10.9138 15.1458 10.8868L16.9285 8.92966C18.3091 7.52786 19.6103 6.20545 22.6254 6.11023H22.7736C24.1481 6.14881 25.5017 6.45798 26.7567 7.02005C28.4909 7.86264 30.3933 8.30207 32.3214 8.30545C34.3869 8.2567 36.4172 7.7604 38.2723 6.85079C40.3246 8.62282 41.7529 10.7281 42.2554 13.0291Z" fill="white"/>
<path d="M21.6787 1.66694H21.9485C24.7989 1.65865 27.6367 2.04675 30.3802 2.82008L30.5601 2.87298L30.9303 2.98935C33.1894 3.68332 35.3233 4.7333 37.2515 6.09967C35.6838 6.8028 33.9915 7.18585 32.2739 7.22637H32.2051C30.4663 7.21453 28.7523 6.81136 27.1905 6.04678C25.803 5.42678 24.3084 5.08186 22.7895 5.03116H22.5568C20.7168 5.01952 18.933 5.66475 17.5263 6.85081C16.6789 6.90598 15.8419 7.06769 15.0349 7.33216C14.4832 7.52226 13.9086 7.6379 13.3263 7.67599H12.7339H12.6334C10.5487 7.32751 8.50142 6.78381 6.51855 6.05207C10.4223 3.28557 15.9236 1.69868 21.6787 1.66694Z" fill="#505059"/>
<path d="M5.53975 6.79254C8.27979 7.8875 11.4536 8.66509 12.4163 8.71798H12.6279C12.8501 8.71798 13.0775 8.71798 13.3049 8.74443C13.9912 8.70753 14.6691 8.57762 15.3203 8.35828C15.5901 8.27894 15.8493 8.20488 16.1191 8.13611L16.0821 8.17843L14.273 10.1674C14.1171 10.3112 14.008 10.4985 13.9599 10.7051C13.9118 10.9116 13.9268 11.1279 14.0032 11.3258C14.1175 11.5695 14.3016 11.7739 14.5322 11.9129C15.1472 12.2612 15.8464 12.4333 16.5528 12.4102C16.8234 12.4108 17.0931 12.3806 17.3569 12.3202C18.145 12.1351 18.9437 11.4845 19.8165 10.7862C20.5028 10.1816 21.2884 9.70024 22.1387 9.36331C22.3442 9.30864 22.5555 9.27845 22.7682 9.27337H22.9268C23.5741 9.37763 24.179 9.66178 24.6725 10.0933C26.106 11.1513 32.2314 16.4409 32.9402 17.0227C33.057 17.1334 33.1493 17.2673 33.2112 17.4158C33.2732 17.5643 33.3034 17.7241 33.2999 17.885C33.2879 18.0383 33.2394 18.1864 33.1584 18.3171C33.0774 18.4478 32.9663 18.5571 32.8344 18.6361C32.5982 18.7967 32.3211 18.8866 32.0357 18.8953C31.7968 18.8949 31.5626 18.829 31.3586 18.7048L31.1893 18.5567C30.6233 18.0278 28.9042 16.5097 28.1954 15.9119C28.07 15.7756 27.8985 15.6907 27.714 15.6738C27.6611 15.6733 27.6087 15.6849 27.561 15.7078C27.5133 15.7307 27.4715 15.7644 27.439 15.8061C27.2803 16.0071 27.3649 16.2875 27.6453 16.5202L30.3324 19.165C30.506 19.3325 30.6209 19.5513 30.6603 19.7892C30.6703 19.9909 30.6223 20.1913 30.5219 20.3666C30.4217 20.5418 30.2733 20.6848 30.0944 20.7784C29.8413 20.9622 29.5394 21.0671 29.2268 21.0799C28.9946 21.0801 28.767 21.014 28.571 20.8895L28.1583 20.4928C27.4654 19.821 26.746 19.128 26.217 18.6943C26.0889 18.5655 25.9212 18.4835 25.741 18.4615C25.691 18.4605 25.6416 18.4705 25.5959 18.4906C25.5502 18.5107 25.5095 18.5405 25.4765 18.5779C25.4024 18.6625 25.3072 18.853 25.5188 19.1068C25.5624 19.1633 25.6101 19.2163 25.6616 19.2656L27.6188 21.429C27.7143 21.5305 27.7713 21.6622 27.78 21.8013C27.7887 21.9403 27.7485 22.0782 27.6664 22.1908L27.6082 22.2701C27.55 22.3336 27.4918 22.3865 27.439 22.4341C27.1904 22.6197 26.8868 22.7165 26.5767 22.7091C26.4976 22.7176 26.4179 22.7176 26.3387 22.7091C26.1165 22.6721 26.053 22.6192 26.0319 22.5928L25.9684 22.5293C25.4134 21.9494 24.8271 21.4002 24.2123 20.8842C24.0909 20.7588 23.9304 20.6786 23.7573 20.6567C23.7061 20.6583 23.6557 20.6705 23.6093 20.6923C23.5629 20.7142 23.5215 20.7453 23.4876 20.7837C23.3236 20.9635 23.3977 21.2333 23.6727 21.4925L25.1485 23.1323C25.1115 23.1905 24.9475 23.3703 24.3815 23.4444C24.3093 23.4496 24.2368 23.4496 24.1647 23.4444C23.6615 23.4166 23.1705 23.2794 22.7258 23.0424C22.8529 22.7281 22.9176 22.3922 22.9163 22.0532C22.9094 21.3716 22.636 20.7198 22.1545 20.2374C21.673 19.7549 21.0218 19.4801 20.3402 19.4718C20.3685 19.0082 20.2531 18.5472 20.0098 18.1515C19.7665 17.7559 19.4072 17.4448 18.9808 17.2608C18.6467 17.1158 18.2871 17.0385 17.9229 17.0334C17.6874 17.0328 17.4534 17.0703 17.2299 17.1444C16.9517 16.6771 16.5111 16.3287 15.9921 16.1659C15.6942 16.0564 15.3783 16.0043 15.0611 16.0124C14.5792 16.0099 14.1075 16.1517 13.707 16.4197C13.5009 16.1907 13.2487 16.0078 12.9671 15.8829C12.6854 15.7581 12.3806 15.6941 12.0725 15.695C11.5235 15.6974 10.9952 15.905 10.5914 16.2769C9.96189 15.8325 7.85663 14.6054 2.57226 13.4522C2.33422 13.3993 1.81584 13.2565 1.38208 13.1349C1.82642 10.8286 3.27578 8.63864 5.53975 6.79254Z" fill="white"/>
<path d="M42.4353 15.5576C42.4353 15.7304 42.4141 15.9068 42.3718 16.0866C41.9063 19.0858 39.8698 21.9052 36.5108 24.0687C32.623 26.6024 27.4338 28.0253 21.9061 28.073H21.6258C10.343 28.073 1.16537 22.2544 1.10718 15.034C1.10718 14.8065 1.10718 14.5526 1.13891 14.2723L2.28677 14.5367C7.4918 15.6476 9.43838 16.8219 9.925 17.1816C9.838 17.4241 9.79504 17.6803 9.79807 17.9379C9.80224 18.5259 10.0388 19.0882 10.4559 19.5025C10.8731 19.9166 11.4371 20.1491 12.0251 20.1491C12.1254 20.1569 12.2262 20.1569 12.3266 20.1491C12.4316 20.5598 12.6369 20.9381 12.924 21.2501C13.2111 21.5621 13.571 21.7981 13.9716 21.9369C14.3516 22.0868 14.7668 22.1236 15.1671 22.0427C15.4436 22.5933 15.9236 23.0144 16.5054 23.217C16.7886 23.3279 17.0899 23.3853 17.394 23.3863C17.5743 23.3743 17.7521 23.3387 17.923 23.2806C18.1339 23.7235 18.4658 24.0977 18.8806 24.3598C19.2952 24.622 19.7757 24.7613 20.2663 24.7616C20.9337 24.751 21.5724 24.4883 22.0542 24.0264C22.6914 24.3718 23.3984 24.5689 24.1224 24.6029C24.2341 24.6024 24.3455 24.5936 24.4557 24.5765C24.7459 24.5664 25.0305 24.4936 25.2898 24.363C25.5491 24.2324 25.7771 24.0471 25.958 23.82L26.0056 23.7513C26.2027 23.8015 26.4052 23.8282 26.6086 23.8307C27.1277 23.8132 27.6271 23.6276 28.0316 23.3017C28.4264 23.0259 28.717 22.6253 28.8568 22.1644H29.2006C29.7218 22.1526 30.2278 21.9869 30.6553 21.6884C30.9628 21.5083 31.2207 21.2545 31.4055 20.9496C31.5902 20.6448 31.6959 20.2987 31.7132 19.9427C31.8224 19.9507 31.9319 19.9507 32.0411 19.9427C32.5285 19.9339 33.0027 19.7832 33.4059 19.509C33.6783 19.3382 33.9066 19.1054 34.072 18.8297C34.2375 18.5539 34.3355 18.2429 34.358 17.9221C34.3826 17.5302 34.3003 17.1389 34.1199 16.7901C36.801 15.6896 39.5656 14.8051 42.3877 14.1453C42.3877 14.378 42.43 14.6055 42.43 14.8435C42.43 15.0816 42.4511 15.3354 42.4353 15.5576Z" fill="#505059"/>
<path d="M116.84 5.88798C116.064 4.91469 114.883 4.42804 113.296 4.42804C111.709 4.42804 110.528 4.91469 109.752 5.88798C108.994 6.88496 108.584 8.10291 108.584 9.35534C108.584 10.6078 108.994 11.8257 109.752 12.8227C110.528 13.7819 111.709 14.2615 113.296 14.2615C114.883 14.2615 116.064 13.7766 116.84 12.8069C117.598 11.8099 118.008 10.5919 118.008 9.33946C118.008 8.08704 117.598 6.8691 116.84 5.87212V5.88798ZM114.915 11.4845C114.713 11.72 114.464 11.9091 114.182 12.0388C113.901 12.1685 113.595 12.2357 113.285 12.2357C112.976 12.2357 112.67 12.1685 112.388 12.0388C112.107 11.9091 111.857 11.72 111.656 11.4845C111.285 10.8343 111.09 10.0987 111.09 9.3501C111.09 8.60148 111.285 7.86583 111.656 7.21568C111.857 6.98014 112.107 6.79101 112.388 6.66133C112.67 6.53164 112.976 6.46447 113.285 6.46447C113.595 6.46447 113.901 6.53164 114.182 6.66133C114.464 6.79101 114.713 6.98014 114.915 7.21568C115.285 7.86583 115.481 8.60148 115.481 9.3501C115.481 10.0987 115.285 10.8343 114.915 11.4845Z" fill="white"/>
<path d="M96.919 5.07332C96.0777 4.65922 95.1488 4.45246 94.211 4.4703C92.6241 4.4703 91.5659 4.8776 90.8998 5.69221C90.4767 6.27507 90.2385 6.9718 90.2172 7.6917H92.5554C92.5914 7.38215 92.71 7.08803 92.8991 6.84006C93.0611 6.685 93.2543 6.56686 93.4662 6.4938C93.6782 6.42074 93.9033 6.3945 94.1259 6.41689C94.531 6.39269 94.9361 6.46711 95.306 6.63377C95.4394 6.71278 95.5482 6.82848 95.6186 6.96721C95.689 7.10593 95.7184 7.26188 95.7029 7.41663C95.7004 7.57298 95.6481 7.72443 95.5523 7.84837C95.4574 7.9723 95.324 8.06208 95.1734 8.10429C94.8616 8.21787 94.5359 8.28903 94.2052 8.31587L93.3754 8.42167C92.6388 8.48537 91.9211 8.68631 91.259 9.0141C90.8286 9.26003 90.4758 9.622 90.241 10.0588C90.0061 10.4956 89.8989 10.9895 89.9316 11.4844C89.9095 11.8638 89.9717 12.2434 90.1149 12.5957C90.2573 12.9479 90.4766 13.264 90.7565 13.5209C91.3564 13.9992 92.1052 14.2518 92.8729 14.235C98.1622 14.473 98.0934 11.4527 98.1622 10.8232V7.34786C98.1041 6.23704 97.7129 5.47534 96.919 5.07332ZM95.6972 10.363C95.7258 10.6774 95.6767 10.994 95.5548 11.2852C95.4336 11.5765 95.2421 11.8336 94.9991 12.0345C94.5719 12.3357 94.062 12.4965 93.5391 12.4947C93.2338 12.5018 92.9351 12.4048 92.6929 12.2197C92.5676 12.1082 92.4703 11.9685 92.4097 11.8121C92.3491 11.6558 92.3262 11.4873 92.3434 11.3204C92.3336 11.113 92.3819 10.907 92.4825 10.7256C92.5832 10.5442 92.733 10.3948 92.9146 10.2942C93.2657 10.1281 93.6406 10.0174 94.026 9.96622L94.5547 9.86048C94.7757 9.82496 94.9934 9.77013 95.2053 9.69647C95.369 9.63395 95.5269 9.55604 95.6759 9.46372L95.6972 10.363Z" fill="white"/>
<path d="M84.8796 6.54397C85.1301 6.52451 85.3813 6.56471 85.6129 6.66126C85.8453 6.75782 86.0508 6.90797 86.2128 7.09938C86.4084 7.37528 86.5336 7.69491 86.5778 8.03036H89.186C89.0428 6.71852 88.5829 5.79812 87.8054 5.27974C86.9052 4.727 85.8609 4.45618 84.806 4.50216C84.1816 4.4679 83.5571 4.56825 82.9744 4.79641C82.3926 5.02457 81.866 5.37521 81.4311 5.82457C80.5613 6.85498 80.1236 8.18167 80.2092 9.52731C80.1522 10.7642 80.5449 11.9799 81.3147 12.9497C82.0554 13.8331 83.2028 14.2722 84.7692 14.2722C85.4452 14.3151 86.1211 14.193 86.739 13.9167C87.3577 13.6402 87.8995 13.2176 88.3185 12.6852C88.794 12.0867 89.0845 11.3624 89.1541 10.6011H86.5622C86.5287 11.0327 86.3683 11.445 86.1015 11.786C85.9386 11.9529 85.739 12.0805 85.5196 12.1593C85.2995 12.2381 85.0646 12.2661 84.8322 12.2409C84.4598 12.2661 84.0899 12.1671 83.7797 11.9594C83.4695 11.7517 83.2371 11.447 83.1185 11.0931C82.931 10.5712 82.8443 10.0182 82.8648 9.46388C82.8443 8.88362 82.9302 8.30457 83.1185 7.7553C83.2363 7.38671 83.4728 7.06771 83.792 6.84844C84.1112 6.62918 84.4934 6.52208 84.8796 6.54397Z" fill="white"/>
<path d="M79.5108 4.5022C74.1577 4.5022 74.4751 9.26288 74.4751 9.26288V14.0765H76.903V9.55914C76.8692 8.99871 76.9633 8.43799 77.1781 7.91932C77.5166 7.28456 78.162 6.96718 79.1352 6.96718H79.4262C79.5425 6.96718 79.6748 6.96717 79.8335 7.00421V4.52865H79.6219L79.5108 4.5022Z" fill="white"/>
<path d="M70.5868 11.5374C70.4939 11.6762 70.3817 11.8009 70.2536 11.9078C69.8553 12.1809 69.3756 12.3098 68.8941 12.2727C68.443 12.2997 67.9941 12.193 67.6034 11.9659C67.2871 11.7559 67.0304 11.468 66.8581 11.1297C66.6857 10.7915 66.6035 10.4144 66.6195 10.0352H73.3427C73.3611 9.42386 73.3328 8.812 73.258 8.20496C73.163 7.52039 72.9114 6.86694 72.5228 6.29539C72.1321 5.70083 71.5822 5.22797 70.9359 4.93066C70.2512 4.63669 69.5122 4.49068 68.7671 4.5022C68.1586 4.47766 67.5515 4.57864 66.9836 4.79887C66.4157 5.01909 65.8993 5.35385 65.4664 5.7823C64.62 6.63393 64.1969 7.85585 64.1969 9.45864C64.1969 11.1619 64.6659 12.3962 65.604 13.1614C66.5189 13.9109 67.6691 14.3136 68.8517 14.2987C69.4939 14.3362 70.1365 14.2351 70.7362 14.0023C71.3358 13.7696 71.8784 13.4107 72.327 12.9498C72.722 12.5616 73.0115 12.0791 73.1681 11.548L70.5868 11.5374ZM67.3231 7.01479C67.5135 6.83227 67.7396 6.69107 67.9872 6.60004C68.2348 6.50902 68.4985 6.47014 68.7619 6.48583C69.2848 6.46865 69.7954 6.64579 70.1954 6.98306C70.3951 7.16948 70.5548 7.39456 70.6648 7.64463C70.7749 7.89469 70.8329 8.16452 70.8354 8.43771H66.6777C66.7369 7.90707 66.9628 7.40887 67.3231 7.01479Z" fill="white"/>
<path d="M63.2135 14.0552H60.9972V8.46932C61.022 8.24496 60.9978 8.01786 60.9261 7.80381C60.8544 7.58976 60.737 7.39388 60.5819 7.2298C60.4269 7.06571 60.238 6.93734 60.0283 6.8536C59.8188 6.76986 59.5934 6.73276 59.368 6.74489C59.1415 6.73794 58.9162 6.77814 58.7062 6.8629C58.4961 6.94767 58.306 7.07517 58.1478 7.23731C57.9896 7.39945 57.8669 7.59269 57.7873 7.80478C57.7079 8.01687 57.6733 8.24317 57.6859 8.46932V14.0552H55.4801V8.46932C55.5066 8.246 55.4839 8.01958 55.4138 7.8059C55.3437 7.59221 55.2277 7.39641 55.0741 7.23218C54.9204 7.06795 54.7328 6.93926 54.5243 6.85509C54.3157 6.77093 54.0913 6.73331 53.8667 6.74489C53.6399 6.73632 53.4138 6.77539 53.203 6.85959C52.9921 6.94379 52.8014 7.07124 52.6429 7.23373C52.4843 7.39622 52.3617 7.59013 52.2828 7.80295C52.2038 8.01577 52.1704 8.24279 52.1846 8.46932V14.0552H49.963V8.52222C49.963 6.21593 51.4916 4.47035 53.8667 4.47035C54.3942 4.4569 54.9176 4.56598 55.3958 4.78902C55.8739 5.01206 56.2939 5.34296 56.6226 5.75573C56.9579 5.34913 57.3799 5.02267 57.8576 4.80026C58.3353 4.57786 58.8568 4.46513 59.3839 4.47035C61.8012 4.47035 63.2294 6.14187 63.2294 8.52222L63.2135 14.0552Z" fill="white"/>
<path d="M107.847 1.58219C107.847 1.58219 105.403 1.323 105.403 3.29075V5.88798C105.144 5.46405 104.78 5.11424 104.346 4.87236C103.89 4.61913 103.375 4.49137 102.854 4.50209C102.297 4.48259 101.743 4.5951 101.237 4.83043C100.731 5.06576 100.288 5.41725 99.9446 5.85624C99.177 6.96018 98.8038 8.29091 98.8865 9.63307C98.8341 10.8499 99.2269 12.0442 99.9921 12.992C100.728 13.8648 102.171 14.2456 103.451 14.2456C107.926 14.2456 107.874 10.4106 107.874 10.4106L107.847 1.58219ZM104.938 11.5056C104.762 11.7587 104.523 11.9618 104.244 12.0953C103.967 12.2288 103.659 12.288 103.351 12.2673C103.051 12.2856 102.752 12.2243 102.483 12.0896C102.215 11.9549 101.987 11.7516 101.823 11.5003C101.459 10.8567 101.284 10.123 101.32 9.38445C101.296 8.68966 101.468 8.00224 101.817 7.40082C101.978 7.13821 102.207 6.92448 102.48 6.78276C102.753 6.64104 103.06 6.57673 103.367 6.59679C103.815 6.59035 104.249 6.74846 104.589 7.04112C105.16 7.52248 105.441 8.39527 105.441 9.52194C105.479 10.2204 105.3 10.9137 104.928 11.5056H104.938Z" fill="white"/>
<path d="M64.6043 18.8318H66.4346L63.1285 28.1787H60.6371L57.3628 18.8318H59.9653L61.8273 25.407L63.4829 19.6835C63.5398 19.4324 63.6834 19.2093 63.8885 19.0536C64.0936 18.8977 64.3471 18.8193 64.6043 18.8318ZM71.6395 18.5833H71.8458V21.08L71.4385 21.0482C71.3169 21.0482 71.2217 21.0482 71.1476 21.0482C70.169 21.0482 69.5078 21.3656 69.1745 22.0057C68.9529 22.53 68.8552 23.0984 68.8889 23.6667V28.1469H66.4398V23.3863C66.4398 23.3863 66.1171 18.5991 71.5231 18.5991L71.6395 18.5833ZM81.1979 22.286C81.1005 21.6021 80.8491 20.9491 80.4627 20.3765C80.076 19.7784 79.525 19.3045 78.8758 19.0117C78.1923 18.7134 77.4527 18.5655 76.707 18.578C76.0979 18.5549 75.4904 18.6565 74.9218 18.8767C74.3533 19.0968 73.8358 19.4307 73.401 19.8581C72.5546 20.715 72.1315 21.9369 72.1315 23.5608C72.1315 25.2641 72.6023 26.5019 73.5385 27.2636C74.4561 28.0123 75.6075 28.4148 76.7917 28.4009C77.4338 28.4387 78.0766 28.3378 78.6763 28.105C79.2759 27.8723 79.8185 27.5132 80.267 27.052C80.6602 26.6616 80.9509 26.1801 81.1133 25.6503H78.5319C78.4391 25.7874 78.3268 25.9103 78.1987 26.0153C77.7989 26.2995 77.3128 26.436 76.8234 26.4014C76.3706 26.4285 75.92 26.3218 75.5275 26.0946C75.213 25.8792 74.9593 25.5864 74.7907 25.2446C74.6221 24.9028 74.5443 24.5233 74.5647 24.1427H81.2879C81.3047 23.526 81.2747 22.9088 81.1979 22.2966V22.286ZM74.6123 22.7621C74.6675 22.2283 74.8917 21.726 75.2524 21.3286C75.4442 21.1464 75.6712 21.0056 75.9196 20.9146C76.168 20.8236 76.4323 20.7844 76.6964 20.7997C77.2193 20.7825 77.73 20.9596 78.1299 21.2968C78.3298 21.4843 78.4896 21.7103 78.5996 21.9612C78.7096 22.2121 78.7675 22.4829 78.77 22.7568L74.6123 22.7621ZM52.1947 15.5629V28.1469H49.8885V17.3349C49.8885 15.4782 52.1947 15.5734 52.1947 15.5734V15.5629ZM54.0831 18.8213H56.5376V28.1469H54.0726L54.0831 18.8213ZM54.0831 15.7851H56.5376V18.2235H54.0779L54.0831 15.7851Z" fill="white"/>
</svg>
