<svg width="60" height="21" viewBox="0 0 60 21" fill="none" xmlns="http://www.w3.org/2000/svg">
<g clip-path="url(#clip0_210_4452)">
<path d="M4.00158 9.04352L3.96804 19.8181H3.45076L2.722 19.8124C2.14679 19.7695 1.60917 19.5133 1.21673 19.0951C0.824292 18.6769 0.605976 18.1275 0.605469 17.5569V8.53935C0.605469 4.7143 2.95941 2.75159 7.63375 2.75159C8.01378 2.75159 10.2555 2.76264 10.5966 2.78431V5.69213C10.31 5.66073 8.11437 5.64525 7.76832 5.64525C5.11171 5.64525 4.03511 6.67658 4.00158 9.04352Z" fill="white"/>
<path fill-rule="evenodd" clip-rule="evenodd" d="M25.8219 16.9477V5.80297H28.943C30.1949 5.80297 31.0323 6.15899 31.6591 6.84669C32.3382 7.6056 32.4424 8.73998 32.4424 11.3015C32.4424 13.863 32.3382 15.1394 31.6591 15.9009C31.0332 16.5886 30.1958 16.9442 28.943 16.9442H25.8693V16.9482L25.8219 16.9477ZM25.1722 2.93054H22.3949V19.8184H29.146C31.0783 19.8184 32.8282 19.32 34.0555 18.2055C36.1448 16.3078 35.936 13.8409 35.936 11.3033C35.936 8.76563 36.1448 6.44115 34.0555 4.54344C32.8296 3.42896 31.081 2.93054 29.1473 2.93054H25.1722Z" fill="white"/>
<path d="M41.4535 19.8184V2.93054H40.976C40.934 2.93408 40.4972 2.93452 40.0032 2.93364C39.4172 2.96367 38.8653 3.21505 38.4613 3.6359C38.0574 4.05676 37.8321 4.61496 37.8321 5.19532H37.8267C37.8267 5.23954 37.8267 5.28377 37.8218 5.33021V19.8184H41.4535Z" fill="white"/>
<path fill-rule="evenodd" clip-rule="evenodd" d="M20.5797 19.8159V8.53849C20.5797 4.71345 18.2258 2.75073 13.5515 2.75073C13.2702 2.75073 12.6716 2.75692 12.4118 2.76886V5.66695C12.6229 5.65191 13.1764 5.64439 13.4169 5.64439C16.0735 5.64439 17.1497 6.67573 17.1497 8.80473V10.0028H12.6434C8.74254 10.0028 6.75925 12.0318 6.75925 14.8596C6.75925 16.2899 7.23003 17.587 8.10455 18.4861C9.14716 19.5174 10.5591 20.022 12.6778 20.022C14.7729 20.022 16.0038 19.4728 17.2342 18.2703C17.3802 18.7046 17.6558 19.0849 18.0247 19.3613C18.3936 19.6376 18.8384 19.7969 19.3006 19.8182H20.5806L20.5797 19.8159ZM7.44151 5.1672V5.18887L7.43078 5.17914L7.44151 5.1672ZM17.1497 13.7283C17.1497 14.926 16.9145 15.7242 16.4097 16.2231C15.5021 17.0881 14.5266 17.1881 13.2152 17.1881C11.063 17.1881 10.0878 16.323 10.0878 14.7933C10.0878 13.2635 11.13 12.3644 13.1477 12.3644H17.1497V13.7283Z" fill="white"/>
<path fill-rule="evenodd" clip-rule="evenodd" d="M46.8598 8.35389L47.2595 9.04513C47.6945 9.92654 48.0566 11.5607 46.934 13.308L42.7689 19.7897H47.1084L50.6234 13.8829L54.1143 19.7897H58.502L47.5304 2.93054H43.2321L46.8598 8.35389Z" fill="white"/>
<path fill-rule="evenodd" clip-rule="evenodd" d="M51.8033 6.12474L54.0217 2.54957L54.3951 1.94766C54.911 1.21131 55.9581 0.136197 58.0406 0.0658788C58.1953 0.0609641 58.3495 0.0469345 58.5025 0.0238647H59.6055L53.8688 9.2267L51.8033 6.12474Z" fill="white"/>
</g>
<defs>
<clipPath id="clip0_210_4452">
<rect width="59" height="20" fill="white" transform="translate(0.605469 0.0214844)"/>
</clipPath>
</defs>
</svg>
