<svg width="142" height="17" viewBox="0 0 142 17" fill="none" xmlns="http://www.w3.org/2000/svg">
<g clip-path="url(#clip0_210_4394)">
<path d="M50.1919 2.79613C51.8405 2.86253 53.3983 3.57046 54.5342 4.76945L56.2696 3.18694C55.4347 2.37068 54.4665 1.70354 53.407 1.21441C52.3852 0.797801 51.2942 0.577732 50.1911 0.565707C49.0811 0.562632 47.9809 0.774467 46.9512 1.18958C45.7358 1.68013 44.6612 2.46559 43.8239 3.47533C42.9867 4.48507 42.413 5.68744 42.1545 6.97435C41.896 8.26125 41.9608 9.59235 42.3431 10.848C42.7253 12.1036 43.413 13.2443 44.3444 14.1676C45.089 14.9213 45.9749 15.52 46.9512 15.9296C47.9781 16.3569 49.0791 16.5771 50.1911 16.5774C51.2953 16.5768 52.3884 16.3566 53.407 15.9296C54.4673 15.429 55.4352 14.752 56.2696 13.9274L54.4734 12.3769C53.3601 13.5734 51.8209 14.2819 50.1895 14.3486C48.6605 14.3486 47.1941 13.7401 46.1129 12.6569C45.0317 11.5737 44.4243 10.1046 44.4243 8.57278C44.4243 7.04093 45.0317 5.57182 46.1129 4.48863C47.1941 3.40545 48.6605 2.79692 50.1895 2.79692L50.1919 2.79613Z" fill="white"/>
<path d="M20.6896 0.565674H18.2003V16.5806H20.6896V0.565674Z" fill="white"/>
<path d="M31.9003 0.570564L24.5108 16.5807H27.2287L28.8555 13.0249L36.2098 13.0128L37.8198 16.5807H40.5377L33.1458 0.563354L31.9003 0.570564ZM29.8435 10.7928L32.5294 4.90085L35.2106 10.7888L29.8435 10.7928Z" fill="white"/>
<path d="M13.4776 5.03168C13.4776 2.56501 11.2497 0.56604 8.47103 0.56604H0.74176V16.5834H3.23105V9.47169H5.48692C5.89387 9.47083 6.2952 9.56687 6.65782 9.75193C7.02043 9.93699 7.33395 10.2057 7.57252 10.536L11.5087 16.5834H14.3737L9.65732 9.36758C10.6889 9.18257 11.6278 8.6535 12.3214 7.86634C13.0149 7.07918 13.4224 6.08018 13.4776 5.03168ZM3.23105 7.23327V2.79406H8.52699C8.83975 2.76208 9.15574 2.79671 9.45421 2.89568C9.75267 2.99464 10.0269 3.15571 10.2589 3.36832C10.4908 3.58092 10.6753 3.84026 10.8002 4.12931C10.9251 4.41837 10.9876 4.7306 10.9835 5.04555C10.9795 5.3605 10.9091 5.67104 10.7768 5.95679C10.6446 6.24255 10.4535 6.49705 10.2162 6.70363C9.97888 6.91021 9.70064 7.0642 9.39974 7.15548C9.09884 7.24675 8.78208 7.27327 8.47023 7.23327H3.23105Z" fill="white"/>
<path d="M113.361 12.1175V0.565002H110.869V12.1175C110.869 14.5834 113.1 16.5816 115.82 16.5816H122.911V14.3495H115.82C115.512 14.3654 115.204 14.3202 114.914 14.2165C114.623 14.1127 114.356 13.9526 114.128 13.7452C113.899 13.5378 113.714 13.2873 113.582 13.008C113.451 12.7287 113.376 12.426 113.361 12.1175Z" fill="white"/>
<path d="M133.503 0.565002C131.383 0.565002 129.35 1.40878 127.85 2.9107C126.351 4.41261 125.509 6.44965 125.509 8.57368C125.509 10.6977 126.351 12.7348 127.85 14.2367C129.35 15.7386 131.383 16.5824 133.503 16.5824C135.623 16.5824 137.656 15.7386 139.156 14.2367C140.655 12.7348 141.497 10.6977 141.497 8.57368C141.497 6.44965 140.655 4.41261 139.156 2.9107C137.656 1.40878 135.623 0.565002 133.503 0.565002ZM133.503 14.3479C132.36 14.3605 131.24 14.0327 130.284 13.4061C129.328 12.7796 128.579 11.8825 128.132 10.8289C127.686 9.77518 127.562 8.61237 127.776 7.48801C127.991 6.36364 128.533 5.32843 129.336 4.51374C130.139 3.69905 131.165 3.14161 132.284 2.91219C133.404 2.68276 134.566 2.79169 135.623 3.22515C136.681 3.6586 137.586 4.39703 138.224 5.34673C138.862 6.29644 139.203 7.41459 139.206 8.55927C139.215 10.0842 138.619 11.5504 137.55 12.6358C136.481 13.7211 135.025 14.3369 133.503 14.3479Z" fill="white"/>
<path d="M70.7191 7.06325H62.5854V0.565002H60.0953V16.5824H62.5854V9.27204H70.7191V16.5824H73.2068V0.565002H70.7191V7.06325Z" fill="white"/>
<path d="M94.6586 16.5808H106.7V14.3487H97.1447V9.27044H106.003V7.06325H97.1447V2.79623H106.696V0.565002H94.6586V16.5808Z" fill="white"/>
<path d="M88.0003 11.1044C88.0003 12.8663 86.204 14.2703 83.9474 14.2703C81.6611 14.2703 79.8657 12.8687 79.8657 11.1044V0.565002H77.3772V11.1044C77.3835 11.8613 77.5618 12.6068 77.8984 13.2844C78.5367 14.3105 79.4295 15.1534 80.4898 15.731C81.55 16.3085 82.7415 16.601 83.9482 16.58C85.1537 16.618 86.3476 16.3326 87.406 15.7531C88.4645 15.1737 89.3491 14.3214 89.9684 13.2844C90.3192 12.612 90.4983 11.8631 90.4896 11.1044V0.565002H88.0003V11.1044Z" fill="white"/>
</g>
<defs>
<clipPath id="clip0_210_4394">
<rect width="140.953" height="16.0174" fill="white" transform="translate(0.74176 0.563354)"/>
</clipPath>
</defs>
</svg>
