<svg width="70" height="27" viewBox="0 0 70 27" fill="none" xmlns="http://www.w3.org/2000/svg">
<g clip-path="url(#clip0_14_2661)">
<path fill-rule="evenodd" clip-rule="evenodd" d="M62.0104 12.5388L56.8794 7.38193C56.6906 7.19124 56.5846 6.93307 56.5846 6.66392C56.5846 6.39478 56.6906 6.13661 56.8794 5.94592L62.0104 0.789068C62.0518 0.747406 62.1009 0.714354 62.1549 0.691802C62.2089 0.669251 62.2669 0.657643 62.3254 0.657643C62.3839 0.657643 62.4418 0.669251 62.4958 0.691802C62.5499 0.714354 62.599 0.747406 62.6403 0.789068C62.7211 0.873938 62.7684 0.985572 62.7732 1.10301V12.2248C62.7717 12.3441 62.7235 12.458 62.6391 12.5417C62.5548 12.6255 62.441 12.6725 62.3225 12.6725C62.2642 12.6728 62.2064 12.6611 62.1527 12.6381C62.0991 12.6151 62.0506 12.5813 62.0104 12.5388ZM64.3218 0.649536C65.8338 0.755419 67.2496 1.43447 68.2835 2.54964C69.3174 3.66481 69.8924 5.13307 69.8924 6.65811C69.8924 8.18315 69.3174 9.65141 68.2835 10.7666C67.2496 11.8818 65.8338 12.5608 64.3218 12.6667C64.264 12.6715 64.206 12.6647 64.1509 12.6468C64.0958 12.6289 64.0447 12.6002 64.0007 12.5624C63.9567 12.5245 63.9205 12.4783 63.8943 12.4264C63.8681 12.3745 63.8523 12.3178 63.8479 12.2597V9.8121C63.8466 9.70606 63.8832 9.60308 63.9511 9.52196C64.019 9.44083 64.1137 9.38699 64.2177 9.37025C64.8683 9.27913 65.4641 8.95438 65.8953 8.45593C66.3265 7.95747 66.564 7.31894 66.564 6.65811C66.564 5.99728 66.3265 5.35875 65.8953 4.86029C65.4641 4.36184 64.8683 4.0371 64.2177 3.94597C64.1131 3.93039 64.0178 3.87688 63.9497 3.79549C63.8816 3.71411 63.8454 3.61048 63.8479 3.50412V1.0972C63.8479 0.980459 63.8932 0.868322 63.9741 0.784695C64.0551 0.701068 64.1653 0.652568 64.2813 0.649536L64.3218 0.649536ZM0.547106 24.0036C0.544813 23.8402 0.574532 23.678 0.634566 23.5262C0.694599 23.3743 0.783771 23.2359 0.896988 23.1187C1.01021 23.0016 1.14525 22.908 1.29441 22.8434C1.44357 22.7787 1.60393 22.7443 1.76632 22.742C1.99932 22.7452 2.22779 22.8072 2.43082 22.9223C3.57172 23.7365 4.92712 24.1917 6.32536 24.2304C7.64281 24.2304 8.41132 23.649 8.41132 22.7769V22.742C8.41132 21.7013 6.98986 21.3409 5.4124 20.8583C3.43046 20.277 1.22316 19.4863 1.22316 16.9108V16.8584C1.22316 14.312 3.32645 12.7888 5.996 12.7888C7.46693 12.8079 8.91169 13.1828 10.2084 13.8818C10.4263 13.988 10.6108 14.1529 10.7413 14.3581C10.8719 14.5633 10.9434 14.8009 10.948 15.0445C10.948 15.374 10.8187 15.6902 10.5882 15.9243C10.3577 16.1584 10.0447 16.2914 9.7172 16.2945H9.67675C9.4628 16.3004 9.2512 16.2482 9.06426 16.1433C8.09809 15.5831 7.01645 15.2549 5.90355 15.1841C4.71323 15.1841 4.01406 15.7654 4.01406 16.5154V16.5678C4.01406 17.5619 5.4644 17.9689 7.03609 18.4747C8.99492 19.0909 11.2022 19.9805 11.2022 22.399V22.4513C11.2022 25.2827 9.01803 26.678 6.22713 26.678C4.40549 26.661 2.62981 26.1005 1.12493 25.0675C0.939765 24.9604 0.787741 24.8037 0.685739 24.6149C0.583738 24.426 0.53575 24.2124 0.547106 23.9978V24.0036ZM19.6154 19.7188C19.6169 18.7935 19.7995 17.8775 20.1529 17.0232C20.5062 16.1689 21.0233 15.393 21.6747 14.7397C22.3261 14.0865 23.099 13.5687 23.9493 13.216C24.7995 12.8633 25.7105 12.6826 26.6302 12.6841H26.7804C28.6186 12.6309 30.4026 13.3146 31.7398 14.5848C33.077 15.855 33.8579 17.6077 33.9108 19.4572C33.9108 19.527 33.9108 19.5967 33.9108 19.6665V19.713C33.9016 21.5798 33.1565 23.3666 31.8392 24.6812C30.5218 25.9958 28.7398 26.7307 26.8844 26.7245H26.7284C24.8941 26.773 23.1155 26.088 21.7822 24.8195C20.449 23.5511 19.6698 21.8026 19.6154 19.9572V19.7188ZM30.8367 19.7188C30.8592 19.1728 30.7744 18.6277 30.5873 18.1147C30.4002 17.6017 30.1144 17.1309 29.7462 16.7291C29.378 16.3274 28.9347 16.0026 28.4417 15.7734C27.9487 15.5442 27.4155 15.4151 26.8729 15.3934H26.7226C24.2553 15.3934 22.6778 17.3294 22.6778 19.6723V19.7247C22.6372 20.8248 23.0327 21.8961 23.7771 22.703C24.5216 23.5098 25.5541 23.986 26.6475 24.0269H26.7631C29.2593 24.0269 30.8078 22.0909 30.8078 19.7712L30.8367 19.7188ZM38.1982 25.0036C38.1982 25.4137 38.0363 25.8071 37.7481 26.0971C37.4598 26.3871 37.0689 26.5501 36.6612 26.5501C36.2536 26.5501 35.8626 26.3871 35.5744 26.0971C35.2861 25.8071 35.1242 25.4137 35.1242 25.0036V18.7537C35.1727 17.1803 35.828 15.6877 36.9513 14.5919C38.0746 13.4962 39.5777 12.8834 41.1423 12.8834C42.7068 12.8834 44.2099 13.4962 45.3333 14.5919C46.4566 15.6877 47.1119 17.1803 47.1603 18.7537V25.0094C47.1363 25.4024 46.9643 25.7714 46.6792 26.0412C46.3941 26.3109 46.0175 26.4611 45.6262 26.4611C45.2349 26.4611 44.8583 26.3109 44.5732 26.0412C44.2881 25.7714 44.1161 25.4024 44.0921 25.0094V18.4456C44.0921 18.0573 44.0159 17.6728 43.8681 17.314C43.7202 16.9553 43.5035 16.6295 43.2303 16.3552C42.9571 16.0808 42.6328 15.8634 42.276 15.7153C41.9192 15.5673 41.5369 15.4914 41.1509 15.4922C41.0374 15.4864 40.9236 15.4864 40.81 15.4922C40.084 15.586 39.4173 15.9443 38.936 16.4992C38.4548 17.0541 38.1923 17.7673 38.1982 18.5038V25.0036ZM18.2748 15.7654H15.9173V21.9106C15.9173 22.4242 16.1188 22.9169 16.4781 23.2817C16.8374 23.6465 17.3253 23.8537 17.8357 23.8583H18.2517C18.4458 23.8428 18.6411 23.8674 18.8254 23.9307C19.0097 23.9939 19.1792 24.0945 19.3235 24.2261C19.4677 24.3577 19.5837 24.5177 19.6642 24.6961C19.7447 24.8745 19.7881 25.0677 19.7916 25.2636C19.7952 25.4595 19.7589 25.6541 19.6849 25.8353C19.6109 26.0166 19.5008 26.1807 19.3614 26.3175C19.222 26.4544 19.0563 26.5611 18.8744 26.6311C18.6925 26.7011 18.4983 26.7328 18.3037 26.7245H17.6508C17.5796 26.7305 17.5081 26.7305 17.437 26.7245C16.2323 26.6698 15.0921 26.161 14.2431 25.2993C13.3942 24.4376 12.8986 23.286 12.8548 22.0734V10.6842C12.8788 10.2912 13.0508 9.92217 13.3359 9.65242C13.621 9.38267 13.9976 9.23248 14.3889 9.23248C14.7803 9.23248 15.1569 9.38267 15.4419 9.65242C15.727 9.92217 15.8991 10.2912 15.9231 10.6842V12.9632H18.2864C18.6409 12.9862 18.9735 13.1441 19.2166 13.4049C19.4596 13.6656 19.5949 14.0097 19.5949 14.3672C19.5949 14.7247 19.4596 15.0688 19.2166 15.3296C18.9735 15.5904 18.6409 15.7483 18.2864 15.7713L18.2748 15.7654ZM53.5222 19.463C53.5222 19.1125 53.6602 18.7762 53.906 18.5278C54.1518 18.2794 54.4854 18.139 54.8338 18.1375H58.1563C57.7172 16.5329 56.5962 15.3817 54.9956 15.3817C52.5746 15.3817 51.2513 17.3177 51.2513 19.6665V19.713C51.2513 22.0386 52.9212 24.0152 55.2961 24.0152C56.257 24.035 57.1905 23.6929 57.9137 23.056C58.1949 22.817 58.5589 22.7002 58.9257 22.7312C59.2925 22.7623 59.6321 22.9387 59.8696 23.2217C60.1071 23.5046 60.2232 23.8709 60.1924 24.24C60.1615 24.609 59.9861 24.9506 59.7049 25.1896C58.4348 26.1962 56.8608 26.7357 55.2441 26.7187C54.3426 26.7356 53.4466 26.5737 52.6073 26.2422C51.768 25.9107 51.0018 25.416 50.3526 24.7865C49.7033 24.157 49.1836 23.405 48.8233 22.5733C48.4629 21.7417 48.269 20.8468 48.2524 19.9398V19.7188C48.2524 15.8701 51.026 12.6841 55.0708 12.6841C58.6302 12.6841 61.1899 15.6201 61.1899 19.4688C61.1899 19.6429 61.1559 19.8153 61.0896 19.9761C61.0234 20.1369 60.9264 20.2831 60.8041 20.4062C60.6817 20.5292 60.5365 20.6269 60.3767 20.6935C60.2168 20.7601 60.0455 20.7944 59.8725 20.7944H54.8627C54.5133 20.7944 54.1782 20.6547 53.9312 20.4062C53.6841 20.1576 53.5453 19.8204 53.5453 19.4688L53.5222 19.463Z" fill="white"/>
</g>
<defs>
<clipPath id="clip0_14_2661">
<rect width="69.3044" height="26.0749" fill="white" transform="translate(0.547119 0.649658)"/>
</clipPath>
</defs>
</svg>
