<svg width="131" height="31" viewBox="0 0 131 31" fill="none" xmlns="http://www.w3.org/2000/svg">
<g clip-path="url(#clip0_210_4405)">
<path d="M19.1734 11.1948C19.7878 8.67349 20.066 6.08217 20.0312 3.49085L20.0544 3.43249C24.5176 2.95391 29.5141 2.39363 32.4008 0.374268H32.4123C32.8065 2.93057 33.2702 7.12104 28.2158 14.218C23.1033 21.4083 15.1391 25.2953 8.55437 27.373V27.3613C10.131 26.1007 11.5917 24.6883 12.9133 23.1709C15.9738 19.6107 18.0836 15.5837 19.1734 11.1948ZM17.3765 3.74765L17.3417 3.72431C11.1975 4.3663 6.87341 6.35064 4.1607 9.78239C1.13498 13.5877 0.103218 19.2605 1.01905 27.1045C1.08861 27.8399 1.16976 28.4352 1.23931 28.8438L1.27409 28.8671C4.56644 27.2446 17.4345 19.8559 17.3765 3.74765ZM34.2324 8.4984C33.2818 11.1131 31.9718 13.5993 30.3488 15.8521C25.1553 23.0541 17.446 27.0345 11.8931 29.1122C10.0846 29.7892 8.40366 30.3028 6.94297 30.688V30.7114C11.3482 30.9332 15.3593 30.5246 18.8951 29.4741C22.9178 28.2835 26.2566 26.3108 28.8186 23.6144C32.5862 19.6457 34.4759 14.3464 34.2324 8.4984Z" fill="white"/>
<path d="M51.5984 14.58C50.7173 13.973 48.9436 13.2843 47.1236 13.2843C45.2224 13.2843 43.9935 14.0897 43.9935 15.3621C43.9935 16.4826 45.0021 16.9962 46.6831 17.2063L48.2945 17.4164C51.2506 17.8133 52.9895 19.0623 52.9895 21.3851C52.9895 24.0581 50.613 25.774 46.8338 25.774C45.118 25.774 42.8111 25.3655 40.9794 23.9764L42.0923 22.1789C43.1357 22.9843 44.5268 23.673 46.8454 23.673C49.1291 23.673 50.5319 22.9259 50.5319 21.5369C50.5319 20.5097 49.6276 19.856 47.738 19.6226L46.1266 19.4358C43.0197 19.0506 41.5127 17.6382 41.5127 15.5138C41.5127 12.8291 43.7269 11.2066 47.1004 11.2066C49.2914 11.2066 51.297 11.7902 52.6533 12.724L51.5984 14.58Z" fill="white"/>
<path d="M67.5617 19.5989C67.5617 23.8244 64.5475 25.7621 61.2204 25.7621C57.8701 25.7621 54.8676 23.8361 54.8676 19.5989V11.4631H57.2673V19.3772C57.2673 22.237 58.9482 23.4976 61.2204 23.4976C63.4926 23.4976 65.162 22.2253 65.162 19.3655V11.4631H67.5617V19.5989Z" fill="white"/>
<path d="M81.7049 13.214L73.1378 23.2875H81.8324V25.4703H69.9614V23.7194L78.6212 13.6693H70.2048V11.4631H81.6933V13.214H81.7049Z" fill="white"/>
<path d="M97.2276 25.4705H94.8279V23.6029C93.7266 24.9102 92.1036 25.774 89.9242 25.774C86.0174 25.774 82.9685 22.7041 82.9685 18.4786C82.9685 14.2531 86.0174 11.1832 89.9242 11.1832C92.1036 11.1832 93.7266 12.0353 94.8279 13.366V11.4634H97.2276V25.4705ZM85.4146 18.4669C85.4146 21.2567 87.3505 23.5095 90.2024 23.5095C93.0078 23.5095 94.9786 21.3384 94.9786 18.4669C94.9786 15.5955 93.0194 13.436 90.2024 13.436C87.3042 13.436 85.4146 15.6772 85.4146 18.4669Z" fill="white"/>
<path d="M113.249 16.7744V25.4705H110.849V17.5564C110.849 14.9768 109.447 13.4593 107.024 13.4593C104.786 13.4593 102.908 15.0118 102.908 17.6148V25.4705H100.532V11.4633H102.908V13.2959C104.044 11.7201 105.853 11.1715 107.464 11.1715C110.884 11.1715 113.249 13.4126 113.249 16.7744Z" fill="white"/>
<path d="M130.07 18.4669C130.07 22.6223 126.928 25.7623 122.709 25.7623C118.489 25.7623 115.359 22.6223 115.359 18.4669C115.359 14.3114 118.489 11.1715 122.709 11.1715C126.928 11.1715 130.07 14.3114 130.07 18.4669ZM117.805 18.4669C117.805 21.3967 119.915 23.5095 122.709 23.5095C125.503 23.5095 127.612 21.3967 127.612 18.4669C127.612 15.5371 125.491 13.436 122.709 13.436C119.926 13.436 117.805 15.5371 117.805 18.4669Z" fill="white"/>
</g>
<defs>
<clipPath id="clip0_210_4405">
<rect width="129.376" height="30.3955" fill="white" transform="translate(0.694458 0.374268)"/>
</clipPath>
</defs>
</svg>
