<svg width="103" height="31" viewBox="0 0 103 31" fill="none" xmlns="http://www.w3.org/2000/svg">
<path d="M48.05 10.4887H44.4493V23.4238C44.4493 23.6693 44.2485 23.8683 44.0049 23.8683H41.0924C40.8487 23.8683 40.6479 23.6693 40.6479 23.4238V10.4887H37.0249C36.7794 10.4887 36.5804 10.3102 36.5804 10.0665V7.7771C36.5804 7.53346 36.7794 7.35492 37.0249 7.35492H48.0481C48.2917 7.35492 48.5149 7.53346 48.5149 7.7771V10.0665C48.5168 10.3102 48.2936 10.4887 48.05 10.4887Z" fill="white"/>
<path d="M55.9847 24.0691C52.3171 24.0691 49.4065 22.0921 49.4065 16.9348V14.2901C49.4065 9.13282 52.319 7.15582 55.9847 7.15582C59.6522 7.15582 62.5629 9.13282 62.5629 14.2901V16.9348C62.5629 22.0902 59.6522 24.0691 55.9847 24.0691ZM58.7391 14.2883C58.7391 11.6213 57.8501 10.4886 55.9828 10.4886C54.1174 10.4886 53.2489 11.6213 53.2489 14.2883V16.9329C53.2489 19.5999 54.1155 20.7325 55.9828 20.7325C57.8501 20.7325 58.7391 19.5999 58.7391 16.9329V14.2883Z" fill="white"/>
<path d="M74.8749 10.4887H71.2743V23.4238C71.2743 23.6693 71.0753 23.8683 70.8298 23.8683H67.9173C67.6737 23.8683 67.4747 23.6693 67.4747 23.4238V10.4887H63.8517C63.6081 10.4887 63.4054 10.3102 63.4054 10.0665V7.7771C63.4054 7.53346 63.6062 7.35492 63.8517 7.35492H74.8749C75.1185 7.35492 75.3417 7.53346 75.3417 7.7771V10.0665C75.3417 10.3102 75.1204 10.4887 74.8749 10.4887Z" fill="white"/>
<path d="M90.5008 7.82174L87.1885 21.6012C86.677 23.7363 85.0552 24.0692 83.5209 24.0692C81.9884 24.0692 80.3425 23.7363 79.831 21.6012L76.5187 7.82174C76.5187 7.7771 76.4963 7.75478 76.4963 7.71015C76.4963 7.51114 76.6749 7.35492 76.8962 7.35492H79.9872C80.2085 7.35492 80.3852 7.53346 80.4299 7.75478L83.2084 20.5801C83.2549 20.8238 83.32 20.913 83.5209 20.913C83.7217 20.913 83.7887 20.8256 83.8333 20.5801L86.6119 7.75478C86.6547 7.5316 86.8109 7.35492 87.0341 7.35492H90.1456C90.3688 7.35492 90.5231 7.48697 90.5231 7.71015C90.5231 7.73246 90.5008 7.7771 90.5008 7.82174Z" fill="white"/>
<path d="M96.7694 24.0691C95.0137 24.0691 93.7026 23.8682 92.5681 23.5799C92.3449 23.513 92.1236 23.3791 92.1236 23.1354V20.9576C92.1236 20.647 92.3021 20.5354 92.5234 20.5354C92.5458 20.5354 92.5681 20.5354 92.5904 20.5354C93.4998 20.6247 95.9455 20.8014 96.8122 20.8014C98.3465 20.8014 98.7892 20.3122 98.7892 19.2465C98.7892 18.6012 98.4767 18.246 97.3236 17.5578L94.2568 15.7352C92.1887 14.5133 91.6344 13.1128 91.6344 11.4892C91.6344 9.04355 93.0107 7.15582 97.3236 7.15582C98.9454 7.15582 101.19 7.42364 102.035 7.64496C102.211 7.68959 102.367 7.80118 102.367 8.04482V10.2896C102.367 10.4905 102.278 10.6672 101.99 10.6672C101.99 10.6672 101.968 10.6672 101.947 10.6672C101.324 10.6225 98.7464 10.4217 97.2344 10.4217C95.9678 10.4217 95.501 10.7992 95.501 11.5989C95.501 12.222 95.7893 12.5103 96.9889 13.1556L99.8325 14.69C102.144 15.9342 102.834 17.4016 102.834 19.2019C102.836 21.5564 101.281 24.0691 96.7694 24.0691Z" fill="white"/>
<path d="M30.15 15.6881C30.15 24.0034 23.4081 30.7452 15.091 30.7452C6.77568 30.7452 0.0338135 24.0034 0.0338135 15.6881C0.0338135 7.37281 6.77568 0.629089 15.091 0.629089C23.4081 0.629089 30.15 7.37095 30.15 15.6881Z" fill="white"/>
<path d="M30.15 15.6881C30.15 24.0034 23.4081 30.7452 15.091 30.7452C6.77568 30.7452 0.0338135 24.0034 0.0338135 15.6881C0.0338135 7.37281 6.77568 0.629089 15.091 0.629089C23.4081 0.629089 30.15 7.37095 30.15 15.6881Z" fill="white"/>
<path opacity="0.3" d="M25.2416 9.10504C24.2819 8.28486 11.7281 5.112 10.7703 5.44491C10.4263 5.76108 10.2421 8.15839 10.2161 10.7491C14.1161 11.6697 18.8085 12.9958 19.3813 13.4849C19.783 14.0559 19.9672 17.3292 19.9355 20.3402C22.5765 20.9633 24.8548 21.4003 25.2416 21.2646C25.9855 20.5802 25.9874 10.1689 25.2416 9.10504Z" fill="#323238"/>
<path opacity="0.3" d="M10.7684 17.6015C10.3704 17.0324 10.1863 13.7591 10.216 10.748C7.5732 10.125 5.29492 9.68791 4.90807 9.82182C4.16414 10.5081 4.16414 20.9213 4.90621 21.9814C5.86402 22.8015 18.4216 25.9781 19.3794 25.6433C19.7234 25.3253 19.9076 22.9299 19.9336 20.3391C16.0335 19.4167 11.3393 18.0906 10.7684 17.6015Z" fill="#323238"/>
<path d="M19.3816 13.4835C18.8088 12.9943 14.1164 11.6683 10.2164 10.7477C10.1866 13.7587 10.3707 17.032 10.7688 17.6011C11.3397 18.0903 16.0339 19.4163 19.9358 20.3369C19.9656 17.3277 19.7815 14.0526 19.3816 13.4835Z" fill="#323238"/>
</svg>
