<svg width="94" height="29" viewBox="0 0 94 29" fill="none" xmlns="http://www.w3.org/2000/svg">
<g clip-path="url(#clip0_210_4388)">
<mask id="mask0_210_4388" style="mask-type:alpha" maskUnits="userSpaceOnUse" x="0" y="0" width="94" height="29">
<path d="M14.4906 0.870667C22.1917 0.870667 28.4084 6.9906 28.4084 14.572C28.4084 22.1534 22.1917 28.2733 14.4906 28.2733C6.78933 28.2733 0.572693 22.1534 0.572693 14.572C0.572693 6.9906 6.78933 0.870667 14.4906 0.870667ZM14.4906 4.52436C8.83062 4.52436 4.28412 9.00012 4.28412 14.572C4.28412 20.1439 8.83062 24.6196 14.4906 24.6196C20.1505 24.6196 24.697 20.1439 24.697 14.572C24.697 9.00012 20.1505 4.52436 14.4906 4.52436ZM38.1509 6.25985C38.3365 6.16852 38.522 6.3512 38.522 6.44254V10.3702H45.9449C46.0376 10.3702 46.2233 10.553 46.2233 10.6443L46.7799 12.9278L47.3367 15.2114L47.4294 15.4855L47.5222 15.2114L48.914 10.6443C48.914 10.4616 49.0996 10.3702 49.1924 10.3702H52.9038C52.9966 10.3702 53.1821 10.553 53.1821 10.6443L54.6667 15.4855L54.7596 15.2114L55.9657 10.6443C55.9657 10.4616 56.1513 10.3702 56.2441 10.3702H65.7082C65.8011 10.3702 65.8938 10.553 65.8938 10.6443V22.7928C65.8938 22.9755 65.7082 23.0668 65.6154 23.0668H60.8834C60.6978 23.0668 60.605 22.8842 60.605 22.7928L60.6044 11.2837L57.0791 22.7928C57.0791 22.9527 56.9371 23.0426 56.8394 23.0625L56.8008 23.0668H52.9038C52.811 23.0668 52.6255 22.8842 52.6255 22.7928L51.8832 20.3266L51.0481 17.6777L49.378 22.7928C49.378 22.9755 49.1924 23.0668 49.0996 23.0668H45.2026C45.1098 23.0668 44.9242 22.8842 44.9242 22.7928L41.3984 11.2837V14.2066C41.3984 14.3893 41.2128 14.4806 41.12 14.4806H38.4292V17.5863C38.4292 18.4997 38.8931 18.8651 39.7283 18.8651C40.0994 18.8651 40.5633 18.7738 41.0272 18.591C41.12 18.4997 41.3056 18.591 41.3056 18.7738V22.4274C40.4706 22.8842 39.2643 23.1582 37.9654 23.1582C34.9034 23.1582 33.2332 21.7881 33.2332 18.7738V14.4806H32.027C31.8415 14.4806 31.7487 14.298 31.7487 14.2066V10.7356C31.7487 10.553 31.9343 10.4616 32.027 10.4616H33.2332V7.99536C33.2332 7.81268 33.3261 7.72133 33.5116 7.72133L38.1509 6.25985ZM86.0283 10.0962C90.1108 10.0962 93.08 13.1105 93.08 16.5816C93.08 20.0525 90.1108 23.0668 85.9355 23.0668C81.853 23.0668 78.8838 20.0525 78.8838 16.5816C78.8838 13.1105 81.853 10.0962 86.0283 10.0962ZM71.9249 6.25985C72.1104 6.25985 72.2033 6.3512 72.2033 6.44254V22.7014C72.2033 22.8842 72.0176 22.9755 71.9249 22.9755H67.1928C67.0072 22.9755 66.9145 22.7928 66.9145 22.7014V6.53388C66.9145 6.3512 67.1 6.25985 67.1928 6.25985H71.9249ZM78.1415 10.3702C78.3271 10.3702 78.4199 10.553 78.4199 10.6443V22.6101C78.4199 22.7928 78.2343 22.8842 78.1415 22.8842H73.4094C73.2238 22.8842 73.1311 22.7014 73.1311 22.6101V10.6443C73.1311 10.4616 73.3167 10.3702 73.4094 10.3702H78.1415ZM11.0574 15.1201C12.6349 15.1201 13.9338 16.3988 13.9338 17.9517C13.9338 19.5045 12.6349 20.7832 11.0574 20.7832C9.48009 20.7832 8.18111 19.5045 8.18111 17.9517C8.18111 16.3988 9.48009 15.1201 11.0574 15.1201ZM17.9236 15.1201C19.501 15.1201 20.8 16.3988 20.8 17.9517C20.8 19.5045 19.501 20.7832 17.9236 20.7832C16.3462 20.7832 15.0472 19.5045 15.0472 17.9517C15.0472 16.3988 16.3462 15.1201 17.9236 15.1201ZM86.0283 14.4806C84.8221 14.4806 83.987 15.4855 83.987 16.6728C83.987 17.8603 84.9148 18.8651 86.0283 18.8651C87.2345 18.8651 88.0698 17.8603 88.0698 16.6728C88.0698 15.3941 87.1417 14.3893 86.0283 14.4806ZM17.9236 8.36073C19.501 8.36073 20.8 9.63952 20.8 11.1923C20.8 12.7452 19.501 14.0239 17.9236 14.0239C16.3462 14.0239 15.0472 12.7452 15.0472 11.1923C15.0472 9.63952 16.3462 8.36073 17.9236 8.36073ZM11.0574 8.36073C12.6349 8.36073 13.9338 9.63952 13.9338 11.1923C13.9338 12.7452 12.6349 14.0239 11.0574 14.0239C9.48009 14.0239 8.18111 12.7452 8.18111 11.1923C8.18111 9.63952 9.48009 8.36073 11.0574 8.36073ZM65.8011 6.25985C65.8938 6.25985 65.9866 6.3512 66.0793 6.44254V9.36549C66.0793 9.54815 65.8938 9.63952 65.8011 9.63952H60.8834C60.6978 9.63952 60.605 9.45686 60.605 9.36549V6.53388C60.605 6.3512 60.7906 6.25985 60.8834 6.25985H65.8011ZM78.2343 6.25985C78.4199 6.25985 78.5126 6.3512 78.5126 6.44254V9.36549C78.5126 9.54815 78.3271 9.63952 78.2343 9.63952H73.3167C73.1311 9.63952 73.0383 9.45686 73.0383 9.36549V6.53388C73.0383 6.3512 73.2238 6.25985 73.3167 6.25985H78.2343Z" fill="white"/>
</mask>
<g mask="url(#mask0_210_4388)">
<path d="M14.4906 0.870667C22.1917 0.870667 28.4084 6.9906 28.4084 14.572C28.4084 22.1534 22.1917 28.2733 14.4906 28.2733C6.78933 28.2733 0.572693 22.1534 0.572693 14.572C0.572693 6.9906 6.78933 0.870667 14.4906 0.870667ZM14.4906 4.52436C8.83062 4.52436 4.28412 9.00012 4.28412 14.572C4.28412 20.1439 8.83062 24.6196 14.4906 24.6196C20.1505 24.6196 24.697 20.1439 24.697 14.572C24.697 9.00012 20.1505 4.52436 14.4906 4.52436ZM38.1509 6.25985C38.3365 6.16852 38.522 6.3512 38.522 6.44254V10.3702H45.9449C46.0376 10.3702 46.2233 10.553 46.2233 10.6443L46.7799 12.9278L47.3367 15.2114L47.4294 15.4855L47.5222 15.2114L48.914 10.6443C48.914 10.4616 49.0996 10.3702 49.1924 10.3702H52.9038C52.9966 10.3702 53.1821 10.553 53.1821 10.6443L54.6667 15.4855L54.7596 15.2114L55.9657 10.6443C55.9657 10.4616 56.1513 10.3702 56.2441 10.3702H65.7082C65.8011 10.3702 65.8938 10.553 65.8938 10.6443V22.7928C65.8938 22.9755 65.7082 23.0668 65.6154 23.0668H60.8834C60.6978 23.0668 60.605 22.8842 60.605 22.7928L60.6044 11.2837L57.0791 22.7928C57.0791 22.9527 56.9371 23.0426 56.8394 23.0625L56.8008 23.0668H52.9038C52.811 23.0668 52.6255 22.8842 52.6255 22.7928L51.8832 20.3266L51.0481 17.6777L49.378 22.7928C49.378 22.9755 49.1924 23.0668 49.0996 23.0668H45.2026C45.1098 23.0668 44.9242 22.8842 44.9242 22.7928L41.3984 11.2837V14.2066C41.3984 14.3893 41.2128 14.4806 41.12 14.4806H38.4292V17.5863C38.4292 18.4997 38.8931 18.8651 39.7283 18.8651C40.0994 18.8651 40.5633 18.7738 41.0272 18.591C41.12 18.4997 41.3056 18.591 41.3056 18.7738V22.4274C40.4706 22.8842 39.2643 23.1582 37.9654 23.1582C34.9034 23.1582 33.2332 21.7881 33.2332 18.7738V14.4806H32.027C31.8415 14.4806 31.7487 14.298 31.7487 14.2066V10.7356C31.7487 10.553 31.9343 10.4616 32.027 10.4616H33.2332V7.99536C33.2332 7.81268 33.3261 7.72133 33.5116 7.72133L38.1509 6.25985ZM86.0283 10.0962C90.1108 10.0962 93.08 13.1105 93.08 16.5816C93.08 20.0525 90.1108 23.0668 85.9355 23.0668C81.853 23.0668 78.8838 20.0525 78.8838 16.5816C78.8838 13.1105 81.853 10.0962 86.0283 10.0962ZM71.9249 6.25985C72.1104 6.25985 72.2033 6.3512 72.2033 6.44254V22.7014C72.2033 22.8842 72.0176 22.9755 71.9249 22.9755H67.1928C67.0072 22.9755 66.9145 22.7928 66.9145 22.7014V6.53388C66.9145 6.3512 67.1 6.25985 67.1928 6.25985H71.9249ZM78.1415 10.3702C78.3271 10.3702 78.4199 10.553 78.4199 10.6443V22.6101C78.4199 22.7928 78.2343 22.8842 78.1415 22.8842H73.4094C73.2238 22.8842 73.1311 22.7014 73.1311 22.6101V10.6443C73.1311 10.4616 73.3167 10.3702 73.4094 10.3702H78.1415ZM11.0574 15.1201C12.6349 15.1201 13.9338 16.3988 13.9338 17.9517C13.9338 19.5045 12.6349 20.7832 11.0574 20.7832C9.48009 20.7832 8.18111 19.5045 8.18111 17.9517C8.18111 16.3988 9.48009 15.1201 11.0574 15.1201ZM17.9236 15.1201C19.501 15.1201 20.8 16.3988 20.8 17.9517C20.8 19.5045 19.501 20.7832 17.9236 20.7832C16.3462 20.7832 15.0472 19.5045 15.0472 17.9517C15.0472 16.3988 16.3462 15.1201 17.9236 15.1201ZM86.0283 14.4806C84.8221 14.4806 83.987 15.4855 83.987 16.6728C83.987 17.8603 84.9148 18.8651 86.0283 18.8651C87.2345 18.8651 88.0698 17.8603 88.0698 16.6728C88.0698 15.3941 87.1417 14.3893 86.0283 14.4806ZM17.9236 8.36073C19.501 8.36073 20.8 9.63952 20.8 11.1923C20.8 12.7452 19.501 14.0239 17.9236 14.0239C16.3462 14.0239 15.0472 12.7452 15.0472 11.1923C15.0472 9.63952 16.3462 8.36073 17.9236 8.36073ZM11.0574 8.36073C12.6349 8.36073 13.9338 9.63952 13.9338 11.1923C13.9338 12.7452 12.6349 14.0239 11.0574 14.0239C9.48009 14.0239 8.18111 12.7452 8.18111 11.1923C8.18111 9.63952 9.48009 8.36073 11.0574 8.36073ZM65.8011 6.25985C65.8938 6.25985 65.9866 6.3512 66.0793 6.44254V9.36549C66.0793 9.54815 65.8938 9.63952 65.8011 9.63952H60.8834C60.6978 9.63952 60.605 9.45686 60.605 9.36549V6.53388C60.605 6.3512 60.7906 6.25985 60.8834 6.25985H65.8011ZM78.2343 6.25985C78.4199 6.25985 78.5126 6.3512 78.5126 6.44254V9.36549C78.5126 9.54815 78.3271 9.63952 78.2343 9.63952H73.3167C73.1311 9.63952 73.0383 9.45686 73.0383 9.36549V6.53388C73.0383 6.3512 73.2238 6.25985 73.3167 6.25985H78.2343Z" fill="white"/>
</g>
</g>
<defs>
<clipPath id="clip0_210_4388">
<rect width="93.1691" height="27.4027" fill="white" transform="translate(0.572693 0.870667)"/>
</clipPath>
</defs>
</svg>
