<svg width="82" height="31" viewBox="0 0 82 31" fill="none" xmlns="http://www.w3.org/2000/svg">
<g clip-path="url(#clip0_221_4462)">
<path d="M59.5556 12.2158H56.7267V21.8619C56.7266 21.9498 56.6914 22.0341 56.6289 22.0962C56.5664 22.1584 56.4818 22.1934 56.3934 22.1936H54.2118C54.1234 22.1934 54.0387 22.1584 53.9763 22.0962C53.9138 22.0341 53.8786 21.9498 53.8785 21.8619V12.2158H51.033C50.9902 12.2176 50.9474 12.2108 50.9073 12.1957C50.8671 12.1807 50.8303 12.1578 50.7993 12.1284C50.7682 12.0991 50.7433 12.0638 50.7262 12.0247C50.7091 11.9856 50.7001 11.9434 50.6996 11.9007V10.1945C50.7001 10.1518 50.7091 10.1097 50.7262 10.0706C50.7433 10.0314 50.7682 9.99617 50.7993 9.96679C50.8303 9.93741 50.8671 9.9145 50.9073 9.89952C50.9474 9.88446 50.9902 9.87767 51.033 9.87939H59.5549C59.6433 9.8753 59.7296 9.90615 59.7953 9.96515C59.8608 10.0242 59.9002 10.1066 59.9048 10.1945V11.9014C59.9 11.989 59.8606 12.0712 59.7953 12.1301C59.7299 12.1889 59.6438 12.2198 59.5556 12.2158Z" fill="white"/>
<path d="M68.6373 22.1241C68.0544 22.2066 67.0738 22.3394 65.2753 22.3394C63.1268 22.3394 61.2286 21.7925 61.2286 18.7771V13.2732C61.2286 10.2578 63.1441 9.72736 65.2918 9.72736C67.0897 9.72736 68.0544 9.86009 68.6373 9.94266C68.8703 9.97572 68.9706 10.0589 68.9706 10.2743V11.8174C68.9704 11.9053 68.9352 11.9896 68.8728 12.0517C68.8103 12.1139 68.7256 12.1488 68.6373 12.1491H65.1258C64.3431 12.1491 64.0603 12.4139 64.0603 13.2759V14.784H68.5045C68.5929 14.7842 68.6775 14.8192 68.74 14.8813C68.8025 14.9435 68.8377 15.0277 68.8378 15.1156V16.6897C68.8377 16.7776 68.8025 16.8618 68.74 16.924C68.6775 16.9861 68.5929 17.0211 68.5045 17.0213H64.0603V18.7777C64.0603 19.6391 64.3431 19.9046 65.1258 19.9046H68.6373C68.7256 19.9048 68.8103 19.9398 68.8728 20.0019C68.9352 20.0641 68.9704 20.1483 68.9706 20.2362V21.7773C68.9706 21.9913 68.8703 22.091 68.6373 22.1241Z" fill="white"/>
<path d="M81.2023 22.1902H78.5546C78.3381 22.1902 78.2379 22.1215 78.1217 21.9418L75.826 18.3155L73.7459 21.862C73.6291 22.0609 73.5129 22.1936 73.331 22.1936H70.8666C70.6999 22.1936 70.6169 22.0939 70.6169 21.9783C70.6202 21.9377 70.6315 21.8982 70.6501 21.862L74.2576 15.8766L70.6128 10.1932C70.5943 10.1629 70.5829 10.1288 70.5796 10.0935C70.5856 10.0326 70.6148 9.9763 70.6612 9.9362C70.7077 9.89619 70.7678 9.8754 70.8292 9.8781H73.5101C73.6934 9.8781 73.8268 10.0439 73.9251 10.1932L76.0555 13.5403L78.1176 10.1932C78.2006 10.0439 78.3506 9.8781 78.5325 9.8781H80.9969C81.0584 9.8754 81.1185 9.89619 81.1649 9.9362C81.2114 9.9763 81.2406 10.0326 81.2466 10.0935C81.2432 10.1288 81.2318 10.1629 81.2134 10.1932L77.5865 15.9117L81.3689 21.862C81.3985 21.9126 81.4156 21.9694 81.4188 22.0278C81.4194 22.1242 81.3358 22.1902 81.2023 22.1902Z" fill="white"/>
<path d="M46.7083 9.91245C46.6489 9.91261 46.5913 9.93331 46.5454 9.97088C46.4996 10.0085 46.4681 10.0608 46.4567 10.1189L44.0392 19.0207C44.006 19.203 43.9562 19.269 43.8061 19.269C43.6561 19.269 43.6063 19.2002 43.5731 19.0207L41.1528 10.1168C41.1414 10.0588 41.11 10.0065 41.0641 9.96883C41.0182 9.93119 40.9606 9.91056 40.9012 9.9104H38.5217C38.483 9.91048 38.4449 9.91916 38.41 9.93593C38.3751 9.95271 38.3446 9.9771 38.3206 10.0072C38.2965 10.0374 38.2796 10.0725 38.2711 10.1101C38.2625 10.1476 38.2627 10.1866 38.2714 10.2242C38.2714 10.2242 41.2241 20.4331 41.2566 20.5335C41.6507 21.7499 42.6071 22.3313 43.8241 22.3313C44.9831 22.3313 45.9947 21.7223 46.3902 20.537C46.4373 20.3994 49.3243 10.2234 49.3243 10.2234C49.3329 10.186 49.3329 10.1471 49.3244 10.1096C49.3158 10.0721 49.2988 10.0371 49.2748 10.007C49.2507 9.97693 49.2202 9.95263 49.1854 9.93593C49.1506 9.91916 49.1126 9.91048 49.074 9.9104L46.7083 9.91245Z" fill="white"/>
<path d="M32.048 0.957031H6.18609C4.18076 0.957031 2.89666 3.07807 3.83501 4.84137L6.42189 9.71499H1.73218C1.43518 9.71507 1.14325 9.79151 0.884642 9.93684C0.626039 10.0821 0.409534 10.2914 0.256098 10.5444C0.102662 10.7974 0.0174958 11.0855 0.00884891 11.3809C0.000202023 11.6762 0.0683669 11.9688 0.206742 12.2302L8.52753 27.899C8.67418 28.1746 8.89358 28.4052 9.16208 28.566C9.43065 28.7268 9.7381 28.8118 10.0515 28.8118C10.365 28.8118 10.6725 28.7268 10.941 28.566C11.2095 28.4052 11.4289 28.1746 11.5756 27.899L13.8354 23.6666L16.6705 29.0066C17.6683 30.8849 20.3714 30.8883 21.3727 29.0122L34.3355 4.74299C35.2517 3.02648 34.0015 0.957031 32.048 0.957031ZM20.4309 11.3263L14.8415 21.7932C14.7438 21.9764 14.5978 22.1298 14.4192 22.2367C14.2405 22.3436 14.0359 22.4002 13.8274 22.4002C13.6189 22.4002 13.4144 22.3436 13.2358 22.2367C13.057 22.1298 12.9111 21.9764 12.8133 21.7932L7.27796 11.3703C7.18545 11.1965 7.1396 11.0019 7.14486 10.8053C7.15012 10.6088 7.20631 10.4169 7.30799 10.2482C7.40968 10.0796 7.55341 9.93995 7.72526 9.84274C7.89712 9.7456 8.09127 9.69429 8.28891 9.69372H19.4448C19.6375 9.69372 19.8269 9.74331 19.9947 9.83774C20.1624 9.93218 20.3027 10.0681 20.402 10.2325C20.5012 10.3968 20.5561 10.5839 20.5611 10.7756C20.5662 10.9672 20.5213 11.157 20.4309 11.3263Z" fill="white"/>
</g>
<defs>
<clipPath id="clip0_221_4462">
<rect width="81.834" height="29.4603" fill="white" transform="translate(0.00811768 0.957031)"/>
</clipPath>
</defs>
</svg>
