<svg width="200" height="40" viewBox="0 0 200 40" fill="none" xmlns="http://www.w3.org/2000/svg">
<g clip-path="url(#clip0_937_1205)">
<path d="M41.703 11.0886C40.0119 11.0886 38.6396 12.443 38.6396 14.112V26.9191H41.703V14.112H48.9982V11.0886H41.703Z" fill="white"/>
<path d="M67.3393 19.0053V14.1149C67.3393 12.446 65.9671 11.0916 64.276 11.0916H54.3631C52.6721 11.0916 51.2998 12.446 51.2998 14.1149V23.8987C51.2998 25.5676 52.6721 26.922 54.3631 26.922H64.276C65.9671 26.922 67.3393 25.5676 67.3393 23.8987V19.0083V19.0053ZM64.276 19.0053V23.8957H54.3631V14.112H64.276V19.0024V19.0053Z" fill="white"/>
<path d="M73.4666 11.0886C71.7756 11.0886 70.4033 12.443 70.4033 14.112V23.8957C70.4033 25.5647 71.7756 26.9191 73.4666 26.9191L84.2738 26.7676V23.8957H73.4666V14.112H84.2738V11.2343L73.4666 11.0886Z" fill="white"/>
<path d="M101.845 11.0886H97.6984L91.6249 17.4936H90.4002V11.0886H87.3369V19.0053V26.9191H90.4002V20.517H91.9319H92.1709L98.4805 26.9162H102.707L94.6086 18.6587L101.845 11.0886Z" fill="white"/>
<path d="M106.439 23.8957V20.517L119.416 20.3714V14.1149C119.416 12.446 118.043 11.0916 116.352 11.0916H106.439C104.748 11.0916 103.376 12.446 103.376 14.1149V23.8987C103.376 25.5676 104.748 26.922 106.439 26.922L119.416 26.7706V23.8987H106.439V23.8957ZM106.439 14.112H116.352V17.4937H106.439V14.112Z" fill="white"/>
<path d="M127.118 6.46912H125.95L124.055 8.78179V11.0916H121.715V14.1149L124.055 14.0829V23.8987C124.055 25.5676 125.427 26.922 127.118 26.922L132.073 26.7735V23.8958H127.118V14.0392L132.522 13.9664V11.0916H127.118V6.46912Z" fill="white"/>
<path d="M148.688 20.517C148.688 18.8481 147.316 17.4936 145.625 17.4936H137.881V14.1149H148.688V11.2372L137.881 11.0916C136.19 11.0916 134.817 12.446 134.817 14.1149V17.4936C134.817 19.1626 136.19 20.517 137.881 20.517H145.625V23.8957H134.817V26.7706L145.625 26.9191C147.316 26.9191 148.688 25.5647 148.688 23.8957V20.517Z" fill="white"/>
<path d="M164.728 11.0886H154.815C153.124 11.0886 151.752 12.443 151.752 14.112V23.8957C151.752 25.5647 153.124 26.9191 154.815 26.9191L167.791 26.7676V23.8957H154.815V20.5141L167.791 20.3685V14.112C167.791 12.443 166.419 11.0886 164.728 11.0886ZM164.728 17.4936H154.815V14.112H164.728V17.4936Z" fill="white"/>
<path d="M183.831 11.0886L170.854 11.2401V14.112H183.831V17.4907L170.854 17.6364V23.8928C170.854 25.5618 172.227 26.9162 173.918 26.9162H183.831C185.522 26.9162 186.894 25.5618 186.894 23.8928V14.112C186.894 12.443 185.522 11.0886 183.831 11.0886ZM183.831 23.8957H173.918V20.517H183.831V23.8957Z" fill="white"/>
<path d="M194.597 14.0392L200 13.9664V11.0916H194.597V6.46912H193.428L191.534 8.78179V11.0916H189.193V14.1149L191.534 14.0829V23.8987C191.534 25.5676 192.906 26.922 194.597 26.922L199.552 26.7735V23.8958H194.597V14.0392Z" fill="white"/>
<path d="M30.5329 0.731122L25.5484 0.00586129C25.395 -0.0174403 25.2415 0.0437263 25.1943 0.0874167L23.0665 2.81661C22.9219 3.00011 22.8865 3.22147 22.9366 3.42245C22.9868 3.62343 22.8127 3.80692 22.6061 3.76032L20.8561 3.37876C20.5787 3.31759 20.2895 3.42245 20.1153 3.64381L13.2244 12.4168C13.0945 12.5829 12.8643 12.6411 12.6696 12.5537L10.0489 11.377C9.81875 11.2751 9.5502 11.2984 9.34066 11.4411L8.0215 12.3469C7.80311 12.4984 7.51685 12.5159 7.28076 12.3965L6.6197 12.0644C6.20358 11.8547 5.69598 12.0877 5.59269 12.5392L5.11461 14.6072C5.00246 15.0907 5.21494 15.5917 5.64286 15.8538L6.6374 16.4567L9.86302 18.417L11.4389 19.3724C11.8728 19.6374 12.4335 19.5908 12.8171 19.2558L15.4437 16.9781C15.6591 16.7917 15.966 16.7538 16.2198 16.882L17.0107 17.2781C17.2793 17.4121 17.6039 17.3684 17.8223 17.1645L19.1562 15.9354C19.3657 15.7402 19.6756 15.6907 19.9383 15.8101L21.9214 16.7014C22.2225 16.8354 22.5796 16.7509 22.7802 16.4917L23.6951 15.3295L30.6274 6.55068C30.952 6.13708 30.7307 5.53124 30.2142 5.42056L28.6678 5.08268C28.3461 5.01278 28.2104 4.63122 28.4169 4.37781L30.8162 1.44764C31.0346 1.18259 30.8753 0.78355 30.5329 0.734034V0.731122Z" fill="#8257E5"/>
<path d="M7.66126 18.3849C7.52256 18.2976 7.35139 18.4345 7.41041 18.5859L8.15706 20.52C8.21018 20.6568 8.21903 20.8054 8.18067 20.9452L7.53141 23.4589C7.49009 23.622 7.54912 23.7938 7.68487 23.8987L9.54115 25.323C9.70937 25.4511 9.94546 25.4453 10.1078 25.3084L12.0614 23.6249C12.1736 23.5288 12.3123 23.4676 12.4598 23.453L14.6614 23.2084C14.8208 23.1909 14.868 22.987 14.7352 22.9025L7.66126 18.3879V18.3849Z" fill="#8257E5"/>
<path d="M6.99422 24.8453C6.86732 24.7434 6.6932 24.7259 6.5486 24.7958L4.98448 25.5444C4.89595 25.588 4.82512 25.6638 4.78971 25.7541L1.4549 33.8776C1.44604 33.895 1.44604 33.9183 1.4549 33.9387C1.46965 33.9824 1.51687 34.0057 1.55819 33.9883L2.31369 33.7028C2.33729 33.6941 2.36681 33.6912 2.38746 33.7057C2.42583 33.729 2.43763 33.7814 2.41402 33.8193L0.011782 37.6903C-0.0383877 37.7718 0.0708052 37.8592 0.141633 37.7893L8.77672 29.226C8.8564 29.1532 8.90657 29.0512 8.91543 28.9435L9.08069 26.7386C9.08955 26.6046 9.03347 26.4764 8.92723 26.3919L6.99422 24.8482V24.8453Z" fill="#8257E5"/>
<path d="M90.8807 38.4446C90.8364 38.3223 90.8099 38.1446 90.7981 37.9087C90.6476 38.1038 90.4528 38.2524 90.2196 38.3572C89.9865 38.4621 89.7386 38.5145 89.4759 38.5145C89.1011 38.5145 88.7972 38.4126 88.567 38.2058C88.3338 37.999 88.2188 37.7397 88.2188 37.4223C88.2188 37.0465 88.3781 36.7523 88.6939 36.5339C89.0097 36.3154 89.4494 36.2077 90.0131 36.2077H90.7951V35.7708C90.7951 35.497 90.7095 35.2785 90.5384 35.1212C90.3672 34.9639 90.1163 34.8853 89.7858 34.8853C89.4848 34.8853 89.2369 34.961 89.0392 35.1125C88.8414 35.264 88.7441 35.4474 88.7441 35.6601H88.3132C88.3132 35.3513 88.4578 35.0863 88.7441 34.862C89.0333 34.6377 89.3874 34.527 89.8065 34.527C90.2255 34.527 90.5826 34.6348 90.8364 34.8474C91.0873 35.063 91.2171 35.3601 91.223 35.7445V37.565C91.223 37.9378 91.2614 38.2145 91.3411 38.4009V38.4446H90.8807ZM89.5261 38.1388C89.8153 38.1388 90.0721 38.0689 90.2993 37.932C90.5266 37.7951 90.6918 37.6116 90.7951 37.3815V36.5368H90.0249C89.594 36.5426 89.2576 36.6184 89.0156 36.7698C88.7736 36.9213 88.6526 37.1281 88.6526 37.3902C88.6526 37.6058 88.7323 37.7834 88.8946 37.9262C89.0569 38.0689 89.2664 38.1388 89.5261 38.1388Z" fill="white"/>
<path d="M169.163 38.1592C169.464 38.1592 169.715 38.0747 169.919 37.9087C170.123 37.7426 170.232 37.5242 170.25 37.2591H170.663C170.651 37.4951 170.577 37.7077 170.438 37.8999C170.303 38.0922 170.12 38.2436 169.892 38.3543C169.665 38.4621 169.423 38.5174 169.163 38.5174C168.653 38.5174 168.246 38.3427 167.948 37.9902C167.65 37.6407 167.499 37.1688 167.499 36.5747V36.4465C167.499 36.0679 167.567 35.7329 167.7 35.4416C167.835 35.1504 168.027 34.9261 168.278 34.7659C168.529 34.6086 168.824 34.527 169.161 34.527C169.588 34.527 169.94 34.6523 170.217 34.9028C170.494 35.1533 170.642 35.4853 170.663 35.896H170.25C170.232 35.596 170.12 35.3513 169.919 35.1678C169.718 34.9843 169.464 34.8911 169.161 34.8911C168.771 34.8911 168.47 35.0309 168.255 35.3076C168.039 35.5843 167.933 35.9746 167.933 36.4727V36.598C167.933 37.0873 168.039 37.4718 168.255 37.7456C168.47 38.0194 168.774 38.1592 169.163 38.1592Z" fill="white"/>
<path d="M171.282 36.464C171.282 36.0941 171.356 35.762 171.501 35.4649C171.645 35.1678 171.852 34.9377 172.117 34.7746C172.383 34.6086 172.684 34.527 173.02 34.527C173.54 34.527 173.959 34.7076 174.281 35.0659C174.602 35.4241 174.765 35.9018 174.765 36.4931V36.5805C174.765 36.9533 174.691 37.2883 174.546 37.5854C174.402 37.8825 174.195 38.1126 173.932 38.2728C173.67 38.433 173.366 38.5145 173.029 38.5145C172.513 38.5145 172.094 38.3339 171.769 37.9757C171.447 37.6174 171.285 37.1397 171.285 36.5484V36.464H171.282ZM171.713 36.5805C171.713 37.0407 171.834 37.4193 172.076 37.7135C172.318 38.0077 172.634 38.1563 173.026 38.1563C173.419 38.1563 173.732 38.0077 173.971 37.7135C174.213 37.4193 174.334 37.029 174.334 36.5455V36.464C174.334 36.1698 174.278 35.9018 174.168 35.6572C174.056 35.4125 173.903 35.2232 173.702 35.0892C173.502 34.9552 173.274 34.8882 173.018 34.8882C172.634 34.8882 172.321 35.0368 172.076 35.3339C171.834 35.6309 171.713 36.0212 171.713 36.5018V36.5805Z" fill="white"/>
<path d="M176.045 34.5999L176.06 35.2261C176.204 34.9931 176.384 34.8183 176.6 34.7047C176.815 34.5882 177.057 34.53 177.32 34.53C177.934 34.53 178.326 34.7775 178.491 35.2756C178.63 35.0368 178.816 34.8533 179.049 34.7222C179.282 34.594 179.539 34.527 179.82 34.527C180.655 34.527 181.083 34.9785 181.097 35.8785V38.4446H180.666V35.9106C180.666 35.5669 180.59 35.3106 180.442 35.1474C180.295 34.9814 180.053 34.8999 179.719 34.8999C179.409 34.9057 179.147 35.0047 178.934 35.197C178.722 35.3892 178.601 35.6251 178.577 35.9018V38.4475H178.146V35.8814C178.146 35.5523 178.067 35.3047 177.91 35.1445C177.757 34.9814 177.518 34.8999 177.196 34.8999C176.924 34.8999 176.691 34.9756 176.496 35.13C176.302 35.2843 176.157 35.5086 176.066 35.8115V38.4504H175.635V34.6028H176.048L176.045 34.5999Z" fill="white"/>
<path d="M185.327 36.5601C185.327 37.1601 185.191 37.6349 184.922 37.9873C184.654 38.3398 184.294 38.5145 183.842 38.5145C183.308 38.5145 182.901 38.331 182.617 37.9611V39.9243H182.189V34.5969H182.588L182.609 35.1416C182.889 34.7309 183.296 34.527 183.83 34.527C184.297 34.527 184.663 34.7018 184.928 35.0484C185.194 35.3979 185.327 35.8814 185.327 36.4989V36.5601ZM184.896 36.4844C184.896 35.995 184.792 35.6076 184.589 35.3222C184.385 35.0368 184.099 34.8969 183.736 34.8969C183.47 34.8969 183.246 34.961 183.054 35.0863C182.865 35.2115 182.718 35.395 182.617 35.6339V37.4805C182.721 37.7019 182.868 37.8679 183.06 37.9844C183.252 38.1009 183.479 38.1592 183.742 38.1592C184.105 38.1592 184.388 38.0164 184.592 37.731C184.795 37.4456 184.896 37.032 184.896 36.4873V36.4844Z" fill="white"/>
<path d="M188.741 38.4446C188.697 38.3223 188.67 38.1446 188.658 37.9087C188.508 38.1038 188.313 38.2524 188.08 38.3572C187.847 38.4621 187.599 38.5145 187.336 38.5145C186.961 38.5145 186.658 38.4126 186.427 38.2058C186.194 37.999 186.079 37.7397 186.079 37.4223C186.079 37.0465 186.238 36.7523 186.554 36.5339C186.87 36.3154 187.31 36.2077 187.873 36.2077H188.655V35.7708C188.655 35.497 188.57 35.2785 188.399 35.1212C188.228 34.9639 187.977 34.8853 187.649 34.8853C187.348 34.8853 187.1 34.961 186.902 35.1125C186.705 35.264 186.607 35.4474 186.607 35.6601H186.176C186.176 35.3513 186.321 35.0863 186.607 34.862C186.897 34.6377 187.251 34.527 187.67 34.527C188.089 34.527 188.446 34.6348 188.7 34.8474C188.951 35.063 189.08 35.3601 189.086 35.7445V37.565C189.086 37.9378 189.125 38.2145 189.204 38.4009V38.4446H188.744H188.741ZM187.386 38.1388C187.676 38.1388 187.932 38.0689 188.16 37.932C188.387 37.7951 188.552 37.6116 188.655 37.3815V36.5368H187.885C187.454 36.5426 187.118 36.6184 186.876 36.7698C186.634 36.9213 186.513 37.1281 186.513 37.3902C186.513 37.6058 186.593 37.7834 186.755 37.9262C186.917 38.0689 187.127 38.1388 187.386 38.1388Z" fill="white"/>
<path d="M190.645 34.5999L190.659 35.2581C190.807 35.0222 190.99 34.8416 191.208 34.7164C191.427 34.5911 191.669 34.53 191.931 34.53C192.35 34.53 192.66 34.6465 192.864 34.8795C193.067 35.1125 193.171 35.4591 193.174 35.9251V38.4504H192.746V35.9222C192.746 35.5785 192.669 35.3222 192.524 35.1533C192.38 34.9843 192.147 34.8999 191.828 34.8999C191.562 34.8999 191.326 34.9814 191.12 35.1475C190.913 35.3135 190.763 35.5348 190.665 35.8145V38.4475H190.237V34.5999H190.648H190.645Z" fill="white"/>
<path d="M195.52 37.833L196.659 34.5969H197.123L195.458 39.0971L195.372 39.2951C195.16 39.7612 194.829 39.9942 194.381 39.9942C194.278 39.9942 194.168 39.9767 194.05 39.9447V39.5922L194.269 39.6126C194.481 39.6126 194.652 39.5602 194.782 39.4582C194.912 39.3563 195.024 39.1786 195.116 38.9252L195.308 38.4068L193.838 34.5911H194.31L195.52 37.8271V37.833Z" fill="white"/>
<path d="M102.836 38.6514V33.6533H103.287V38.6514H102.836Z" fill="white"/>
<path d="M107.827 38.7388C106.986 38.7388 106.354 38.5262 105.932 38.098C105.51 37.6698 105.301 37.0232 105.301 36.1523C105.301 35.5902 105.398 35.1154 105.59 34.7309C105.782 34.3465 106.068 34.0581 106.449 33.86C106.829 33.662 107.302 33.5659 107.862 33.5659C108.217 33.5659 108.532 33.6037 108.81 33.6795C109.087 33.7552 109.323 33.8659 109.518 34.0144C109.713 34.163 109.86 34.3494 109.964 34.5707C110.067 34.795 110.12 35.0572 110.12 35.3572H109.604C109.604 35.1038 109.559 34.8911 109.471 34.7193C109.382 34.5474 109.261 34.4076 109.105 34.3028C108.948 34.1979 108.765 34.1222 108.55 34.0756C108.335 34.029 108.104 34.0057 107.859 34.0057C107.55 34.0057 107.269 34.0435 107.021 34.1193C106.773 34.195 106.561 34.3173 106.384 34.4834C106.207 34.6523 106.071 34.8649 105.977 35.1271C105.882 35.3892 105.835 35.7038 105.835 36.0737V36.2281C105.835 36.7232 105.915 37.1223 106.071 37.4252C106.227 37.7281 106.455 37.9495 106.747 38.0834C107.039 38.2203 107.387 38.2873 107.792 38.2873C108.234 38.2873 108.588 38.2291 108.851 38.1097C109.114 37.9902 109.306 37.8067 109.424 37.5592C109.542 37.3116 109.601 36.997 109.601 36.6184V36.4931H107.688V36.0562H110.117V38.6427H109.704L109.636 37.9582C109.518 38.1417 109.362 38.2932 109.167 38.4068C108.972 38.5203 108.76 38.6048 108.529 38.6543C108.299 38.7068 108.063 38.7301 107.821 38.7301L107.827 38.7388Z" fill="white"/>
<path d="M112.552 38.6514V33.6533H113.151V38.6514H112.552Z" fill="white"/>
<path d="M116.836 38.6514V34.2358H115.086V33.6533H119.271V34.2358H117.515V38.6514H116.836Z" fill="white"/>
<path d="M120.21 38.6514L122.202 33.6533H123.191L125.192 38.6514H124.365L123.893 37.4572H121.458L120.992 38.6514H120.21ZM121.709 36.8164H123.642L123.052 35.2931C123.031 35.2494 123.008 35.1912 122.981 35.1154C122.955 35.0397 122.922 34.9552 122.89 34.8591C122.854 34.763 122.822 34.6698 122.789 34.5708C122.757 34.4746 122.727 34.3843 122.698 34.2999H122.654C122.618 34.396 122.58 34.5096 122.535 34.6348C122.491 34.7601 122.447 34.8824 122.406 35.0018C122.364 35.1213 122.329 35.2174 122.299 35.2902L121.709 36.8135V36.8164Z" fill="white"/>
<path d="M126.956 38.6514V33.6533H127.806V37.9233H130.338V38.6514H126.956Z" fill="white"/>
<path d="M132.171 38.6514V33.6533H133.115V35.6921H135.5V33.6533H136.444V38.6514H135.5V36.496H133.115V38.6514H132.171Z" fill="white"/>
<path d="M140.947 38.7388C140.416 38.7388 139.956 38.6456 139.569 38.4592C139.183 38.2728 138.888 37.9844 138.681 37.5999C138.474 37.2125 138.371 36.732 138.371 36.1523C138.371 35.5727 138.474 35.0805 138.681 34.6989C138.888 34.3173 139.186 34.0348 139.569 33.8455C139.956 33.6591 140.413 33.5659 140.947 33.5659C141.482 33.5659 141.951 33.6591 142.334 33.8455C142.718 34.0319 143.013 34.3173 143.22 34.6989C143.426 35.0805 143.53 35.564 143.53 36.1523C143.53 36.7407 143.426 37.2125 143.22 37.5999C143.013 37.9873 142.718 38.2728 142.334 38.4592C141.951 38.6456 141.488 38.7388 140.947 38.7388ZM140.947 37.8854C141.192 37.8854 141.411 37.8504 141.597 37.7805C141.783 37.7106 141.942 37.6058 142.069 37.466C142.196 37.3261 142.293 37.1572 142.361 36.9562C142.429 36.7553 142.461 36.5193 142.461 36.2543V36.0562C142.461 35.7882 142.429 35.5523 142.361 35.3484C142.293 35.1445 142.199 34.9727 142.069 34.8358C141.942 34.696 141.783 34.594 141.597 34.5212C141.411 34.4513 141.192 34.4164 140.947 34.4164C140.703 34.4164 140.484 34.4513 140.298 34.5212C140.112 34.5911 139.956 34.696 139.829 34.8358C139.702 34.9756 139.608 35.1445 139.546 35.3484C139.481 35.5523 139.448 35.7882 139.448 36.0562V36.2543C139.448 36.5222 139.481 36.7553 139.546 36.9562C139.611 37.1572 139.705 37.3291 139.829 37.466C139.956 37.6058 140.109 37.7077 140.298 37.7805C140.484 37.8504 140.703 37.8854 140.947 37.8854Z" fill="white"/>
<path d="M147.694 38.7388C147.222 38.7388 146.818 38.666 146.481 38.5203C146.145 38.3747 145.885 38.1533 145.705 37.8562C145.525 37.5591 145.437 37.1921 145.437 36.7494V33.6445H146.602V36.7203C146.602 37.064 146.697 37.3349 146.883 37.5242C147.069 37.7164 147.337 37.8125 147.688 37.8125C148.039 37.8125 148.314 37.7164 148.503 37.5242C148.692 37.3319 148.786 37.064 148.786 36.7203V33.6445H149.961V36.7494C149.961 37.1921 149.869 37.562 149.686 37.8562C149.503 38.1533 149.244 38.3747 148.907 38.5203C148.571 38.666 148.166 38.7388 147.694 38.7388Z" fill="white"/>
<path d="M154.183 38.7388C153.864 38.7388 153.563 38.7097 153.283 38.6543C153.003 38.599 152.755 38.5087 152.542 38.3805C152.327 38.2553 152.158 38.0893 152.037 37.8825C151.914 37.6757 151.852 37.4223 151.852 37.1222V37.0553C151.852 37.032 151.852 37.0116 151.857 36.997H153.135C153.135 36.997 153.135 37.029 153.132 37.0523C153.132 37.0756 153.129 37.0931 153.129 37.1077C153.129 37.2621 153.171 37.3873 153.25 37.4834C153.333 37.5795 153.445 37.6465 153.593 37.6873C153.74 37.7281 153.911 37.7485 154.109 37.7485C154.218 37.7485 154.319 37.7427 154.413 37.7339C154.508 37.7252 154.59 37.7077 154.664 37.6815C154.738 37.6582 154.803 37.6261 154.859 37.5912C154.915 37.5562 154.956 37.5096 154.986 37.4601C155.012 37.4077 155.027 37.3494 155.027 37.2824C155.027 37.1718 154.983 37.0786 154.897 37.0057C154.812 36.9329 154.696 36.8718 154.549 36.8222C154.404 36.7727 154.239 36.729 154.059 36.6824C153.876 36.6387 153.687 36.5921 153.489 36.5426C153.292 36.4931 153.103 36.4319 152.92 36.3591C152.737 36.2863 152.575 36.1931 152.43 36.0824C152.285 35.9717 152.17 35.8319 152.082 35.663C151.996 35.4941 151.952 35.2931 151.952 35.0542C151.952 34.7921 152.008 34.5649 152.123 34.3727C152.235 34.1804 152.392 34.0231 152.592 33.9037C152.793 33.7814 153.02 33.694 153.283 33.6387C153.543 33.5833 153.823 33.5542 154.118 33.5542C154.413 33.5542 154.682 33.5833 154.933 33.6416C155.186 33.6998 155.411 33.7901 155.608 33.9154C155.806 34.0406 155.96 34.195 156.069 34.3814C156.181 34.5678 156.237 34.7921 156.243 35.0542V35.1416H154.974V35.0892C154.974 34.9785 154.944 34.8795 154.882 34.795C154.82 34.7105 154.729 34.6406 154.605 34.5911C154.481 34.5387 154.331 34.5154 154.148 34.5154C153.965 34.5154 153.811 34.5329 153.687 34.5678C153.563 34.6028 153.466 34.6494 153.398 34.7135C153.33 34.7775 153.298 34.8533 153.298 34.9406C153.298 35.0484 153.342 35.1358 153.427 35.2028C153.513 35.2698 153.631 35.328 153.779 35.3775C153.926 35.4271 154.091 35.4708 154.274 35.5115C154.457 35.5523 154.643 35.596 154.838 35.6426C155.033 35.6892 155.222 35.7475 155.402 35.8174C155.585 35.8873 155.75 35.9776 155.898 36.0882C156.045 36.1989 156.163 36.3329 156.249 36.4931C156.334 36.6533 156.379 36.8485 156.379 37.0756C156.379 37.4747 156.284 37.7951 156.095 38.0368C155.906 38.2786 155.644 38.4563 155.313 38.5699C154.98 38.6805 154.605 38.7388 154.189 38.7388H154.183Z" fill="white"/>
<path d="M158.273 38.6514V33.6387H162.606V34.7892H159.808V35.5552H162.311V36.662H159.808V37.5009H162.659V38.6514H158.273Z" fill="white"/>
<path d="M98.8255 38.6456H96.5029V33.6533H98.8255C99.9292 33.6533 100.829 34.5416 100.829 35.631V36.6679C100.829 37.7572 99.9292 38.6456 98.8255 38.6456ZM96.9043 38.2495H98.8255C99.7079 38.2495 100.428 37.5388 100.428 36.6679V35.631C100.428 34.7601 99.7079 34.0494 98.8255 34.0494H96.9043V38.2495Z" fill="white"/>
</g>
<defs>
<clipPath id="clip0_937_1205">
<rect width="200" height="40" fill="white"/>
</clipPath>
</defs>
</svg>
